<?xml version="1.0" encoding="UTF-8" standalone="no"?>
<svg
   xmlns:dc="http://purl.org/dc/elements/1.1/"
   xmlns:cc="http://creativecommons.org/ns#"
   xmlns:rdf="http://www.w3.org/1999/02/22-rdf-syntax-ns#"
   xmlns:svg="http://www.w3.org/2000/svg"
   xmlns="http://www.w3.org/2000/svg"
   xmlns:sodipodi="http://sodipodi.sourceforge.net/DTD/sodipodi-0.dtd"
   xmlns:inkscape="http://www.inkscape.org/namespaces/inkscape"
   xml:space="preserve"
   height="1052.5"
   width="1488.75"
   version="1.1"
   id="svg2"
   inkscape:version="0.48.5 r10040"
   sodipodi:docname="reference-housenumbers.svg"><metadata
     id="metadata3199"><rdf:RDF><cc:Work
         rdf:about=""><dc:format>image/svg+xml</dc:format><dc:type
           rdf:resource="http://purl.org/dc/dcmitype/StillImage" /><dc:title /></cc:Work></rdf:RDF></metadata><defs
     id="defs3197" /><sodipodi:namedview
     pagecolor="#ffffff"
     bordercolor="#666666"
     borderopacity="1"
     objecttolerance="10"
     gridtolerance="10"
     guidetolerance="10"
     inkscape:pageopacity="0"
     inkscape:pageshadow="2"
     inkscape:window-width="1916"
     inkscape:window-height="1161"
     id="namedview3195"
     showgrid="false"
     inkscape:zoom="16"
     inkscape:cx="185.98036"
     inkscape:cy="920.33986"
     inkscape:window-x="0"
     inkscape:window-y="18"
     inkscape:window-maximized="0"
     inkscape:current-layer="svg2"
     showguides="true"
     inkscape:guide-bbox="true" /><!--<g transform='matrix(1,0,0,-1,0,0)'>--><path
     id="path0001"
     style="fill:#000000;fill-opacity:1;fill-rule:nonzero;stroke:none"
     d="m 56.30363,254.30535 4.608482,-0.017 -0.0049,-0.85145 -3.626653,0.0137 -0.0088,-2.15391 3.476321,-0.014 -0.0029,-0.82152 -3.476965,0.004 1.63e-4,-2.63549 3.696508,-0.0183 -0.003,-0.82152 -4.688961,0.0122 0.0307,7.3032 z"
     inkscape:connector-curvature="0"><title
       id="title3091">E</title></path><path
     id="path0002"
     style="fill:#000000;fill-opacity:1;fill-rule:nonzero;stroke:none"
     d="m 62.860766,254.51998 4.605547,-0.0154 -0.0028,-0.83737 -3.626072,0.01 -0.0089,-2.15743 3.469874,-0.008 0.0037,-0.82975 -3.469874,0.008 -0.01215,-2.64013 3.704171,-0.0107 0.0037,-0.82975 -4.69012,0.009 0.02293,7.30206 z"
     inkscape:connector-curvature="0"><title
       id="title3094">E</title></path><path
     id="path0003"
     style="fill:#000000;fill-opacity:1;fill-rule:nonzero;stroke:none"
     d="m 82.756065,254.36891 0.994031,-9.8e-4 -0.0068,-3.00413 3.576137,-0.007 0.0068,3.00413 0.980046,-0.003 -0.0066,-7.29423 -0.980046,0.003 0.0015,3.4681 -3.58208,-10e-4 -0.0015,-3.4681 -0.988089,0.009 0.0066,7.29423 z"
     inkscape:connector-curvature="0"><title
       id="title3097">H</title></path><path
     id="path0004"
     style="fill:#000000;fill-opacity:1;fill-rule:nonzero;stroke:none"
     d="m 161.8457,251.25857 c 0,0 0.31001,-0.11267 0.61591,-0.46384 0,0 0.30031,-0.35947 0.59092,-0.96572 l 1.00117,-2.00254 -1.07336,4.4e-4 -0.91308,1.88279 c 0,0 -0.35093,0.7314 -0.69909,0.96632 0,0 -0.34256,0.24321 -0.91944,0.24643 l -1.07336,4.5e-4 -0.0144,-3.07856 -0.98736,0.003 0.0241,7.29429 2.22711,-0.007 c 0,0 1.24804,-0.01 1.86086,-0.53181 0,0 0.61281,-0.52208 0.61796,-1.58715 0,0 -0.004,-0.68504 -0.33363,-1.13806 0,0 -0.31592,-0.45033 -0.92427,-0.61889 z m -2.4624,3.07297 -0.006,-2.60155 1.23146,0.002 c 0,0 0.7211,-0.004 1.08346,0.31845 0,0 0.36796,0.33078 0.37427,0.96588 0,0 0.004,0.64899 -0.36899,0.9728 0,0 -0.35874,0.32651 -1.07984,0.33053 l -1.23416,0.0124 z"
     inkscape:connector-curvature="0"><title
       id="title3100">R</title></path><path
     id="path0005"
     style="fill:#000000;fill-opacity:1;fill-rule:nonzero;stroke:none"
     d="m 66.681786,243.95191 4.683598,0.003 8.1e-4,-0.42297 -2.642598,-6.87744 -1.027029,-0.004 2.480992,6.46503 -3.494123,-0.01 -0.0017,0.84593 z"
     inkscape:connector-curvature="0"><title
       id="title3103">7</title></path><path
     id="path0006"
     style="fill:#000000;fill-opacity:1;fill-rule:nonzero;stroke:none"
     d="m 173.7676,255.19452 6.18,0 0,-0.84 -2.6,0 0,-6.45 -0.98,0 0,6.45 -2.6,0 0,0.84 z"
     inkscape:connector-curvature="0"><title
       id="title3106">T</title></path><path
     id="path0007"
     style="fill:#000000;fill-opacity:1;fill-rule:nonzero;stroke:none"
     d="m 118.2637,255.43092 1.47273,-0.008 1.8459,-4.96677 1.88446,4.95683 1.46996,0.006 -0.009,-7.29986 -0.9735,-3e-4 0.0147,6.40679 -1.88445,-4.99288 -1.00123,-0.006 -1.86811,5.0056 -0.0147,-6.4068 -0.94576,0.005 0.009,7.29986 z"
     inkscape:connector-curvature="0"><title
       id="title3109">M</title></path><path
     id="path0008"
     style="fill:#000000;fill-opacity:1;fill-rule:nonzero;stroke:none"
     d="m 69.3502,254.36539 4.185783,-0.005 0.0048,-0.84147 -3.204512,0.002 -0.0052,-2.14282 2.893885,-0.006 -0.0042,-0.82097 -2.884437,-0.005 -0.0074,-3.48464 -0.991256,0.003 0.01256,7.29989 z"
     inkscape:connector-curvature="0"><title
       id="title3112">F</title></path><path
     id="path0009"
     style="fill:#000000;fill-opacity:1;fill-rule:nonzero;stroke:none"
     d="m 126.23366,255.37036 1.33003,0.004 3.23334,-6.10688 -0.001,6.11631 0.95209,-0.004 0.003,-7.29635 -1.33003,-0.004 -3.2312,6.0929 -0.003,-6.08836 -0.95801,-0.004 0.005,7.29044 z"
     inkscape:connector-curvature="0"><title
       id="title3115">N</title></path><path
     id="path00010"
     style="fill:#000000;fill-opacity:1;fill-rule:nonzero;stroke:none"
     d="m 28.640925,237.8723 1.62,0 0,5.57 -1.76,-0.35 0,0.89 1.75,0.36 0.98,0 0,-6.47 1.61,0 0,-0.83 -4.2,0 0,0.83 z"
     inkscape:connector-curvature="0"><title
       id="title3118">1</title></path><path
     id="path00011"
     style="fill:#000000;fill-opacity:1;fill-rule:nonzero;stroke:none"
     d="m 102.00982,255.59962 0.97908,3e-4 0.0107,-3.10096 3.25669,3.10748 1.28141,6e-4 -3.61694,-3.40686 3.89005,-3.88438 -1.30091,-0.0115 -3.51029,3.51793 0.0127,-3.52534 -0.98736,0.005 -0.0151,7.29745 z"
     inkscape:connector-curvature="0"><title
       id="title3121">K</title></path><path
     id="path00012"
     style="fill:#000000;fill-opacity:1;fill-rule:nonzero;stroke:none"
     d="m 90.04249,254.51488 0.984733,9e-5 -0.01168,-7.29791 -0.979048,0.008 0.006,7.28969 z"
     inkscape:connector-curvature="0"><title
       id="title3124">I</title></path><path
     id="path00013"
     style="fill:#000000;fill-opacity:1;fill-rule:nonzero;stroke:none"
     d="m 31.097458,263.33082 0.900882,0.003 0.0028,-5.46619 -0.91087,-0.004 0.0072,5.46667 z m -0.002,2.12235 0.910871,0.004 -0.0051,-1.14156 -0.901363,0.007 -0.0044,1.13109 z"
     inkscape:connector-curvature="0"><title
       id="title3127">i</title></path><path
     id="path00014"
     style="fill:#000000;fill-opacity:1;fill-rule:nonzero;stroke:none"
     d="m 80.815513,236.88326 -2.24e-4,0.88955 c 0,0 0.368541,-0.16786 0.756512,-0.26209 0,0 0.378077,-0.0957 0.741519,-0.0925 0,0 0.980046,0.004 1.498579,0.66653 0,0 0.510107,0.65168 0.574096,1.99552 0,0 -0.282179,-0.41578 -0.712343,-0.65128 0,0 -0.431626,-0.22561 -0.957736,-0.22258 0,0 -1.100215,-0.0111 -1.744177,0.65172 0,0 -0.634071,0.66434 -0.641193,1.80559 0,0 -0.0042,1.12147 0.652832,1.805 0,0 0.666919,0.685 1.768599,0.68626 0,0 1.272775,0.006 1.940865,-0.95621 0,0 0.669554,-0.97247 0.668857,-2.81239 0,0 0.01142,-1.71682 -0.795156,-2.75607 0,0 -0.817926,-1.03082 -2.202445,-1.03351 0,0 -0.373334,-0.005 -0.747021,0.0613 0,0 -0.375151,0.0759 -0.801581,0.2251 z m 1.957349,3.09989 c 0,0 0.656172,0.006 1.04424,0.45777 0,0 0.388069,0.45167 0.382715,1.23937 0,0 0.003,0.79906 -0.396557,1.24537 0,0 -0.389739,0.44777 -1.047376,0.45156 0,0 -0.666064,-0.008 -1.054133,-0.45925 0,0 -0.378177,-0.4502 -0.371358,-1.24779 0,0 0.0054,-0.7877 0.3852,-1.23694 0,0 0.379847,-0.44924 1.057269,-0.45009 z"
     inkscape:connector-curvature="0"><title
       id="title3130">9</title></path><path
     id="path00015"
     style="fill:#000000;fill-opacity:1;fill-rule:nonzero;stroke:none"
     d="m 53.9863,243.85118 3.871095,-0.0181 0.002,-0.836 -2.973103,0.007 -0.0025,-1.78361 c 0,0 0.222186,0.0777 0.4294,0.1132 0,0 0.208433,0.0256 0.430449,0.0227 0,0 1.219261,-0.001 1.926089,-0.67013 0,0 0.706827,-0.66881 0.705663,-1.80744 0,0 -0.005,-1.18949 -0.731957,-1.83294 0,0 -0.726963,-0.64344 -2.077693,-0.63811 0,0 -0.453959,0.005 -0.926378,0.0776 0,0 -0.473639,0.0829 -0.986809,0.24147 l -3.95e-4,0.98732 c 0,0 0.452228,-0.23662 0.920819,-0.36041 0,0 0.467371,-0.11385 0.982101,-0.12114 0,0 0.845926,0.003 1.335559,0.44618 0,0 0.499559,0.44423 0.496214,1.20954 0,0 0.009,0.74667 -0.488667,1.18928 0,0 -0.48898,0.45377 -1.32498,0.45181 0,0 -0.393187,0.002 -0.796469,-0.0777 0,0 -0.392137,-0.0885 -0.803076,-0.26994 l 0.01271,3.66893 z"
     inkscape:connector-curvature="0"><title
       id="title3133">5</title></path><path
     id="path00016"
     style="fill:#000000;fill-opacity:1;fill-rule:nonzero;stroke:none"
     d="m 23.873342,243.38245 c 0,0 -0.748121,-0.004 -1.138877,-0.75197 0,0 -0.380871,-0.74662 -0.392971,-2.24591 0,0 -6.96e-4,-1.50764 0.387842,-2.25727 0,0 0.378655,-0.75115 1.126776,-0.74731 0,0 0.779294,-0.002 1.160164,0.74513 0,0 0.390755,0.74814 0.392973,2.2459 0,0 0.0022,1.49776 -0.376439,2.24891 0,0 -0.378654,0.75115 -1.159468,0.76252 z m 0.0015,0.77929 c 0,0 1.234704,-0.002 1.880229,-0.97537 0,0 0.645524,-0.97313 0.635719,-2.81607 0,0 8e-5,-1.84141 -0.649924,-2.81156 0,0 -0.651524,-0.96027 -1.886228,-0.95805 0,0 -1.2233,-0.006 -1.868824,0.96701 0,0 -0.645525,0.97314 -0.63572,2.81607 0,0 -7.9e-5,1.84141 0.649924,2.81157 0,0 0.650003,0.97015 1.874824,0.9664 z"
     inkscape:connector-curvature="0"><title
       id="title3136">0</title></path><path
     id="path00017"
     style="fill:#000000;fill-opacity:1;fill-rule:nonzero;stroke:none"
     d="m 62.739814,240.59789 c 0,0 -0.653691,-0.009 -1.041891,-0.45985 0,0 -0.3882,-0.45045 -0.392793,-1.23682 0,0 0.0066,-0.79508 0.393578,-1.24141 0,0 0.388245,-0.45625 1.043149,-0.45677 0,0 0.674756,0.002 1.062955,0.45236 0,0 0.377061,0.45915 0.380442,1.25545 0,0 -0.0042,0.77523 -0.392365,1.23148 0,0 -0.378319,0.45747 -1.053075,0.45556 z m 1.969302,3.09187 -0.0024,-0.88685 c 0,0 -0.372899,0.16597 -0.757155,0.26003 0,0 -0.384258,0.0941 -0.736524,0.0913 0,0 -0.987319,1.4e-4 -1.501351,-0.65707 0,0 -0.51403,-0.65725 -0.582125,-1.99541 0,0 0.281441,0.41725 0.717408,0.64182 0,0 0.444678,0.23571 0.959405,0.22813 0,0 1.087794,0.002 1.732254,-0.6546 0,0 0.645673,-0.66657 0.643853,-1.8052 0,0 -0.0031,-1.12871 -0.665953,-1.80417 0,0 -0.66171,-0.68537 -1.769354,-0.68984 0,0 -1.270106,0.006 -1.932337,0.97267 0,0 -0.662232,0.96677 -0.665963,2.80994 0,0 8.93e-4,1.72285 0.8223,2.75013 0,0 0.810252,1.036 2.190758,1.03353 0,0 0.372119,0.005 0.744022,-0.0702 0,0 0.380615,-0.0643 0.803145,-0.22418 z"
     inkscape:connector-curvature="0"><title
       id="title3139">6</title></path><path
     id="path00018"
     style="fill:#000000;fill-opacity:1;fill-rule:nonzero;stroke:none"
     d="m 75.697816,240.21265 c 0,0 -0.698564,-0.003 -1.100121,-0.38695 0,0 -0.391833,-0.38179 -0.3886,-1.03913 0,0 -0.0088,-0.64994 0.390093,-1.02739 0,0 0.398915,-0.37745 1.107203,-0.37229 0,0 0.698564,0.003 1.112178,0.37956 0,0 0.403887,0.3744 0.402983,1.02201 0,0 -0.0032,0.65733 -0.404478,1.04451 0,0 -0.398914,0.37745 -1.119258,0.37968 z m -0.98078,0.40258 c 0,0 -0.624208,0.15895 -0.986147,0.59667 0,0 -0.361939,0.43772 -0.358184,1.06588 0,0 -0.0035,0.87321 0.624837,1.38365 0,0 0.620974,0.49839 1.700324,0.49989 0,0 1.089076,0.004 1.724423,-0.50206 0,0 0.625621,-0.50823 0.619431,-1.38376 0,0 0.006,-0.62584 -0.352435,-1.06132 0,0 -0.358406,-0.43548 -0.988189,-0.59664 0,0 0.716391,-0.15743 1.109429,-0.63912 0,0 0.393037,-0.48168 0.395865,-1.18025 0,0 -8.4e-4,-1.06963 -0.636995,-1.63335 0,0 -0.648225,-0.55633 -1.860987,-0.55895 0,0 -1.203038,-2.9e-4 -1.850034,0.55423 0,0 -0.649325,0.56425 -0.658226,1.63155 0,0 0.0069,0.70089 0.404607,1.18693 0,0 0.409764,0.47863 1.112281,0.63665 z m -0.365369,1.56803 c 0,0 0.0017,-0.56515 0.367201,-0.88891 0,0 0.353431,-0.31637 0.981592,-0.32012 0,0 0.645281,0.0106 1.002469,0.32242 0,0 0.354857,0.32152 0.353142,0.88667 0,0 -0.0017,0.56516 -0.355146,0.88152 0,0 -0.365487,0.32376 -1.001043,0.31546 0,0 -0.62816,0.004 -0.983018,-0.31776 0,0 -0.364582,-0.32385 -0.365197,-0.87928 z"
     inkscape:connector-curvature="0"><title
       id="title3142">8</title></path><path
     id="path00019"
     style="fill:#000000;fill-opacity:1;fill-rule:nonzero;stroke:none"
     d="m 136.82716,254.78551 c 0,0 -1.08122,0.0309 -1.72817,-0.76074 0,0 -0.64694,-0.79169 -0.67797,-2.16702 0,0 -0.031,-1.37533 0.56713,-2.19154 0,0 0.60632,-0.82199 1.68755,-0.85293 0,0 1.07884,-0.017 1.72001,0.76653 0,0 0.64694,0.79168 0.67797,2.16701 0,0 0.0392,1.36955 -0.56713,2.19154 0,0 -0.60633,0.822 -1.67939,0.84715 z m 0.0145,0.79868 c 0,0 1.52765,-0.0409 2.42427,-1.09321 0,0 0.89662,-1.05227 0.8529,-2.77407 0,0 -0.0379,-1.71364 -0.98517,-2.72147 0,0 -0.94725,-1.00784 -2.48068,-0.97506 0,0 -1.52765,0.0409 -2.43006,1.08505 0,0 -0.88846,1.04649 -0.84712,2.78223 0,0 0.0437,1.7218 0.99096,2.72963 0,0 0.94725,1.00784 2.4749,0.9669 z"
     inkscape:connector-curvature="0"><title
       id="title3145">O</title></path><path
     id="path00020"
     style="fill:#000000;fill-opacity:1;fill-rule:nonzero;stroke:none"
     d="m 152.72046,254.90799 c 0,0 -1.08,0 -1.7,-0.81 0,0 -0.63,-0.8 -0.63,-2.18 0,0 0,-1.37 0.63,-2.17 0,0 0.62,-0.81 1.7,-0.81 0,0 1.08,0 1.71,0.81 0,0 0.62,0.8 0.62,2.17 0,0 0,1.38 -0.62,2.18 0,0 -0.63,0.81 -1.71,0.81 z m 1.39,-6.5 1.3,-1.42 -1.19,0 -1.09,1.17 c 0,0 -0.16,0 -0.24,-0.01 0,0 -0.09,-0.01 -0.17,-0.01 0,0 -1.53,0 -2.45,1.03 0,0 -0.92,1.04 -0.92,2.75 0,0 0,1.72 0.92,2.75 0,0 0.92,1.04 2.45,1.04 0,0 1.53,0 2.46,-1.04 0,0 0.92,-1.03 0.92,-2.75 0,0 0,-1.26 -0.51,-2.17 0,0 -0.51,-0.9 -1.48,-1.34 z"
     inkscape:connector-curvature="0"><title
       id="title3148">Q</title></path><path
     id="path00021"
     style="fill:#000000;fill-opacity:1;fill-rule:nonzero;stroke:none"
     d="m 24.497024,260.44172 c 0,0 -9.04e-4,0.98127 -0.410998,1.55077 0,0 -0.419562,0.55899 -1.120176,0.55263 0,0 -0.721105,0.003 -1.122514,-0.55898 0,0 -0.410877,-0.57208 -0.399986,-1.55284 0,0 0.0019,-1.00125 0.40153,-1.56127 0,0 0.409576,-0.55951 1.130682,-0.56211 0,0 0.700613,0.006 1.112009,0.56845 0,0 0.421382,0.56262 0.409453,1.56335 z m -3.062357,1.89369 c 0,0 0.274697,0.49492 0.703211,0.72746 0,0 0.428514,0.23254 1.039249,0.23423 0,0 1.001247,0.002 1.623003,-0.78687 0,0 0.621237,-0.77882 0.617731,-2.06073 0,0 0.0075,-1.30136 -0.602183,-2.09406 0,0 -0.620206,-0.78323 -1.620934,-0.79516 0,0 -0.610735,-0.002 -1.033671,0.2367 0,0 -0.432403,0.22788 -0.719027,0.73369 l 0.0031,-0.83096 -0.900864,-0.007 -0.02423,7.59898 0.900864,0.007 0.01374,-2.96328 z"
     inkscape:connector-curvature="0"><title
       id="title3151">b</title></path><path
     id="path00022"
     style="fill:#000000;fill-opacity:1;fill-rule:nonzero;stroke:none"
     d="m 35.335375,238.13279 3.44,0 0,-0.83 -4.63,0 0,0.83 c 0,0 0.57,0.58 1.54,1.56 0,0 0.96,0.98 1.21,1.27 0,0 0.47,0.53 0.66,0.89 0,0 0.19,0.37 0.19,0.73 0,0 0,0.58 -0.41,0.95 0,0 -0.4,0.36 -1.06,0.36 0,0 -0.47,0 -0.98,-0.16 0,0 -0.5,-0.16 -1.1,-0.49 l 0,1 c 0,0 0.6,0.23 1.11,0.36 0,0 0.52,0.12 0.95,0.12 0,0 1.13,0 1.81,-0.56 0,0 0.68,-0.56 0.68,-1.52 0,0 0,-0.45 -0.17,-0.85 0,0 -0.18,-0.4 -0.61,-0.94 0,0 -0.13,-0.14 -0.78,-0.82 0,0 -0.66,-0.68 -1.85,-1.9 z"
     inkscape:connector-curvature="0"><title
       id="title3154">2</title></path><path
     id="path00023"
     style="fill:#000000;fill-opacity:1;fill-rule:nonzero;stroke:none"
     d="m 46.808523,253.10427 0.01107,-1.04388 c 0,0 -0.505442,0.46242 -1.068744,0.6808 0,0 -0.563301,0.21838 -1.191299,0.21402 0,0 -1.246112,-0.0102 -1.900965,-0.77944 0,0 -0.656377,-0.77908 -0.645435,-2.21755 0,0 0.02083,-1.43998 0.694198,-2.19136 0,0 0.671849,-0.76127 1.919484,-0.74114 0,0 0.627998,0.004 1.189162,0.23151 0,0 0.552804,0.23855 1.050182,0.70825 l 0.01259,-1.034 c 0,0 -0.510266,-0.35641 -1.085102,-0.54097 0,0 -0.583194,-0.17316 -1.222599,-0.18588 0,0 -1.652107,-0.0185 -2.619627,0.99073 0,0 -0.957637,1.00769 -0.982167,2.75179 0,0 -0.023,1.75399 0.924641,2.78159 0,0 0.936239,1.01925 2.59823,1.0362 0,0 0.649287,0.0112 1.231615,-0.14941 0,0 0.580804,-0.17049 1.084764,-0.51126 z"
     inkscape:connector-curvature="0"><title
       id="title3157">C</title></path><path
     id="path00024"
     style="fill:#000000;fill-opacity:1;fill-rule:nonzero;stroke:none"
     d="m 49.992306,243.10154 -2.461368,-3.90535 2.48472,0.0163 -0.02335,3.88902 z m -0.269625,0.85966 1.252987,0.005 0.02003,-4.7489 1.030969,0.002 0.0022,-0.82873 -1.030969,-0.002 0.01461,-1.7267 -0.991405,0.004 -0.0032,1.71828 -3.30356,-0.017 -5e-5,0.95037 3.008485,4.64404 z"
     inkscape:connector-curvature="0"><title
       id="title3160">4</title></path><path
     id="path00025"
     style="fill:#000000;fill-opacity:1;fill-rule:nonzero;stroke:none"
     d="m 30.675465,252.38508 -1.351605,-3.62116 2.683298,-0.003 -1.331693,3.62468 z m -0.568297,0.98971 1.130884,8e-5 2.771092,-7.3032 -1.032466,-0.004 -0.664922,1.87733 -3.288665,0.009 -0.659085,-1.87928 -1.045465,0.002 2.788627,7.29803 z"
     inkscape:connector-curvature="0"><title
       id="title3163">A</title></path><path
     id="path00026"
     style="fill:#000000;fill-opacity:1;fill-rule:nonzero;stroke:none"
     d="m 22.531575,252.50562 -1.362401,-3.60904 2.681473,-0.0174 -1.319072,3.62648 z m -0.559134,0.99175 1.132778,-0.0106 2.730493,-7.30838 -1.032462,0.005 -0.659053,1.879 -3.278275,0.0226 -0.667672,-1.87761 -1.052208,0.008 2.826399,7.28272 z"
     inkscape:connector-curvature="0"><desc
       id="desc3201">Un deuxième A car le premier ne détectait pas tout</desc><title
       id="title3166">A</title></path><path
     id="path00027"
     style="fill:#000000;fill-opacity:1;fill-rule:nonzero;stroke:none"
     d="m 110.18844,255.43166 0.97637,-0.004 0.003,-6.4598 3.542,-0.005 0.008,-0.82923 -4.53767,-0.002 0.008,7.30033 z"
     inkscape:connector-curvature="0"><title
       id="title3169">L</title></path><path
     id="path00028"
     style="fill:#000000;fill-opacity:1;fill-rule:nonzero;stroke:none"
     d="m 43.093292,240.66525 c 0,0 0.700715,-0.15165 1.108091,-0.63398 0,0 0.39568,-0.47438 0.396994,-1.17652 0,0 0.0017,-1.0787 -0.741178,-1.66801 0,0 -0.741041,-0.59913 -2.113976,-0.60597 0,0 -0.458893,0.004 -0.934612,0.0969 0,0 -0.485546,0.0908 -1.007565,0.26629 l 0.0028,0.94726 c 0,0 0.409746,-0.2274 0.90277,-0.3575 0,0 0.491153,-0.12029 1.02068,-0.12129 0,0 0.915915,0.001 1.405727,0.36937 0,0 0.47999,0.36621 0.478677,1.06835 0,0 1.32e-4,0.64132 -0.455489,1.00251 0,0 -0.455572,0.36118 -1.249863,0.36269 l -0.853232,-0.01 -0.0022,0.81394 0.884573,0.005 c 0,0 0.73348,-0.003 1.124582,0.29549 0,0 0.381279,0.29652 0.378542,0.8457 0,0 -0.0027,0.54917 -0.396101,0.85094 0,0 -0.403188,0.2999 -1.136667,0.3028 0,0 -0.407903,0.004 -0.879437,-0.086 0,0 -0.46171,-0.0879 -1.016522,-0.27493 l 0.0062,0.87663 c 0,0 0.560421,0.15757 1.055342,0.23141 0,0 0.493052,0.0837 0.910779,0.0817 0,0 1.129689,0.001 1.78592,-0.50496 0,0 0.656231,-0.50622 0.650038,-1.38284 0,0 0.0042,-0.60999 -0.335062,-1.02066 0,0 -0.347148,-0.42236 -0.989896,-0.57524 z"
     inkscape:connector-curvature="0"><title
       id="title3172">3</title></path><path
     id="path00029"
     style="fill:#000000;fill-opacity:1;fill-rule:nonzero;stroke:none"
     d="m 99.057076,255.63044 0.980054,0.002 -0.003,-6.78457 c 0,0 -0.007,-1.33219 -0.502004,-1.92442 0,0 -0.50271,-0.58633 -1.6107,-0.59417 l -0.37202,-6.5e-4 -3.7e-4,0.83006 0.30805,-0.002 c 0,0 0.64405,5e-5 0.91543,0.37147 0,0 0.27945,0.36552 0.27349,1.32352 l 0.0113,6.77867 z"
     inkscape:connector-curvature="0"><title
       id="title3175">J</title></path><path
     id="path00030"
     style="fill:#000000;fill-opacity:1;fill-rule:nonzero;stroke:none"
     d="m 172.20121,255.04222 -0.0148,-0.95404 c 0,0 -0.55916,0.27953 -1.05508,0.42013 0,0 -0.49591,0.1406 -0.96735,0.1563 0,0 -0.79594,0.017 -1.24088,-0.2864 0,0 -0.44494,-0.30336 -0.46106,-0.88296 0,0 9e-4,-0.4826 0.27448,-0.73883 0,0 0.28747,-0.2535 1.09672,-0.41196 l 0.5902,-0.14375 c 0,0 1.09184,-0.23999 1.61397,-0.77176 0,0 0.51655,-0.54007 0.49645,-1.43029 0,0 -0.0235,-1.05662 -0.74115,-1.58635 0,0 -0.7232,-0.53803 -2.09874,-0.50495 0,0 -0.51307,0.007 -1.10056,0.13741 0,0 -0.58748,0.12986 -1.20502,0.37633 l 0.0234,1.02056 c 0,0 0.60324,-0.35735 1.16555,-0.54259 0,0 0.5706,-0.19081 1.13361,-0.19577 0,0 0.84029,-0.0227 1.31584,0.30829 0,0 0.46168,0.32826 0.47236,0.93562 0,0 0.0187,0.52967 -0.30181,0.84155 0,0 -0.32052,0.31188 -1.08814,0.4785 l -0.58748,0.12986 c 0,0 -1.10572,0.23727 -1.58921,0.71897 0,0 -0.4835,0.4817 -0.46082,1.32199 0,0 0.0121,0.96791 0.70481,1.51437 0,0 0.69545,0.53259 1.89629,0.50851 0,0 0.51308,-0.007 1.04519,-0.11222 0,0 0.5321,-0.10469 1.08325,-0.30652 z"
     inkscape:connector-curvature="0"><title
       id="title3178">S</title></path><path
     id="path00031"
     style="fill:#000000;fill-opacity:1;fill-rule:nonzero;stroke:none"
     d="m 43.432995,263.16502 -0.0147,-0.86081 c 0,0 -0.376308,0.20903 -0.779369,0.30722 0,0 -0.403355,0.10819 -0.853749,0.11495 0,0 -0.660596,0.0106 -0.995157,-0.17933 0,0 -0.344263,-0.20021 -0.3522,-0.61062 0,0 -8.86e-4,-0.31016 0.22461,-0.49361 0,0 0.235486,-0.18316 0.960761,-0.35191 l 0.292521,-0.0814 c 0,0 0.966935,-0.22166 1.358531,-0.61032 0,0 0.391302,-0.37866 0.38072,-1.03926 0,0 -0.01764,-0.76084 -0.625022,-1.19889 0,0 -0.607678,-0.42805 -1.658694,-0.40894 0,0 -0.450393,0.007 -0.923424,0.10289 0,0 -0.483027,0.0958 -0.988397,0.27106 l 0.01264,0.93077 c 0,0 0.49802,-0.26547 0.972521,-0.41158 0,0 0.474207,-0.13612 0.954588,-0.142 0,0 0.630904,-0.0215 0.974578,0.19874 0,0 0.343969,0.21021 0.352494,0.60062 0,0 0.0091,0.37043 -0.226962,0.57358 0,0 -0.236075,0.20315 -1.081886,0.38836 l -0.302516,0.0811 c 0,0 -0.826114,0.1958 -1.19713,0.56505 0,0 -0.371017,0.36925 -0.359553,0.99986 0,0 0.01705,0.78084 0.575338,1.18743 0,0 0.548585,0.3963 1.569615,0.37631 0,0 0.48038,-0.006 0.922836,-0.0829 0,0 0.452451,-0.0767 0.807004,-0.22637 z"
     inkscape:connector-curvature="0"><title
       id="title3181">s</title></path><path
     id="path00032"
     style="fill:#000000;fill-opacity:1;fill-rule:nonzero;stroke:none"
     d="m 79.940455,248.02622 -0.0081,1.95817 -1.611479,-0.006 -2.98e-4,0.80994 2.579451,0.0113 0.0026,-3.14543 c 0,0 -0.560393,-0.38789 -1.245305,-0.60001 0,0 -0.684913,-0.21212 -1.464228,-0.22031 0,0 -1.719635,-0.007 -2.685013,0.98575 0,0 -0.959949,1.0017 -0.973941,2.78504 0,0 -0.0056,1.77791 0.951147,2.77884 0,0 0.96217,1.00932 2.676375,1.00847 0,0 0.707212,0.007 1.350285,-0.15853 0,0 0.651471,-0.17113 1.180526,-0.51318 l 0.0038,-1.06231 c 0,0 -0.547372,0.46107 -1.155408,0.69938 0,0 -0.613465,0.22992 -1.293022,0.22868 0,0 -1.350718,-0.008 -2.008766,-0.74944 0,0 -0.663478,-0.74993 -0.656511,-2.23103 0,0 0.007,-1.4811 0.671981,-2.22066 0,0 0.665015,-0.73957 2.010303,-0.74006 0,0 0.526952,0.005 0.941766,0.0937 0,0 0.400986,0.0861 0.733777,0.2877 z"
     inkscape:connector-curvature="0"><title
       id="title3184">G</title></path><path
     id="path00033"
     style="fill:#000000;fill-opacity:1;fill-rule:nonzero;stroke:none"
     d="m 35.972491,249.62362 -0.004,-2.66918 1.57876,-0.004 c 0,0 0.799789,-0.006 1.177887,0.32122 0,0 0.384793,0.3199 0.392464,1.0134 0,0 -4.94e-4,0.67268 -0.38724,0.99722 0,0 -0.379321,0.33123 -1.17911,0.33734 l -1.57876,0.004 z m 0.01416,3.00143 -0.0081,-2.20164 1.450919,-0.0116 c 0,0 0.736601,0.004 1.090216,0.26912 0,0 0.354348,0.27899 0.347261,0.82457 0,0 0.0078,0.55896 -0.346239,0.83223 0,0 -0.346579,0.27997 -1.083181,0.27572 l -1.45092,0.0116 z m -0.984711,0.80873 2.520513,-0.003 c 0,0 1.118659,-0.001 1.731477,-0.47222 0,0 0.60539,-0.47749 0.603045,-1.3412 0,0 4.95e-4,-0.67268 -0.317352,-1.06686 0,0 -0.310414,-0.38748 -0.910183,-0.48381 0,0 0.721111,-0.15779 1.127311,-0.65327 0,0 0.405467,-0.50961 0.403025,-1.23878 0,0 -0.0015,-0.98413 -0.666373,-1.51606 0,0 -0.671556,-0.52452 -1.896505,-0.52467 l -2.619375,0.008 0.02442,7.29174 z"
     inkscape:connector-curvature="0"><title
       id="title3187">B</title></path><path
     id="path00034"
     style="fill:#000000;fill-opacity:1;fill-rule:nonzero;stroke:none"
     d="m 49.307707,252.99408 0.0035,-5.67353 1.180677,-8.9e-4 c 0,0 1.52082,-0.003 2.215007,0.6837 0,0 0.693841,0.67637 0.695128,2.15722 0,0 9.4e-4,1.47085 -0.69577,2.15539 0,0 -0.697057,0.67454 -2.207882,0.67687 l -1.190672,0.001 z m -0.982381,0.81451 2.031207,-3.5e-4 c 0,0 2.101164,-0.003 3.101108,-0.88793 0,0 0.990297,-0.87482 0.985151,-2.75577 0,0 0.0045,-1.8913 -0.986784,-2.7775 0,0 -0.99094,-0.8762 -3.102445,-0.88308 l -2.031207,3.5e-4 0.003,7.30428 z"
     inkscape:connector-curvature="0"><title
       id="title3190">D</title></path><path
     id="path00035"
     style="fill:#000000;fill-opacity:1;fill-rule:nonzero;stroke:none"
     d="m 142.50598,254.51584 -0.007,-2.75428 1.24258,6.4e-4 c 0,0 0.68503,0.006 1.06437,0.36785 0,0 0.38772,0.35591 0.38707,1.01325 0,0 -6.6e-4,0.65734 -0.38682,1.01704 0,0 -0.38616,0.3597 -1.07118,0.35323 l -1.22874,0.002 z m -0.98675,0.81168 2.21894,-0.004 c 0,0 1.2342,0.006 1.85513,-0.54276 0,0 0.62383,-0.5627 0.62567,-1.63885 0,0 0.002,-1.07615 -0.61981,-1.62565 0,0 -0.62165,-0.5495 -1.86423,-0.55014 l -1.22874,0.002 0.003,-2.94001 -0.9902,0.002 4.5e-4,7.29741 z"
     inkscape:connector-curvature="0"><title
       id="title3193">P</title></path><!--</g>--><text
     xml:space="preserve"
     style="font-size:40px;font-style:normal;font-weight:normal;line-height:125%;letter-spacing:0px;word-spacing:0px;fill:#000000;fill-opacity:1;stroke:none;font-family:Sans"
     x="1.5460696"
     y="-6.9442096"
     id="text3052"
     sodipodi:linespacing="125%"><tspan
       sodipodi:role="line"
       id="tspan3054"
       x="1.5460696"
       y="-6.9442096" /></text>
<text
     xml:space="preserve"
     style="font-size:10px;font-style:normal;font-weight:normal;line-height:125%;letter-spacing:0px;word-spacing:0px;fill:#000000;fill-opacity:1;stroke:none;font-family:Sans"
     x="16.172329"
     y="21.377596"
     id="text3056"
     sodipodi:linespacing="125%"><tspan
       sodipodi:role="line"
       x="16.172329"
       y="21.377596"
       id="tspan3060"
       style="font-size:8px">Ce fichier SVG sert de liste de référence pour comparer</tspan><tspan
       sodipodi:role="line"
       x="16.172329"
       y="31.377596"
       id="tspan3064"
       style="font-size:8px">les paths extraits du cadastre et identifier les numéros de rues.</tspan><tspan
       sodipodi:role="line"
       x="16.172329"
       y="41.377598"
       id="tspan3066"
       style="font-size:8px">La valeur textuelle de chaque path est contenue dans son titre</tspan><tspan
       sodipodi:role="line"
       x="16.172329"
       y="51.377605"
       id="tspan3068"
       style="font-size:8px">(accessible en affichant ses propriétés)</tspan><tspan
       sodipodi:role="line"
       x="16.172329"
       y="61.377605"
       style="font-size:8px"
       id="tspan3070">Les paths sont inversés haut/bas à cause de la projection utilisée </tspan><tspan
       sodipodi:role="line"
       x="16.172329"
       y="71.377602"
       style="font-size:8px"
       id="tspan3072">par le cadastre (par exemple Lambert 9 Zones) qui inverse l'axe Y.</tspan></text>
<path
     id="path75796"
     style="fill:#000000;fill-opacity:1;fill-rule:nonzero;stroke:none"
     d="m 208.30414,255.30345 1.05379,6e-5 2.01255,-3.00057 2.00473,2.99675 1.06793,3.2e-4 -2.58203,-3.8288 -3.5e-4,-3.46555 -0.9831,0.001 3.6e-4,3.46555 -2.57389,3.83088 z"
     inkscape:connector-curvature="0"><title
       id="title29182">Y</title></path><path
     id="path76224"
     style="fill:#000000;fill-opacity:1;fill-rule:nonzero;stroke:none"
     d="m 201.11496,255.2794 1.05802,0.002 1.82001,-2.72141 1.82816,2.71483 1.04996,0.009 -2.34583,-3.50103 2.49073,-3.80003 -1.04403,-4.2e-4 -2.05502,3.09352 -2.06517,-3.08676 -1.06395,-0.0106 2.61464,3.89922 -2.28752,3.40166 z"
     inkscape:connector-curvature="0"><title
       id="title29180">X</title></path><path
     id="path76268"
     style="fill:#000000;fill-opacity:1;fill-rule:nonzero;stroke:none"
     d="m 215.5126,255.33634 5.73062,0.002 4e-4,-0.76557 -4.6018,-5.70612 4.71426,0.003 0.003,-0.83258 -5.94994,-0.003 -0.004,0.75642 4.61095,5.70208 -4.50813,-0.007 0.005,0.85087 z"
     inkscape:connector-curvature="0"><title
       id="title29184">Z</title></path><text
     xml:space="preserve"
     style="font-size:10px;font-style:normal;font-weight:normal;line-height:125%;letter-spacing:0px;word-spacing:0px;fill:#000000;fill-opacity:1;stroke:none;font-family:Sans"
     x="14.476683"
     y="96.839798"
     id="text3056-8"
     sodipodi:linespacing="125%"><tspan
       sodipodi:role="line"
       x="14.476683"
       y="96.839798"
       style="font-size:8px"
       id="tspan3582">Nouvelle version (2015/01/29) avec la police sérif:</tspan></text>
<text
     xml:space="preserve"
     style="font-size:10px;font-style:normal;font-weight:normal;line-height:125%;letter-spacing:0px;word-spacing:0px;fill:#000000;fill-opacity:1;stroke:none;font-family:Sans"
     x="20.487095"
     y="203.61292"
     id="text3056-4"
     sodipodi:linespacing="125%"><tspan
       sodipodi:role="line"
       x="20.487095"
       y="203.61292"
       style="font-size:8px"
       id="tspan3186">Ancienne version avec la police sans sérif:</tspan></text>
<path
     id="path12664"
     style="fill:#000000;fill-opacity:1;fill-rule:nonzero;stroke:none"
     d="m 22.576396,117.24106 0.01658,-6.02654 0.03514,-0.4871 c 0,0 0.02261,-0.29645 0.166406,-0.37723 0,0 0.151058,-0.0876 0.617962,-0.0884 l 0.559396,-0.0194 0.0012,-0.28999 -3.734828,-0.008 -0.0012,0.28999 0.579591,0.0166 c 0,0 0.466904,-7.9e-4 0.61998,0.0884 0,0 0.14621,0.082 0.15873,0.38654 l 0.02867,0.48184 -0.0081,4.49173 -0.02787,0.48024 c 0,0 -0.0033,0.36067 -0.208412,0.36188 0,0 -0.141363,-0.004 -0.675718,-0.11834 l -0.485887,-0.0776 0.0057,0.29727 2.352694,0.59777 z"
     inkscape:connector-curvature="0"><title
       id="title3217">1</title></path><path
     id="path12664-0"
     style="fill:#000000;fill-opacity:1;fill-rule:nonzero;stroke:none"
     d="m 50.049753,112.47026 -3.331728,0.01 0.0022,0.48104 3.637184,4.80763 0.52345,-0.002 -0.0076,-4.56242 0.968965,0.003 0.004,-0.73552 -0.968964,-0.003 -0.0019,-0.78518 c 0,0 -1.84e-4,-0.56586 0.08884,-0.73342 0,0 0.09591,-0.16032 0.393852,-0.19539 l 0.340006,-0.0199 0.08517,-0.0121 -0.0069,-0.29724 -2.758622,0.003 -0.0073,0.29689 0.09861,0.0166 0.494824,0.0122 c 0,0 0.268269,0.0208 0.355802,0.19976 0,0 0.08718,0.19313 0.08081,0.73762 l 0.0091,0.77828 z m -2.784016,0.74467 2.780003,-0.009 0.0082,3.67828 -2.788214,-3.66912 z"
     inkscape:connector-curvature="0"><title
       id="title3233">4</title></path><path
     id="path12662"
     style="fill:#000000;fill-opacity:1;fill-rule:nonzero;stroke:none"
     d="m 27.667897,110.28725 0.0027,0.48269 c 0,0 0.418409,1.20525 1.299863,2.04433 l 0.528847,0.46938 c 0,0 0.895548,0.84024 1.187767,1.33974 0,0 0.299849,0.49304 0.303847,1.13194 0,0 0.0023,0.74518 -0.360261,1.18352 0,0 -0.362577,0.43833 -0.965652,0.43819 0,0 -0.652987,0.003 -1.11421,-0.34035 0,0 -0.186842,-0.14314 -0.216827,-0.98284 l -0.01237,-0.10746 -0.489159,-0.005 0.0045,1.32007 c 0,0 1.06378,0.43552 1.936972,0.42958 0,0 0.985946,0.003 1.620322,-0.54732 0,0 0.626747,-0.54423 0.626115,-1.3957 0,0 -0.0055,-1.13568 -1.42852,-2.1188 l -0.591043,-0.40357 c 0,0 -1.411213,-0.95377 -1.537136,-2.0923 l 3.519792,-0.007 -0.0018,-0.83737 -4.313721,-0.001 z"
     inkscape:connector-curvature="0"><title
       id="title3242">2</title></path><path
     id="path12656"
     style="fill:#000000;fill-opacity:1;fill-rule:nonzero;stroke:none"
     d="m 75.208552,113.59571 c 0,0 -1.109286,0.76634 -1.100977,1.69075 0,0 -0.0041,0.81743 0.59474,1.32177 0,0 0.598859,0.50435 1.54257,0.50128 0,0 0.912134,-0.002 1.454433,-0.43443 0,0 0.549328,-0.42087 0.549191,-1.1462 0,0 -0.0095,-1.11122 -1.428667,-1.83807 0,0 1.734663,-0.74179 1.73275,-2.11 0,0 -0.0013,-0.91214 -0.695829,-1.48389 0,0 -0.691935,-0.58139 -1.759315,-0.58078 0,0 -1.067383,2.5e-4 -1.723531,0.54794 0,0 -0.653535,0.53768 -0.654058,1.41824 0,0 2.74e-4,1.45066 1.488693,2.11339 z m 1.348405,0.26211 c 0,0 0.858625,0.61625 0.854824,1.6617 0,0 0.0104,0.57271 -0.346012,0.93192 0,0 -0.346809,0.36184 -0.907245,0.36525 0,0 -0.506947,-0.003 -0.868777,-0.34961 0,0 -0.359215,-0.35646 -0.356416,-0.86341 0,0 0.0028,-0.50694 0.322454,-0.84505 0,0 0.331922,-0.34515 1.301172,-0.9008 z m -1.128542,-0.46151 c 0,0 -0.741171,-0.66728 -0.740147,-1.81712 0,0 0.0015,-0.80777 0.386758,-1.27314 0,0 0.387872,-0.47504 1.062325,-0.47861 0,0 0.630613,0.005 1.034648,0.42568 0,0 0.404035,0.42042 0.411046,1.044 0,0 0.0016,0.52886 -0.313622,0.8889 0,0 -0.315238,0.36003 -1.168831,0.83308 l -0.672177,0.37721 z"
     inkscape:connector-curvature="0"><title
       id="title3278">8</title></path><path
     id="path12638"
     style="fill:#000000;fill-opacity:1;fill-rule:nonzero;stroke:none"
     d="m 15.634004,109.26257 c 0,0 -1.109865,-0.0173 -1.805972,1.01201 0,0 -0.706106,1.02913 -0.73257,2.72893 0,0 -0.02724,1.74979 0.646641,2.7904 0,0 0.663728,1.05046 1.823587,1.06852 0,0 1.139862,0.0177 1.855967,-1.01123 0,0 0.70595,-1.01914 0.732881,-2.74893 0,0 0.02724,-1.74978 -0.646797,-2.7804 0,0 -0.683881,-1.04077 -1.873737,-1.0593 z m 0.01517,0.31028 c 0,0 1.530904,-0.0462 1.474708,3.56338 0,0 -0.05371,3.44959 -1.553524,3.42624 0,0 -1.519816,-0.0237 -1.465488,-3.51324 0,0 0.0534,-3.42959 1.544304,-3.47638 z"
     inkscape:connector-curvature="0"><title
       id="title3296">0</title></path><path
     id="path12634"
     style="fill:#000000;fill-opacity:1;fill-rule:nonzero;stroke:none"
     d="m 15.235,125.825 -0.42,-0.96 -0.21,-0.61 c 0,0 -0.03,-0.08 -0.03,-0.14 0,0 0,-0.21 0.38,-0.21 l 0.25,-0.01 0.08,0 0,-0.3 -1.88,0 0,0.3 0.11,0.01 0.23,0 c 0,0 0.27,0.02 0.44,0.44 l 0.24,0.52 2.54,6.04 0.33,0 2.55,-6.08 0.25,-0.5 c 0,0 0.12,-0.29 0.22,-0.35 0,0 0.09,-0.05 0.42,-0.07 l 0.11,-0.01 0,-0.3 -2.67,0 0,0.3 0.07,0 0.3,0.01 c 0,0 0.39,0 0.39,0.19 0,0 0,0.28 -0.2,0.77 l -0.41,0.96 -3.09,0 z m 0.15,0.4 2.77,0 -1.37,3.28 -1.4,-3.28 z"
     inkscape:connector-curvature="0"><title
       id="title3305">A</title></path><path
     id="path12634-5"
     style="fill:#000000;fill-opacity:1;fill-rule:nonzero;stroke:none"
     d="m 62.833329,113.37542 c 0,0 0.68,0.94 1.73,0.94 0,0 0.95,0 1.55,-0.63 0,0 0.61,-0.63 0.61,-1.63 0,0 0,-1.08 -0.68,-1.83 0,0 -0.68,-0.74 -1.68,-0.74 0,0 -1.24,0 -1.9,0.96 0,0 -0.67,0.96 -0.67,2.73 0,0 0,1.86 0.77,2.88 0,0 0.77,1.03 2.16,1.03 0,0 0.9,0 1.59,-0.32 l 0,-1.15 -0.48,0 -0.02,0.09 -0.02,0.35 c 0,0 -0.03,0.32 -0.35,0.53 0,0 -0.32,0.2 -0.82,0.2 0,0 -0.86,0 -1.33,-0.89 0,0 -0.46,-0.89 -0.46,-2.52 z m 0.03,-1.03 c 0,0 0,-1.12 0.45,-1.83 0,0 0.45,-0.71 1.16,-0.71 0,0 1.28,0 1.28,2.1 0,0 0,2.07 -1.33,2.07 0,0 -0.72,0 -1.14,-0.45 0,0 -0.42,-0.44 -0.42,-1.18 z"
     inkscape:connector-curvature="0"><title
       id="title3314">6</title></path><path
     id="path12632"
     style="fill:#000000;fill-opacity:1;fill-rule:nonzero;stroke:none"
     d="m 26.627786,127.42997 c 0,0 0.91,-0.16 1.42,-0.66 0,0 0.51,-0.51 0.51,-1.28 0,0 0,-0.9 -0.61,-1.36 0,0 -0.61,-0.45 -1.86,-0.45 l -2.85,0 0,0.3 0.1,0.01 0.33,0.02 c 0,0 0.28,0.03 0.35,0.1 0,0 0.08,0.07 0.1,0.35 l 0.03,0.49 0,4.7 -0.03,0.48 c 0,0 -0.02,0.27 -0.1,0.35 0,0 -0.07,0.08 -0.35,0.11 l -0.33,0.01 -0.1,0 0,0.31 2.97,0 c 0,0 1,0 1.53,-0.41 0,0 0.52,-0.41 0.52,-1.19 0,0 0,-1.29 -1.63,-1.88 z m -1.46,-0.17 0,-2.31 0.01,-0.43 c 0,0 0,-0.29 0.17,-0.4 0,0 0.16,-0.11 0.64,-0.11 0,0 0.68,0 1.09,0.4 0,0 0.41,0.41 0.41,1.05 0,0 0,1.8 -2.32,1.8 z m 0,0.34 0.29,0 c 0,0 1.75,0 1.75,1.6 0,0 0,0.76 -0.4,1.07 0,0 -0.41,0.32 -1.39,0.32 l -0.25,0 0,-2.99 z"
     inkscape:connector-curvature="0"><title
       id="title3323">B</title></path><path
     id="path12630"
     style="fill:#000000;fill-opacity:1;fill-rule:nonzero;stroke:none"
     d="m 37.13629,123.50045 c 0,0 -0.97,-0.58 -2.29,-0.58 0,0 -1.65,0 -2.61,1.03 0,0 -0.96,1.02 -0.96,2.79 0,0 0,1.79 0.92,2.78 0,0 0.92,1 2.59,1 0,0 0.85,0 2.03,-0.32 l 0.19,-0.04 0,-1.38 -0.59,0 0,0.1 c 0,0 -0.02,0.14 -0.02,0.28 0,0 0,0.48 -0.44,0.75 0,0 -0.45,0.28 -1.22,0.28 0,0 -1.09,0 -1.75,-0.94 0,0 -0.65,-0.94 -0.65,-2.5 0,0 0,-1.58 0.76,-2.46 0,0 0.77,-0.88 2.14,-0.88 0,0 0.9,0 1.9,0.56 l 0,-0.47 z"
     inkscape:connector-curvature="0"><title
       id="title3332">C</title></path><path
     id="path12628"
     style="fill:#000000;fill-opacity:1;fill-rule:nonzero;stroke:none"
     d="m 39.575125,122.96287 0,0.3 0.1,0.01 0.33,0.02 c 0,0 0.28,0.03 0.35,0.1 0,0 0.08,0.07 0.1,0.35 l 0.03,0.49 0,4.7 -0.03,0.48 c 0,0 -0.02,0.27 -0.1,0.35 0,0 -0.07,0.08 -0.35,0.11 l -0.33,0.01 -0.1,0 0,0.31 2.33,0 0.41,0 0.34,0.02 0.36,0 c 0,0 1.69,0 2.59,-0.9 0,0 0.91,-0.9 0.91,-2.58 0,0 0,-1.75 -0.93,-2.76 0,0 -0.93,-1.01 -2.54,-1.01 l -3.47,0 z m 1.94,6.91 0,-5.64 0.02,-0.38 c 0,0 0,-0.31 0.25,-0.44 0,0 0.25,-0.12 0.89,-0.12 0,0 2.76,0 2.76,3.3 0,0 0,1.73 -0.74,2.5 0,0 -0.74,0.78 -2.41,0.78 l -0.77,0 z"
     inkscape:connector-curvature="0"><title
       id="title3341">D</title></path><path
     id="path12654"
     style="fill:#000000;fill-opacity:1;fill-rule:nonzero;stroke:none"
     d="m 83.763491,113.3446 c 0,0 -0.672724,-0.94421 -1.738977,-0.94655 0,0 -0.949209,-0.001 -1.547073,0.62958 0,0 -0.597863,0.631 -0.597996,1.63404 0,0 0.0035,1.07912 0.667626,1.81736 0,0 0.67694,0.73236 1.689357,0.73598 0,0 1.214898,0.004 1.881097,-0.95334 0,0 0.67208,-0.94484 0.670519,-2.71684 0,0 0.0052,-1.87619 -0.756609,-2.89628 0,0 -0.758354,-1.02947 -2.156995,-1.02756 0,0 -0.886002,7.8e-4 -1.571158,0.32181 l -0.0056,1.16106 0.471664,-0.006 0.0068,-0.10418 0.03434,-0.35003 c 0,0 0.0145,-0.3254 0.340632,-0.51339 0,0 0.32025,-0.20084 0.820029,-0.19609 0,0 0.854397,-0.002 1.323351,0.88777 0,0 0.468955,0.88965 0.469037,2.52238 z m -0.04221,1.03006 c 0,0 -0.001,1.12009 -0.455953,1.82568 0,0 -0.454909,0.70559 -1.157168,0.70011 0,0 -1.278107,-0.007 -1.274539,-2.10745 0,0 0.0049,-2.04706 1.33092,-2.05466 0,0 0.721003,0.0125 1.145651,0.44808 0,0 0.415279,0.43214 0.411089,1.18824 z"
     inkscape:connector-curvature="0"><title
       id="title3350">9</title></path><path
     id="path20254"
     style="fill:#000000;fill-opacity:1;fill-rule:nonzero;stroke:none"
     d="m 37.984115,110.33914 0,1.29 0.48,0 0,-0.11 0.02,-0.35 c 0,0 0,-0.31 0.36,-0.53 0,0 0.37,-0.22 0.92,-0.22 0,0 0.62,0 1.01,0.5 0,0 0.39,0.5 0.39,1.33 0,0 0,0.83 -0.5,1.29 0,0 -0.51,0.46 -1.43,0.46 l -0.6,0 0,0.3 0.33,0 c 0,0 2.05,0 2.05,1.65 0,0 0,1.46 -1.3,1.46 0,0 -0.56,0 -0.98,-0.24 0,0 -0.16,-0.09 -0.21,-0.78 l -0.01,-0.06 -0.49,0 0,1.09 c 0,0 0.78,0.28 1.77,0.28 0,0 1.01,0 1.59,-0.44 0,0 0.58,-0.45 0.58,-1.21 0,0 0,-1.3 -1.51,-1.85 0,0 0.93,-0.23 1.33,-0.68 0,0 0.4,-0.44 0.4,-1.24 0,0 0,-1 -0.65,-1.58 0,0 -0.65,-0.59 -1.76,-0.59 0,0 -1.03,0 -1.79,0.23 z"
     inkscape:connector-curvature="0"><title
       id="title3359">3</title></path><path
     id="path20254-3"
     style="fill:#000000;fill-opacity:1;fill-rule:nonzero;stroke:none"
     d="m 68.352931,109.62623 c 0,0 0.2,1.17 0.68,2.04 0,0 0.49,0.88 2.28,3.3 l 0.74,0.99 -4.06,0 0,0.9 4.64,0 0,-0.64 c 0,0 -2.99,-3.98 -3.14,-6.59 l -1.14,0 z"
     inkscape:connector-curvature="0"><title
       id="title3368">7</title></path><path
     id="path20254-8"
     style="fill:#000000;fill-opacity:1;fill-rule:nonzero;stroke:none"
     d="m 56.022756,109.78961 0,1.22 0.49,0 0,-0.11 0.01,-0.37 c 0,0 0.03,-0.6 0.94,-0.6 0,0 0.69,0 1.08,0.53 0,0 0.39,0.52 0.39,1.43 0,0 0,1.03 -0.61,1.47 0,0 -0.61,0.45 -2,0.45 l -0.17,0 0,3.23 3.64,0 0,-0.84 -3.35,0 0,-2.03 0.46,0 c 0,0 3.04,0 3.04,-2.32 0,0 0,-1.04 -0.7,-1.64 0,0 -0.7,-0.59 -1.95,-0.59 0,0 -0.61,0 -1.27,0.17 z"
     inkscape:connector-curvature="0"><title
       id="title3377">5</title></path><path
     id="path30980"
     style="fill:#000000;fill-opacity:1;fill-rule:nonzero;stroke:none"
     d="m 168.4663,128.86998 -1.16297,-2.1e-4 -0.49416,-0.0284 c 0,0 -0.25494,-8.7e-4 -0.33327,-0.0674 0,0 -0.0763,-0.0767 -0.07,-0.31 0,0 -0.001,-0.24514 -0.003,-0.4393 l -0.0136,-0.0844 -0.5197,-0.003 -0.002,1.32575 6.22277,0.002 0.003,-1.32574 -0.5197,-0.003 0.002,0.0922 c 0,0 -0.0181,0.1902 -0.0165,0.43535 0,0 0.003,0.23534 -0.0731,0.31168 0,0 -0.0649,0.0685 -0.32959,0.0661 l -0.50605,0.0304 -1.15317,0.002 0.005,-5.5795 0.0264,-0.48435 c 0,0 0.0162,-0.28239 0.0909,-0.34892 0,0 0.0864,-0.0743 0.36692,-0.0993 l 0.3197,-0.0171 0.20792,-0.0193 -0.002,-0.29614 -3.06138,0.004 0.001,0.29613 0.20198,0.0103 0.32356,0.0144 c 0,0 0.28822,0.0378 0.36654,0.10464 0,0 0.0783,0.0669 0.0915,0.35514 l 0.0246,0.48446 0.007,5.57168 z"
     inkscape:connector-curvature="0"><title
       id="title3386">T</title></path><path
     id="path30042"
     style="fill:#000000;fill-opacity:1;fill-rule:nonzero;stroke:none"
     d="m 145.49996,122.54137 c 0,0 1.15,-0.67 3.61,-0.84 l -1.22,-0.61 c 0,0 -1.24,0.36 -2.63,1.22 l -0.2,0.11 c 0,0 -0.36,-0.07 -0.7,-0.07 0,0 -1.58,0 -2.48,1.03 0,0 -0.90001,1.02 -0.90001,2.77 0,0 0,1.77 0.90001,2.78 0,0 0.9,1.02 2.48,1.02 0,0 1.56,0 2.46,-1.01 0,0 0.91,-1.01 0.91,-2.76 0,0 0,-2.87 -2.23,-3.64 z m 1.15,3.56 c 0,0 0,1.68 -0.6,2.6 0,0 -0.6,0.92 -1.69,0.92 0,0 -1.08,0 -1.68,-0.91 0,0 -0.61,-0.92 -0.61,-2.56 0,0 0,-1.62 0.61,-2.54 0,0 0.6,-0.91 1.68,-0.91 0,0 1.07,0 1.68,0.9 0,0 0.61,0.91 0.61,2.5 z"
     inkscape:connector-curvature="0"><title
       id="title3395">Q</title></path><path
     id="path29896"
     style="fill:#000000;fill-opacity:1;fill-rule:nonzero;stroke:none"
     d="m 53.006491,122.83058 -5.211156,-0.008 -0.0041,0.30014 0.09037,0.0183 0.330329,0.0136 c 0,0 0.280728,0.0345 0.362082,0.10294 0,0 0.07135,0.0686 0.08684,0.34835 l 0.03959,0.48933 -0.0081,4.70105 -0.0306,0.4807 c 0,0 -0.02471,0.27054 -0.103331,0.34207 0,0 -0.07843,0.0815 -0.35778,0.11703 l -0.329937,0.007 -0.08998,0.002 -0.0039,0.31012 4.961203,0.013 -0.0048,-1.27016 -0.540097,2.4e-4 -0.01824,0.0904 -0.02197,0.41052 c 0,0 0.0047,0.23995 -0.05412,0.3011 0,0 -0.06881,0.0613 -0.298966,0.0559 l -0.499708,0.0198 -1.58048,-0.009 0.0035,-2.89061 1.330334,0.004 0.290142,0.004 c 0,0 0.219959,-0.005 0.280925,0.0445 0,0 0.05097,0.0491 0.06468,0.23877 0,0 0.0014,0.07 0.0143,0.21977 l 0.0018,0.09 0.390124,0.003 0.0087,-1.60046 -0.399923,0.007 0.0018,0.09 c 0,0 -0.03295,0.3607 -0.111568,0.43226 0,0 -0.08843,0.0817 -0.538529,0.0805 l -1.33033,-0.004 0.0053,-2.29055 c 0,0 -9.05e-4,-0.56009 0.126284,-0.7026 0,0 0.137235,-0.14271 0.697323,-0.14366 l 0.770245,0.005 0.680652,0.0267 c 0,0 0.410119,0.003 0.436958,0.35152 l 0.01841,0.42972 0.002,0.1 0.550094,-2.2e-4 -0.006,-1.33013 z"
     inkscape:connector-curvature="0"><title
       id="title3404">E</title></path><path
     id="path29882"
     style="fill:#000000;fill-opacity:1;fill-rule:nonzero;stroke:none"
     d="m 57.24509,126.33403 -0.0017,-2.2344 c 0,0 0.0053,-0.57076 0.106924,-0.75483 0,0 0.100969,-0.17408 0.442174,-0.18298 0,0 0.01996,10e-4 0.391728,-0.0157 l 0.09107,-0.0144 -0.002,-0.29067 -2.965466,-0.004 0.0014,0.30066 0.08921,0.0156 0.329988,0.0101 c 0,0 0.278225,0.0373 0.364339,0.10274 0,0 0.07551,0.0748 0.08812,0.35615 l 0.03018,0.48279 0.0091,4.69957 -0.03032,0.48907 c 0,0 -0.01671,0.26947 -0.09153,0.34499 0,0 -0.0848,0.0749 -0.367357,0.10747 l -0.321862,0.0202 -0.09981,-0.006 8.01e-4,0.31065 4.889211,0.003 0.0087,-1.2719 -0.551423,0.006 0.0044,0.0904 -0.03535,0.4086 c 0,0 -0.0042,0.23018 -0.0585,0.29695 0,0 -0.0636,0.0562 -0.304377,0.0613 l -0.492156,0.0196 -1.522656,-0.004 0.0017,-2.93552 1.32242,0.002 0.300661,-0.001 c 0,0 0.220816,-0.006 0.277607,0.0473 0,0 0.04743,0.043 0.0656,0.23451 0,0 0.005,0.0804 0.01695,0.21146 l 0.0038,0.10042 0.391109,-0.006 -0.0014,-1.59314 -0.391109,0.006 -0.0056,0.0898 c 0,0 -0.03227,0.35869 -0.117062,0.43359 0,0 -0.08418,0.0649 -0.535172,0.067 l -1.332403,-0.002 z"
     inkscape:connector-curvature="0"><title
       id="title3413">F</title></path><path
     id="path29880"
     style="fill:#000000;fill-opacity:1;fill-rule:nonzero;stroke:none"
     d="m 66.789594,123.03173 c 0,0 -1.387757,-0.36087 -2.348577,-0.35593 0,0 -1.611117,0.001 -2.559554,1.0373 0,0 -0.948437,1.03608 -0.951602,2.76712 0,0 0.0035,1.82134 0.918248,2.80537 0,0 0.924696,0.9844 2.616125,0.97611 0,0 1.200661,0.004 2.315253,-0.37577 l -0.0022,-1.31095 -0.550363,-9e-5 -0.004,0.10993 c 0,0 -0.01474,0.12955 -0.0099,0.26982 0,0 -0.0072,0.47005 -0.446722,0.72418 0,0 -0.449559,0.25377 -1.240128,0.25492 0,0 -1.221012,0.005 -1.858091,-0.9084 0,0 -0.647072,-0.91422 -0.645002,-2.61528 0,0 -0.0034,-1.55116 0.729336,-2.43501 0,0 0.722745,-0.88422 2.003352,-0.87748 0,0 0.39047,-0.006 1.015307,0.14714 l -0.0022,1.43087 c 0,0 0.0092,0.57072 -0.08696,0.73732 0,0 -0.09614,0.1666 -0.397402,0.19563 l -0.341234,0.0276 -0.08031,0.007 0.0094,0.29053 2.821771,0.003 9.51e-4,-0.30016 -0.09031,0.007 -0.329051,-0.032 c 0,0 -0.319057,-0.0317 -0.403159,-0.19484 0,0 -0.0841,-0.16318 -0.08292,-0.74352 l -1.12e-4,-1.64109 z"
     inkscape:connector-curvature="0"><title
       id="title3422">G</title></path><path
     id="path29878"
     style="fill:#000000;fill-opacity:1;fill-rule:nonzero;stroke:none"
     d="m 71.567844,126.45714 -0.0052,-2.27266 0.03259,-0.48902 c 0,0 0.01291,-0.2797 0.09651,-0.35593 0,0 0.07315,-0.0667 0.3547,-0.0937 l 0.331033,-0.0148 0.09129,-0.0258 0.0034,-0.29015 -2.842974,-0.001 -0.0038,0.30015 0.08944,0.0142 0.329649,0.0152 c 0,0 0.27878,0.0329 0.365455,0.10697 0,0 0.07715,0.0636 0.0942,0.34471 l 0.02781,0.48179 0.003,4.70515 -0.03259,0.48902 c 0,0 -0.01199,0.25972 -0.0856,0.33641 0,0 -0.08407,0.0862 -0.365613,0.11325 l -0.321042,0.0153 -0.100356,0.005 0.0057,0.31058 2.843436,-0.009 -0.0057,-0.3106 -0.09036,0.006 -0.329649,-0.0152 c 0,0 -0.278781,-0.0329 -0.355467,-0.1065 0,0 -0.08621,-0.0841 -0.0942,-0.34472 l -0.03734,-0.49224 0.0019,-1.99204 3.434193,-0.0112 0.0076,2.00249 -0.03259,0.48901 c 0,0 -0.02198,0.25927 -0.0956,0.33596 0,0 -0.07408,0.0867 -0.355623,0.11371 l -0.331033,0.0148 -0.09036,0.006 -0.0043,0.31013 2.832983,4.5e-4 -0.0053,-0.32059 -0.09036,0.006 -0.329648,-0.0152 c 0,0 -0.27878,-0.0328 -0.365456,-0.10696 0,0 -0.07622,-0.0836 -0.0942,-0.34471 l -0.0074,-0.49087 -0.013,-4.70561 0.02213,-0.47948 c 0,0 0.01292,-0.2797 0.08653,-0.35639 0,0 0.08314,-0.0662 0.364691,-0.0933 l 0.331032,-0.0148 0.09129,-0.0259 -0.0066,-0.29061 -2.822996,-4.8e-4 -0.0038,0.30015 0.09943,0.0146 0.329649,0.0152 c 0,0 0.308748,0.0343 0.391273,0.19826 0,0 0.09252,0.16443 0.08621,0.73475 l 0.0047,2.28264 -3.433727,0.002 z"
     inkscape:connector-curvature="0"><title
       id="title3431">H</title></path><path
     id="path30002"
     style="fill:#000000;fill-opacity:1;fill-rule:nonzero;stroke:none"
     d="m 16.290522,133.18834 -0.0016,6.50787 -0.03322,0.46893 c 0,0 -0.01433,0.28964 -0.09819,0.36559 0,0 -0.07387,0.0764 -0.355008,0.0926 l -0.332068,0.0336 -0.08989,-0.004 -0.0048,0.30013 1.872163,0.002 0.0077,-3.39377 c 0,0 0.716177,1.10675 1.857255,1.11316 0,0 0.891383,-0.006 1.42685,-0.71035 0,0 0.54595,-0.71389 0.544836,-1.9054 0,0 -0.0047,-1.32185 -0.615333,-2.13302 0,0 -0.621138,-0.80168 -1.622387,-0.80116 0,0 -0.930841,-0.006 -1.58715,0.71242 l -0.07041,0.007 -0.117692,-0.65659 -0.781024,0.001 z m 0.969825,1.0392 c 0,0 0.758267,-0.5532 1.469376,-0.55806 0,0 1.321352,0.005 1.326442,2.12815 0,0 -0.0013,2.25269 -1.302712,2.24837 0,0 -0.860925,-0.002 -1.501051,-0.8252 l 0.0079,-2.99326 z"
     inkscape:connector-curvature="0"><title
       id="title3447">b</title></path><path
     id="path30002-1"
     style="fill:#000000;fill-opacity:1;fill-rule:nonzero;stroke:none"
     d="m 25.315499,138.58092 -0.0186,-4.02493 c 0,0 -0.0038,-0.58077 0.08376,-0.74699 0,0 0.08758,-0.16622 0.399069,-0.1922 l 0.321027,-0.0155 0.1008,-0.0155 -0.0065,-0.3006 -2.763055,0.005 -0.0035,0.30015 0.09945,0.0145 0.309685,0.014 c 0,0 0.298794,0.0335 0.365567,0.10658 0,0 0.07721,0.0635 0.104553,0.34507 l 0.01832,0.48131 0.015,2.7735 -0.02164,0.47951 c 0,0 -0.02261,0.27926 -0.0966,0.36602 0,0 -0.07353,0.0768 -0.364592,0.0937 l -0.311488,0.026 -0.100349,0.005 0.0069,0.2906 1.862166,-0.006 z m -0.96504,0.97749 -0.0038,0.97082 0.971267,-0.006 -0.0062,-0.97127 -0.961278,0.007 z"
     inkscape:connector-curvature="0"><title
       id="title3456">i</title></path><path
     id="path30002-5"
     style="fill:#000000;fill-opacity:1;fill-rule:nonzero;stroke:none"
     d="m 28.377936,133.44979 -0.004,1.34182 0.550818,3.8e-4 0.01495,-0.0893 0.02868,-0.51921 c 0,0 0.04093,-0.37831 0.393651,-0.59919 0,0 0.362706,-0.22033 0.913523,-0.21995 0,0 0.430449,0.004 0.716202,0.26992 0,0 0.275768,0.26561 0.27257,0.68608 0,0 0.0035,0.6612 -0.865582,0.98375 l -0.48087,0.18375 c 0,0 -1.523586,0.56682 -1.531581,1.61798 0,0 0.0046,0.64124 0.512316,1.05988 0,0 0.517114,0.42918 1.308117,0.43281 0,0 0.781019,0.003 1.618525,-0.29116 l -3.87e-4,-1.26194 -0.540833,1.6e-4 -0.005,0.0899 -0.03426,0.43878 c 0,0 -0.08076,0.73667 -0.971609,0.72751 0,0 -0.420464,-0.003 -0.705666,-0.27935 0,0 -0.275216,-0.2756 -0.273122,-0.67609 0,0 -6.63e-4,-0.35057 0.231138,-0.5581 0,0 0.2318,-0.20753 0.918431,-0.49009 l 0.450909,-0.1854 c 0,0 0.737106,-0.28978 1.024898,-0.60439 0,0 0.298329,-0.32404 0.296506,-0.83491 0,0 0.0087,-0.70059 -0.556724,-1.16248 0,0 -0.555949,-0.45136 -1.446801,-0.46051 0,0 -0.971281,-0.004 -1.834824,0.3994 z"
     inkscape:connector-curvature="0"
     inkscape:transform-center-y="-3.2482718"><title
       id="title3465">s</title></path><path
     id="path144330"
     style="fill:#000000;fill-opacity:1;fill-rule:nonzero;stroke:none"
     d="m 83.446685,123.22009 0.0041,-0.28859 -2.847527,-0.009 -0.0018,0.29832 0.09676,0.0183 0.322366,0.0167 c 0,0 0.285718,0.0356 0.36243,0.0997 0,0 0.079,0.0739 0.09439,0.35789 l 0.02966,0.47584 0.0063,4.70332 -0.03849,0.49186 c 0,0 -0.01094,0.25938 -0.09456,0.34067 0,0 -0.07388,0.079 -0.353321,0.11386 l -0.32524,0.0148 -0.09448,-0.009 -0.007,0.32008 2.845239,-0.001 -0.0028,-0.31779 -0.09219,0.001 -0.322369,-0.0167 c 0,0 -0.28343,-0.0258 -0.364718,-0.10946 0,0 -0.079,-0.0739 -0.08981,-0.33843 l -0.03195,-0.48557 -0.0063,-4.70332 0.04077,-0.48212 c 0,0 0.0064,-0.27886 0.09228,-0.35041 0,0 0.07389,-0.079 0.355609,-0.10412 l 0.32524,-0.0148 0.09735,-0.0229 z"
     inkscape:connector-curvature="0"><title
       id="title3474">I</title></path><path
     id="path144328"
     style="fill:#000000;fill-opacity:1;fill-rule:nonzero;stroke:none"
     d="m 85.205677,121.62806 -0.003,1.1264 0.563203,0.002 0.01634,-0.13241 0.0159,-0.23291 c 0,0 0.02868,-0.49566 0.611772,-0.49622 0,0 0.372153,0.001 0.605345,0.3088 0,0 0.23423,0.31739 0.234352,0.79999 l 9.97e-4,0.68359 0.0051,5.24786 -0.02972,0.48571 c 0,0 -0.01278,0.26275 -0.09502,0.34172 0,0 -0.0723,0.0779 -0.349744,0.11695 l -0.330293,0.0144 -0.100498,4.4e-4 0.0024,0.31144 2.834869,-0.004 -0.0024,-0.31144 -0.0806,-0.002 -0.323462,-0.0165 c 0,0 -0.304609,-0.0285 -0.373632,-0.1118 0,0 -0.06798,-0.0733 -0.08608,-0.34291 l -0.02997,-0.47949 -0.0035,-4.65481 c 0,0 -0.0076,-1.51742 -0.514841,-2.1381 0,0 -0.518189,-0.62958 -1.745093,-0.63217 0,0 -0.381061,0.01 -0.822396,0.11603 z"
     inkscape:connector-curvature="0"><title
       id="title3490">J</title></path><path
     id="path144326"
     style="fill:#000000;fill-opacity:1;fill-rule:nonzero;stroke:none"
     d="m 92.79345,126.55267 0.0028,-2.38724 0.01456,-0.4901 c 0,0 -0.0015,-0.29426 0.0981,-0.36272 0,0 0.09957,-0.0685 0.571071,-0.10136 l 0.09846,-0.0175 -0.0031,-0.30412 -2.720894,0.006 0.0015,0.29428 0.09561,0.0237 0.327309,0.013 c 0,0 0.279827,0.0315 0.352888,0.0998 0,0 0.0829,0.0666 0.102316,0.34745 l 0.02658,0.49295 0.01181,4.70031 -0.03599,0.48374 c 0,0 -0.01362,0.26648 -0.09176,0.34129 0,0 -0.07638,0.0846 -0.355563,0.1139 l -0.33191,0.0183 -0.09211,-0.004 -0.005,0.31571 2.842543,-0.007 0.005,-0.31573 -0.09036,0.006 -0.338903,-0.0211 c 0,0 -0.279827,-0.0315 -0.354636,-0.1097 0,0 -0.07481,-0.0781 -0.09072,-0.33937 l -0.03468,-0.48135 5.65e-4,-2.28528 2.192632,2.28186 c 0,0 0.711554,0.74712 0.71109,0.85892 0,0 0.0059,0.0903 -0.257102,0.0964 l -0.437365,-0.004 -0.101961,-0.002 0.0049,0.31398 2.21286,-0.006 0.0067,-0.30586 -0.08226,-0.006 -0.294278,0.002 c 0,0 -0.253143,0.005 -0.453738,-0.15304 0,0 -0.200594,-0.15736 -0.845439,-0.81476 l -1.844633,-1.86629 2.526829,-2.81505 0.504003,-0.53635 c 0,0 0.274868,-0.28239 0.40572,-0.34626 0,0 0.130852,-0.0638 0.586161,-0.0735 l 0.09846,-0.0175 -0.0015,-0.29427 -2.956095,-0.003 0.0031,0.30412 0.09036,-0.006 c 0,0 0.600145,0.005 0.601429,0.12683 0,0 1.51e-4,0.17262 -0.599253,0.85796 l -2.076015,2.37953 z"
     inkscape:connector-curvature="0"><title
       id="title3499">K</title></path><path
     id="path143870"
     style="fill:#000000;fill-opacity:1;fill-rule:nonzero;stroke:none"
     d="m 104.78474,122.87581 -5.186524,0.004 0.0053,0.30012 0.0909,0.0154 0.331094,0.0132 c 0,0 0.2722,0.0362 0.35565,0.10204 0,0 0.0735,0.0663 0.0882,0.35598 l 0.0344,0.47887 -6.8e-4,4.70612 -0.0255,0.48192 c 0,0 -0.0162,0.27118 -0.0926,0.34516 0,0 -0.0763,0.074 -0.36495,0.1087 l -0.329571,0.0168 -0.09039,-0.005 -0.0037,0.3206 2.843444,-0.005 0.004,-0.31062 -0.0904,-0.005 -0.3311,-0.0132 c 0,0 -0.28167,-0.0257 -0.35616,-0.11203 0,0 -0.084,-0.0758 -0.0972,-0.33549 l -0.0349,-0.48886 6.8e-4,-4.70613 c 0,0 0.007,-0.65119 0.0922,-0.74565 0,0 0.0953,-0.095 0.75596,-0.0986 l 0.73109,0.003 c 0,0 0.69114,0.005 0.90545,0.0841 0,0 0.2248,0.0887 0.23853,0.35833 l 0.0144,0.47989 -0.004,0.11037 0.52085,0.004 -0.004,-1.46167 z"
     inkscape:connector-curvature="0"><title
       id="title3508">L</title></path><path
     id="path143868"
     style="fill:#000000;fill-opacity:1;fill-rule:nonzero;stroke:none"
     d="m 107.21488,129.8365 0.005,0.31619 2.0748,0.003 2.17347,-5.27053 2.12769,5.26207 1.8123,0.005 -0.005,-0.31619 -0.0949,0.002 -0.32924,-0.0198 c 0,0 -0.27555,-0.0239 -0.35593,-0.10159 0,0 -0.0804,-0.0777 -0.0911,-0.34322 l -0.0335,-0.49283 8.1e-4,-4.69664 0.0267,-0.48434 c 0,0 0.0174,-0.2881 0.0921,-0.35893 0,0 0.0842,-0.0679 0.3653,-0.0947 l 0.33173,-0.0214 0.0883,-0.0142 -0.002,-0.2941 -2.74832,0.004 0.002,0.2941 0.0793,0.0145 0.34179,0.0133 c 0,0 0.26301,0.0304 0.34338,0.10813 0,0 0.0738,0.0652 0.0911,0.34321 l 0.0365,0.48329 -0.002,4.96868 -2.27956,-5.6454 -0.36387,-0.01 -2.2258,5.73632 -0.005,-5.04444 0.0267,-0.48435 c 0,0 0.0144,-0.27856 0.0891,-0.34938 0,0 0.0652,-0.0738 0.34622,-0.10066 l 0.35081,-0.0153 0.0787,-0.0171 -0.002,-0.29412 -2.34681,-0.005 0.002,0.29412 0.0984,0.0205 0.31971,0.0168 c 0,0 0.28508,0.0269 0.36545,0.1046 0,0 0.0738,0.0652 0.0911,0.34322 l 0.0365,0.48328 -0.004,4.70619 -0.0267,0.48434 c 0,0 -0.0208,0.26601 -0.0986,0.34639 0,0 -0.0777,0.0804 -0.35877,0.10718 l -0.32872,0.0117 -0.0949,0.002 z"
     inkscape:connector-curvature="0"><title
       id="title3517">M</title></path><path
     id="path143866"
     style="fill:#000000;fill-opacity:1;fill-rule:nonzero;stroke:none"
     d="m 123.58895,122.70207 -4.49792,6.04605 0.009,-4.694 c 0,0 0.003,-0.57454 0.0877,-0.74298 0,0 0.0902,-0.15989 0.39704,-0.1938 l 0.33094,-0.0134 0.0754,-0.0106 0.002,-0.30528 -2.25694,-4.9e-4 0.006,0.3001 0.0772,0.0117 0.33793,0.0174 c 0,0 0.29854,0.0296 0.397,0.19207 0,0 0.0899,0.16768 0.0924,0.75077 l -0.004,4.70255 c 0,0 -0.003,0.57453 -0.1014,0.7396 0,0 -0.0902,0.15989 -0.38849,0.18863 l -0.34804,0.0238 -0.0943,-0.001 0.003,0.31383 1.63783,0.001 4.12418,-5.62082 -0.0137,4.35788 -0.0322,0.4872 c 0,0 -0.0143,0.26589 -0.0843,0.34337 0,0 -0.0837,0.0741 -0.36826,0.10621 l -0.32575,0.022 -0.0943,-0.001 -0.002,0.30528 2.27068,0.004 -0.003,-0.31383 -0.0943,-0.001 -0.34649,-0.0122 c 0,0 -0.26251,-0.028 -0.33662,-0.11173 0,0 -0.0827,-0.0785 -0.0992,-0.33742 l -0.0261,-0.48696 0.01,-6.06257 -0.3413,-0.004 z"
     inkscape:connector-curvature="0"><title
       id="title3526">N</title></path><path
     id="path144324"
     style="fill:#000000;fill-opacity:1;fill-rule:nonzero;stroke:none"
     d="m 129.34643,122.39193 c 0,0 -1.52109,-0.002 -2.42295,1.03007 0,0 -0.90186,1.03249 -0.89772,2.76561 0,0 -0.009,1.76182 0.88552,2.78114 0,0 0.90149,1.01203 2.4864,1.01956 0,0 1.55621,-0.006 2.46579,-1.01725 0,0 0.9023,-1.01836 0.91186,-2.76604 0,0 0.001,-1.78281 -0.91423,-2.79441 0,0 -0.92291,-1.01844 -2.51467,-1.01868 z m 0.0178,0.3461 c 0,0 1.09658,0.001 1.70502,0.91641 0,0 0.60843,0.91499 0.60994,2.56329 0,0 -0.007,1.61318 -0.61517,2.5234 0,0 -0.60852,0.91023 -1.66954,0.91478 0,0 -1.08245,-0.002 -1.68404,-0.92414 0,0 -0.61572,-0.92184 -0.61592,-2.52773 0,0 0.006,-1.62732 0.60745,-2.54439 0,0 0.60079,-0.9312 1.66226,-0.92162 z"
     inkscape:connector-curvature="0"><title
       id="title3535">O</title></path><path
     id="path144322"
     style="fill:#000000;fill-opacity:1;fill-rule:nonzero;stroke:none"
     d="m 136.23085,125.57325 -0.002,-1.75237 0.0333,-0.48145 c 0,0 0.0154,-0.27975 0.0989,-0.35415 0,0 0.0773,-0.0665 0.35802,-0.10109 l 0.32629,-0.0117 0.21842,-0.0198 -3.4e-4,-0.29206 -2.95042,-0.007 -0.006,0.29994 0.10171,0.016 0.32186,0.0102 c 0,0 0.28937,0.0356 0.36204,0.10502 0,0 0.0805,0.0756 0.0932,0.35187 l 0.0307,0.48068 -0.005,4.70279 -0.0395,0.48933 c 0,0 -0.003,0.26399 -0.0866,0.33839 0,0 -0.0756,0.0806 -0.3563,0.11512 l -0.32628,0.0117 -0.1,-0.002 -0.004,0.31398 2.16633,0.004 0.70775,0.0197 0.32975,0.0164 c 0,0 2.11633,0.003 2.11368,-1.92747 0,0 -10e-4,-2.32246 -3.07166,-2.32186 l -0.31399,-0.004 z m -0.002,0.32801 0.37801,0.003 c 0,0 1.93829,0.003 1.9321,1.97775 0,0 -0.002,0.84811 -0.36354,1.21319 0,0 -0.37516,0.36682 -1.25135,0.36787 l -0.69814,4.9e-4 0.003,-3.56261 z"
     inkscape:connector-curvature="0"><title
       id="title3544">P</title></path><path
     id="path144318"
     style="fill:#000000;fill-opacity:1;fill-rule:nonzero;stroke:none"
     d="m 152.78835,125.55547 -0.001,-1.90421 0.0269,-0.48966 c 0,0 0.004,-0.29409 0.1064,-0.36767 0,0 0.0933,-0.0706 0.56532,-0.10105 l 0.10145,-0.0104 -0.009,-0.30069 -2.72029,0.002 0.009,0.3007 0.0882,0.0147 0.32864,0.0138 c 0,0 0.28087,0.0285 0.35517,0.0998 0,0 0.0839,0.0683 0.0995,0.35652 l 0.0334,0.48155 0.004,4.69728 -0.0365,0.49262 c 0,0 -0.0123,0.26542 -0.0932,0.34266 0,0 -0.0713,0.0743 -0.35358,0.10901 l -0.32937,0.0178 -0.0948,-0.002 0.002,0.3132 1.74613,-0.005 0.47128,0.001 0.40143,0.0123 0.39188,0.0152 c 0,0 2.23946,2.1e-4 2.23034,-1.82827 0,0 0.006,-1.50866 -1.48186,-2.02321 l 1.40527,-2.1285 0.45106,-0.64137 c 0,0 0.23803,-0.31407 0.53212,-0.31056 0,0 0.0823,-0.004 0.32937,-0.0178 l 0.089,-0.017 0.004,-0.29409 -1.83142,-4.3e-4 -1.973,3.1721 -0.8477,-2.6e-4 z m 0.0112,0.34187 0.36687,0.002 c 0,0 1.91376,-0.004 1.91994,1.81489 0,0 0.003,0.85726 -0.35958,1.20964 0,0 -0.35931,0.36192 -1.23568,0.37051 l -0.68302,-0.009 -0.009,-3.38787 z"
     inkscape:connector-curvature="0"><title
       id="title3553">R</title></path><path
     id="path144316"
     style="fill:#000000;fill-opacity:1;fill-rule:nonzero;stroke:none"
     d="m 159.2951,122.27564 -0.007,1.39203 0.52392,-0.002 -8.9e-4,-0.0761 c 0,0 0.0116,-0.2457 0.009,-0.37566 0,0 0.005,-0.38481 0.41941,-0.63388 0,0 0.41469,-0.24906 1.05944,-0.24999 0,0 1.37479,-0.007 1.36733,1.38525 0,0 0.006,0.53307 -0.23297,0.85757 0,0 -0.23512,0.33365 -0.90182,0.70514 l -0.52444,0.29761 c 0,0 -1.65155,0.93839 -1.65446,2.0441 0,0 -0.004,0.83258 0.59772,1.37581 0,0 0.59202,0.54727 1.50075,0.54984 0,0 0.77472,-0.004 1.81902,-0.31265 l 0.002,-1.28035 -0.54625,0.001 0.009,0.0944 c 0,0 -0.0207,0.24974 -0.022,0.37057 0,0 -0.006,0.40714 -0.30158,0.60361 0,0 -0.29581,0.19647 -0.91822,0.19845 0,0 -0.52797,-0.007 -0.8523,-0.34465 0,0 -0.31923,-0.35084 -0.31523,-0.91029 0,0 -2.1e-4,-0.47011 0.22471,-0.77737 0,0 0.22088,-0.31641 0.80123,-0.66063 l 0.52338,-0.27528 c 0,0 1.0631,-0.61246 1.43345,-1.06061 0,0 0.37546,-0.46134 0.37559,-1.12843 0,0 0.003,-0.90873 -0.66754,-1.50893 0,0 -0.67012,-0.60021 -1.67734,-0.60295 0,0 -1.18186,-0.002 -2.04344,0.32446 z"
     inkscape:connector-curvature="0"><title
       id="title3562">S</title></path><path
     id="path144312"
     style="fill:#000000;fill-opacity:1;fill-rule:nonzero;stroke:none"
     d="m 173.71189,128.70713 -0.003,0.31015 2.84253,-0.005 0.002,-0.31015 -0.0799,-0.003 -0.33973,-0.0137 c 0,0 -0.29935,-0.0221 -0.39242,-0.19598 0,0 -0.0931,-0.17389 -0.0905,-0.73424 l -0.005,-3.09273 c 0,0 -0.004,-1.1311 0.0592,-1.4688 0,0 0.0641,-0.34771 0.29678,-0.65858 0,0 0.46503,-0.61176 1.41587,-0.61344 0,0 0.88089,-0.005 1.4099,0.52724 0,0 0.29765,0.31225 0.39306,0.67639 0,0 0.095,0.37413 0.0975,1.30499 l -0.003,3.31255 -0.0297,0.4892 c 0,0 -0.0105,0.25979 -0.094,0.34649 0,0 -0.0732,0.0771 -0.35455,0.1058 l -0.33095,0.0167 -0.0899,-0.004 -0.003,0.32014 2.31215,-0.007 0.002,-0.31015 -0.0899,-0.004 -0.32973,-0.0133 c 0,0 -0.31893,-0.0329 -0.40201,-0.20637 0,0 -0.0831,-0.17349 -0.0905,-0.73424 l 0.002,-3.03237 c 0,0 -0.009,-1.0112 -0.11022,-1.48565 0,0 -0.11136,-0.46487 -0.45616,-0.84908 0,0 -0.62884,-0.78597 -1.97017,-0.78002 0,0 -2.67226,0.002 -2.66882,2.8948 l 0.009,3.263 -0.0397,0.48879 c 0,0 -0.0105,0.25979 -0.0836,0.33691 0,0 -0.0832,0.0767 -0.36495,0.11538 l -0.33094,0.0167 -0.0899,-0.004 z"
     inkscape:connector-curvature="0"><title
       id="title3571">U</title></path><path
     id="path144310"
     style="fill:#000000;fill-opacity:1;fill-rule:nonzero;stroke:none"
     d="m 186.16425,121.64124 -2.48,6.03 -0.28,0.63 c 0,0 -0.1,0.23 -0.18,0.28 0,0 -0.09,0.06 -0.37,0.07 l -0.11,0 0,0.32 2.63,0 0,-0.32 -0.11,0 c 0,0 -0.75,0 -0.75,-0.18 0,0 0,-0.08 0.29,-0.8 l 1.86,-4.55 1.77,4.55 c 0,0 0.25,0.67 0.25,0.78 0,0 0,0.2 -0.35,0.2 l -0.36,0 -0.1,0 0,0.32 1.85,0 0,-0.32 -0.1,0 c 0,0 -0.41,-0.01 -0.52,-0.31 l -0.28,-0.67 -2.33,-6.03 -0.33,0 z"
     inkscape:connector-curvature="0"><title
       id="title3580">V</title></path><path
     id="path143864"
     style="fill:#000000;fill-opacity:1;fill-rule:nonzero;stroke:none"
     d="m 194.37864,121.46242 -1.55248,6.03613 -0.16493,0.63702 c 0,0 -0.0765,0.34329 -0.36665,0.34477 l -0.28018,10e-4 -0.11031,-0.006 0.003,0.32014 2.59193,-0.003 0.008,-0.31054 -0.10032,-0.006 -0.26019,2.9e-4 c 0,0 -0.47042,-10e-4 -0.47071,-0.26159 0,0 -0.006,-0.15988 0.14178,-0.71617 l 1.0745,-4.2058 1.65522,5.40877 0.35012,-0.004 1.67138,-5.56046 1.2428,4.34425 c 0,0 0.20912,0.7323 0.20309,0.83262 0,0 0.007,0.16986 -0.41374,0.16649 l -0.35012,0.004 -0.0803,-0.007 0.003,0.32015 1.98161,0.002 0.007,-0.32054 -0.0999,0.004 -0.28097,-0.0189 c 0,0 -0.29056,-0.009 -0.39196,-0.29472 l -0.21674,-0.67197 -1.76008,-6.03511 -0.33014,0.003 -1.70136,5.56165 -1.67114,-5.55826 -0.33053,-0.007 z"
     inkscape:connector-curvature="0"><title
       id="title3593">W</title></path><path
     id="path143862"
     style="fill:#000000;fill-opacity:1;fill-rule:nonzero;stroke:none"
     d="m 205.67061,125.01335 -1.43761,2.40329 -0.34351,0.56612 c 0,0 -0.21659,0.36918 -0.50809,0.37477 l -0.25057,0.0106 -0.10047,0.002 -0.002,0.31257 2.80071,-0.002 0.002,-0.31257 -0.0906,0.001 -0.32249,-6.7e-4 c 0,0 -0.38326,-0.003 -0.38797,-0.1236 0,0 0.004,-0.13147 0.41228,-0.82646 l 1.04063,-1.78021 1.23543,1.77255 c 0,0 0.46742,0.68812 0.47457,0.8283 0,0 -0.004,0.13147 -0.31656,0.12957 l -0.23194,-0.002 -0.10048,0.002 0.008,0.31135 1.80347,3e-5 0.002,-0.31256 -0.12154,-0.005 c 0,0 -0.39441,-0.012 -0.57988,-0.29145 l -0.48362,-0.65591 -1.42472,-2.00117 1.58455,-2.6833 0.43684,-0.70857 c 0,0 0.14312,-0.22917 0.32177,-0.25112 l 0.28035,-0.0143 0.0993,-0.0122 -0.007,-0.30142 -2.70024,-6.6e-4 0.007,0.30142 0.0707,10e-4 0.30386,0.013 c 0,0 0.42296,-0.002 0.42262,0.15964 0,0 -0.008,0.1017 -0.40601,0.79546 l -1.21109,2.03289 -1.38624,-2.01597 c 0,0 -0.46742,-0.68812 -0.47335,-0.81837 0,0 0.002,-0.15132 0.39474,-0.14926 l 0.3002,-0.0167 0.10047,-0.002 0.003,-0.30264 -1.98456,0.002 0.007,0.30142 0.062,0.0125 0.21331,0.0141 c 0,0 0.315,0.0217 0.54993,0.37573 l 0.38331,0.57756 1.55064,2.28795 z"
     inkscape:connector-curvature="0"><title
       id="title3602">X</title></path><path
     id="path143860"
     style="fill:#000000;fill-opacity:1;fill-rule:nonzero;stroke:none"
     d="m 213.18281,124.46417 -1.63551,2.73467 -0.39805,0.60741 c 0,0 -0.18012,0.34722 -0.42007,0.35839 l -0.2798,0.0147 -0.0905,-0.002 -0.002,0.3214 2.8003,-0.007 -0.007,-0.31056 -0.0905,-0.002 -0.34132,7e-5 c 0,0 -0.36125,0.002 -0.36538,-0.15844 0,0 0.007,-0.15118 0.40856,-0.8292 l 1.34466,-2.27727 1.42487,2.2633 c 0,0 0.42202,0.6855 0.41707,0.8566 0,0 0.002,0.14033 -0.39872,0.14568 l -0.28156,-0.005 -0.10049,-10e-4 0.008,0.32052 1.96736,-0.003 -0.007,-0.31056 -0.0905,-0.002 -0.26252,-0.0169 c 0,0 -0.28243,-0.0152 -0.43659,-0.28265 l -0.44189,-0.68374 -1.68717,-2.73203 -6.4e-4,-1.93747 c 0,0 -0.001,-0.58215 0.0851,-0.74037 0,0 0.0855,-0.16819 0.39343,-0.20545 l 0.33048,-0.009 0.0888,-0.0179 0.003,-0.30148 -2.84014,0.0102 -0.004,0.29151 0.0923,0.022 0.33224,0.0108 c 0,0 0.31408,0.0325 0.39878,0.19564 0,0 0.0847,0.16317 0.086,0.74532 l 6.4e-4,1.93747 z"
     inkscape:connector-curvature="0"><title
       id="title3611">Y</title></path><path
     id="path144308"
     style="fill:#000000;fill-opacity:1;fill-rule:nonzero;stroke:none"
     d="m 218.40322,121.25362 0.003,0.38831 3.87258,6.45633 -2.20537,0.006 -0.52513,-0.0352 c 0,0 -0.26625,0.003 -0.33998,-0.0672 0,0 -0.068,-0.0623 -0.0705,-0.29246 0,0 0.004,-0.18597 -0.018,-0.54889 l -0.0139,-0.12452 -0.54642,0.004 0.002,1.45086 4.87443,0.006 8.1e-4,-0.33015 -3.87258,-6.45633 2.18325,-0.002 0.8135,0.0287 c 0,0 0.30803,0.004 0.32933,0.33096 l 0.0139,0.49072 0.0131,0.0885 0.55216,0.004 0.002,-1.39269 -5.06858,-0.004 z"
     inkscape:connector-curvature="0"><title
       id="title3620">Z</title></path></svg>