<?xml version="1.0" encoding="UTF-8" standalone="no"?>
<svg
   xmlns:dc="http://purl.org/dc/elements/1.1/"
   xmlns:cc="http://creativecommons.org/ns#"
   xmlns:rdf="http://www.w3.org/1999/02/22-rdf-syntax-ns#"
   xmlns:svg="http://www.w3.org/2000/svg"
   xmlns="http://www.w3.org/2000/svg"
   xmlns:sodipodi="http://sodipodi.sourceforge.net/DTD/sodipodi-0.dtd"
   xmlns:inkscape="http://www.inkscape.org/namespaces/inkscape"
   xml:space="preserve"
   height="1052.5"
   width="1488.75"
   version="1.1"
   inkscape:version="0.48.5 r10040"
   sodipodi:docname="reference-noms_de_lieux-dits.svg"
   id="svg2"><metadata
     id="metadata4"><rdf:RDF><cc:Work
         rdf:about=""><dc:format>image/svg+xml</dc:format><dc:type
           rdf:resource="http://purl.org/dc/dcmitype/StillImage" /></cc:Work></rdf:RDF></metadata><defs
     id="defs6" /><sodipodi:namedview
     pagecolor="#ffffff"
     bordercolor="#666666"
     borderopacity="1"
     objecttolerance="10"
     gridtolerance="10"
     guidetolerance="10"
     inkscape:pageopacity="0"
     inkscape:pageshadow="2"
     inkscape:window-width="1916"
     inkscape:window-height="1161"
     showgrid="false"
     inkscape:zoom="1.0113895"
     inkscape:cx="89.499925"
     inkscape:cy="766.16896"
     inkscape:window-x="0"
     inkscape:window-y="18"
     inkscape:window-maximized="0"
     inkscape:current-layer="svg2"
     showguides="true"
     inkscape:guide-bbox="true"
     id="namedview8"><sodipodi:guide
       orientation="1,0"
       position="337.82579,971.1283"
       id="guide10" /></sodipodi:namedview><!-- inversion de l'axe Y pour remetre à l'endroit:
<g transform='matrix(1,0,0,-1,0,0)'>--><!--</g>--><text
     xml:space="preserve"
     style="font-size:16px;font-style:normal;font-weight:normal;line-height:125%;letter-spacing:0px;word-spacing:0px;fill:#000000;fill-opacity:1;stroke:none;font-family:Sans"
     x="16.460129"
     y="41.961628"
     sodipodi:linespacing="125%"
     id="text12"><tspan
       sodipodi:role="line"
       x="16.460129"
       y="41.961628"
       style="font-size:16px"
       id="tspan14">Ce fichier SVG sert de liste de référence pour comparer</tspan><tspan
       sodipodi:role="line"
       x="16.460129"
       y="61.961628"
       style="font-size:16px"
       id="tspan16">les paths extraits du cadastre et identifier les noms de quartiers.</tspan><tspan
       sodipodi:role="line"
       x="16.460129"
       y="81.961632"
       style="font-size:16px"
       id="tspan18">La valeur textuelle de chaque path est contenue dans son titre</tspan><tspan
       sodipodi:role="line"
       x="16.460129"
       y="101.96163"
       style="font-size:16px"
       id="tspan20">(accessible en affichant ses propriétés)</tspan><tspan
       sodipodi:role="line"
       x="16.460129"
       y="121.96163"
       style="font-size:16px"
       id="tspan22">Les paths sont inversés haut/bas à cause de la projection utilisée </tspan><tspan
       sodipodi:role="line"
       x="16.460129"
       y="141.96162"
       style="font-size:16px"
       id="tspan24">par le cadastre (par exemple Lambert 9 Zones) qui inverse l'axe Y.</tspan></text>
<path
     style="fill:#000000;fill-opacity:1;fill-rule:nonzero;stroke:none"
     d="m 622.06462,733.14599 0,-3.94 c 0,0 -2.29,1.1 -4.33,1.63 0,0 -2.04,0.54 -3.95,0.54 0,0 -3.31,0 -5.1,-1.28 0,0 -1.79,-1.28 -1.79,-3.64 0,0 0,-1.98 1.2,-2.99 0,0 1.19,-1.01 4.5,-1.63 l 2.46,-0.5 c 0,0 4.51,-0.86 6.67,-3.03 0,0 2.15,-2.18 2.15,-5.82 0,0 0,-4.34 -2.91,-6.58 0,0 -2.91,-2.25 -8.54,-2.25 0,0 -2.12,0 -4.51,0.48 0,0 -2.39,0.48 -4.96,1.43 l 0,4.16 c 0,0 2.46,-1.38 4.82,-2.08 0,0 2.37,-0.7 4.65,-0.7 0,0 3.45,0 5.34,1.36 0,0 1.88,1.35 1.88,3.89 0,0 0,2.2 -1.35,3.43 0,0 -1.35,1.24 -4.43,1.86 l -2.47,0.49 c 0,0 -4.52,0.9 -6.54,2.83 0,0 -2.02,1.92 -2.02,5.34 0,0 0,3.95 2.79,6.24 0,0 2.79,2.29 7.69,2.29 0,0 2.11,0 4.29,-0.38 0,0 2.18,-0.39 4.46,-1.15 z"
     inkscape:connector-curvature="0"
     id="path26"><title
       id="title28">S</title></path><path
     style="fill:#000000;fill-opacity:1;fill-rule:nonzero;stroke:none"
     d="m 38.324767,730.31692 -5.48,-14.88 10.98,0 -5.5,14.88 z m -2.28,3.98 4.58,0 11.39,-29.89 -4.21,0 -2.71,7.67 -13.47,0 -2.74,-7.67 -4.25,0 11.41,29.89 z"
     inkscape:connector-curvature="0"
     id="path30"><title
       id="title32">A</title></path><path
     style="fill:#000000;fill-opacity:1;fill-rule:nonzero;stroke:none"
     d="m 516.70503,731.79494 0,-11.24 5.09,0 c 0,0 2.81,0 4.36,1.47 0,0 1.55,1.47 1.55,4.16 0,0 0,2.68 -1.55,4.14 0,0 -1.55,1.47 -4.36,1.47 l -5.09,0 z m -4.03,3.32 9.12,0 c 0,0 5.02,0 7.59,-2.27 0,0 2.58,-2.27 2.58,-6.66 0,0 0,-4.43 -2.58,-6.68 0,0 -2.57,-2.26 -7.59,-2.26 l -5.09,0 0,-12.02 -4.03,0 0,29.89 z"
     inkscape:connector-curvature="0"
     id="path34"><title
       id="title36">P</title></path><path
     style="fill:#000000;fill-opacity:1;fill-rule:nonzero;stroke:none"
     d="m 149.13837,737.75098 18.89,0 0,-3.4 -14.86,0 0,-8.85 14.23,0 0,-3.4 -14.23,0 0,-10.83 15.22,0 0,-3.41 -19.25,0 0,29.89 z"
     inkscape:connector-curvature="0"
     id="path38"><title
       id="title40">E</title></path><path
     style="fill:#000000;fill-opacity:1;fill-rule:nonzero;stroke:none"
     d="m 633.3929,732.01444 25.3,0 0,-3.4 -10.63,0 0,-26.49 -4.06,0 0,26.49 -10.61,0 0,3.4 z"
     inkscape:connector-curvature="0"
     id="path42"><title
       id="title44">T</title></path><path
     style="fill:#000000;fill-opacity:1;fill-rule:nonzero;stroke:none"
     d="m 834.46541,733.31189 4.35,0 8.28,-12.3 8.23,12.3 4.34999,0 -10.57999,-15.66 0,-14.23 -4.07,0 0,14.23 -10.56,15.66 z"
     inkscape:connector-curvature="0"
     id="path46"><title
       id="title48">Y</title></path><path
     style="fill:#000000;fill-opacity:1;fill-rule:nonzero;stroke:none"
     d="m 583.10604,716.90374 c 0,0 1.3,-0.43 2.53,-1.88 0,0 1.24,-1.44 2.47,-3.96 l 4.10999,-8.17 -4.33999,0 -3.83,7.67 c 0,0 -1.48,3 -2.87,3.98 0,0 -1.39,0.97 -3.8,0.97 l -4.41,0 0,-12.62 -4.03,0 0,29.89 9.13,0 c 0,0 5.12,0 7.64,-2.14 0,0 2.53,-2.14 2.53,-6.47 0,0 0,-2.83 -1.31,-4.69 0,0 -1.32,-1.86 -3.82,-2.58 z m -10.14,12.55 0,-10.61 5.1,0 c 0,0 2.92,0 4.41,1.35 0,0 1.49,1.35 1.49,3.98 0,0 0,2.62 -1.49,3.95 0,0 -1.49,1.33 -4.41,1.33 l -5.1,0 z"
     inkscape:connector-curvature="0"
     id="path50"><title
       id="title52">R</title></path><path
     style="fill:#000000;fill-opacity:1;fill-rule:nonzero;stroke:none"
     d="m 486.60103,734.04874 c 0,0 -4.41,0 -7,-3.28 0,0 -2.6,-3.28 -2.6,-8.94 0,0 0,-5.66 2.6,-8.94 0,0 2.59,-3.28 7,-3.28 0,0 4.4,0 6.97,3.28 0,0 2.57,3.28 2.57,8.94 0,0 0,5.66 -2.57,8.94 0,0 -2.57,3.28 -6.97,3.28 z m 0,3.3 c 0,0 6.28,0 10.04,-4.22 0,0 3.77,-4.22 3.77,-11.3 0,0 0,-7.08 -3.77,-11.29 0,0 -3.76,-4.21 -10.04,-4.21 0,0 -6.32,0 -10.09,4.2 0,0 -3.77,4.21 -3.77,11.3 0,0 0,7.08 3.77,11.3 0,0 3.77,4.22 10.09,4.22 z"
     inkscape:connector-curvature="0"
     id="path54"><title
       id="title56">O</title></path><path
     style="fill:#000000;fill-opacity:1;fill-rule:nonzero;stroke:none"
     d="m 366.28103,735.78374 4.03,0 0,-26.49 14.56,0 0,-3.4 -18.59,0 0,29.89 z"
     inkscape:connector-curvature="0"
     id="path58"><title
       id="title60">L</title></path><path
     style="fill:#000000;fill-opacity:1;fill-rule:nonzero;stroke:none"
     d="m 400.90603,734.78374 6.01,0 7.63,-20.34 7.67,20.34 6.03,0 0,-29.89 -3.95,0 0,26.25 -7.71,-20.5 -4.06,0 -7.7,20.5 0,-26.25 -3.92,0 0,29.89 z"
     inkscape:connector-curvature="0"
     id="path62"><title
       id="title64">M</title></path><path
     style="fill:#000000;fill-opacity:1;fill-rule:nonzero;stroke:none"
     d="m 225.63103,715.16874 0,8.04 -6.61,0 0,3.31 10.61,0 0,-12.83 c 0,0 -2.35,-1.66 -5.17,-2.51 0,0 -2.82,-0.85 -6.02,-0.85 0,0 -7.02,0 -10.97,4.09 0,0 -3.95,4.1 -3.95,11.41 0,0 0,7.31 3.95,11.41 0,0 3.95,4.11 10.97,4.11 0,0 2.92,0 5.55,-0.73 0,0 2.64,-0.73 4.85,-2.12 l 0,-4.31 c 0,0 -2.23,1.91 -4.75,2.87 0,0 -2.53,0.96 -5.31,0.96 0,0 -5.48,0 -8.24,-3.06 0,0 -2.76,-3.07 -2.76,-9.13 0,0 0,-6.05 2.76,-9.11 0,0 2.76,-3.06 8.24,-3.06 0,0 2.14,0 3.82,0.37 0,0 1.68,0.36 3.03,1.14 z"
     inkscape:connector-curvature="0"
     id="path66"><title
       id="title68">G</title></path><path
     style="fill:#000000;fill-opacity:1;fill-rule:nonzero;stroke:none"
     d="m 439.27103,733.78374 5.44001,0 13.25,-25 0,25 3.92,0 0,-29.89 -5.44,0 -13.25,25 0,-25 -3.92001,0 0,29.89 z"
     inkscape:connector-curvature="0"
     id="path70"><title
       id="title72">N</title></path><path
     style="fill:#000000;fill-opacity:1;fill-rule:nonzero;stroke:none"
     d="m 122.04103,733.45374 0,-23.23 4.89,0 c 0,0 6.19,0 9.07,2.79 0,0 2.87,2.8 2.87,8.85 0,0 0,6.01 -2.87,8.8 0,0 -2.88,2.79 -9.07,2.79 l -4.89,0 z m -4.03,3.33 8.3,0 c 0,0 8.69,0 12.76,-3.62 0,0 4.07,-3.62 4.07,-11.3 0,0 0,-7.72 -4.09,-11.35 0,0 -4.09,-3.62 -12.74,-3.62 l -8.3,0 0,29.89 z"
     inkscape:connector-curvature="0"
     id="path74"><title
       id="title76">D</title></path><path
     style="fill:#000000;fill-opacity:1;fill-rule:nonzero;stroke:none"
     d="m 286.56103,737.78374 4.03,0 0,-29.89 -4.03,0 0,29.89 z"
     inkscape:connector-curvature="0"
     id="path78"><title
       id="title80">I</title></path><path
     style="fill:#000000;fill-opacity:1;fill-rule:nonzero;stroke:none"
     d="m 718.29104,702.89373 -11.4,29.89 4.22,0 9.47,-25.17 9.48,25.17 4.2,0 -11.39,-29.89 -4.58,0 z"
     inkscape:connector-curvature="0"
     id="path82"><title
       id="title84">V</title></path><path
     style="fill:#000000;fill-opacity:1;fill-rule:nonzero;stroke:none"
     d="m 107.63103,734.49874 0,-4.26 c 0,0 -2.05,1.89 -4.36,2.83 0,0 -2.31,0.95 -4.900001,0.95 0,0 -5.13,0 -7.86,-3.14 0,0 -2.72,-3.13 -2.72,-9.05 0,0 0,-5.91 2.72,-9.04 0,0 2.73,-3.13 7.86,-3.13 0,0 2.590001,0 4.900001,0.94 0,0 2.31,0.93 4.36,2.84 l 0,-4.24 c 0,0 -2.12,-1.43 -4.49,-2.15 0,0 -2.37,-0.72 -5.020001,-0.72 0,0 -6.79,0 -10.69,4.16 0,0 -3.91,4.15 -3.91,11.34 0,0 0,7.2 3.91,11.36 0,0 3.9,4.16 10.69,4.16 0,0 2.680001,0 5.060001,-0.72 0,0 2.37,-0.71 4.45,-2.13 z"
     inkscape:connector-curvature="0"
     id="path86"><title
       id="title88">C</title></path><path
     style="fill:#000000;fill-opacity:1;fill-rule:nonzero;stroke:none"
     d="m 667.13104,733.07373 4.07,0 0,-18.16 c 0,0 0,-4.81 1.74,-6.92 0,0 1.74,-2.11 5.65,-2.11 0,0 3.89,0 5.62,2.11 0,0 1.74,2.11 1.74,6.92 l 0,18.16 4.07,0 0,-18.66 c 0,0 0,-5.84 -2.9,-8.83 0,0 -2.89,-2.98 -8.53,-2.98 0,0 -5.68,0 -8.57,2.98 0,0 -2.89,2.99 -2.89,8.83 l 0,18.66 z"
     inkscape:connector-curvature="0"
     id="path90"><title
       id="title92">U</title></path><path
     style="fill:#000000;fill-opacity:1;fill-rule:nonzero;stroke:none"
     d="m 178.99103,735.78373 17.17,0 0,-3.41 -13.14,0 0,-8.81 11.86,0 0,-3.39 -11.86,0 0,-14.28 -4.03,0 0,29.89 z"
     inkscape:connector-curvature="0"
     id="path94"><title
       id="title96">F</title></path><path
     style="fill:#000000;fill-opacity:1;fill-rule:nonzero;stroke:none"
     d="m 59.01603,718.17374 0,-10.95 6.48,0 c 0,0 3.27,0 4.84,1.35 0,0 1.57,1.35 1.57,4.13 0,0 0,2.8 -1.57,4.13 0,0 -1.57,1.34 -4.84,1.34 l -6.48,0 z m 0,12.28 0,-9 5.98,0 c 0,0 2.97,0 4.42,1.11 0,0 1.46,1.11 1.46,3.39 0,0 0,2.27 -1.46,3.38 0,0 -1.45,1.12 -4.42,1.12 l -5.98,0 z m -4.03,3.33 10.32,0 c 0,0 4.63,0 7.13,-1.92 0,0 2.5,-1.93 2.5,-5.47 0,0 0,-2.74 -1.28,-4.36 0,0 -1.28,-1.63 -3.77,-2.03 0,0 2.99,-0.64 4.64,-2.67 0,0 1.64,-2.04 1.64,-5.07 0,0 0,-4.01 -2.71,-6.19 0,0 -2.72,-2.18 -7.75,-2.18 l -10.72,0 0,29.89 z"
     inkscape:connector-curvature="0"
     id="path98"><title
       id="title100">B</title></path><path
     style="fill:#000000;fill-opacity:1;fill-rule:nonzero;stroke:none"
     d="m 248.18603,735.78373 4.03,0 0,-12.25 14.7,0 0,12.25 4.05,0 0,-29.89 -4.05,0 0,14.23 -14.7,0 0,-14.23 -4.03,0 0,29.89 z"
     inkscape:connector-curvature="0"
     id="path102"><title
       id="title104">H</title></path><path
     style="fill:#000000;fill-opacity:1;fill-rule:nonzero;stroke:none"
     d="m 314.64103,736.88373 4.03,0 0,-27.81 c 0,0 0,-5.41 -2.05,-7.84 0,0 -2.05,-2.43999 -6.59,-2.43999 l -1.55,0 0,3.38999 1.27,0 c 0,0 2.68,0 3.78,1.51 0,0 1.11,1.51 1.11,5.38 l 0,27.81 z"
     inkscape:connector-curvature="0"
     id="path106"><title
       id="title108">J</title></path><path
     style="fill:#000000;fill-opacity:1;fill-rule:nonzero;stroke:none"
     d="m 872.47806,733.5968 23.49,0 0,-3.08 -18.89,-23.41 19.35,0 0,-3.4 -24.4,0 0,3.08 18.89,23.4 -18.44,0 0,3.41 z"
     inkscape:connector-curvature="0"
     id="path110"><title
       id="title112">Z</title></path><path
     style="fill:#000000;fill-opacity:1;fill-rule:nonzero;stroke:none"
     d="m 799.6214,734.09117 4.35,0 7.43,-11.11 7.47,11.11 4.35,0 -9.61,-14.36 10.25,-15.53 -4.35,0 -8.42,12.72 -8.47,-12.72 -4.36,0 10.68,15.96 -9.32,13.93 z"
     inkscape:connector-curvature="0"
     id="path114"><title
       id="title116">X</title></path><path
     style="fill:#000000;fill-opacity:1;fill-rule:nonzero;stroke:none"
     d="m 549.07063,731.23432 c 0,0 -4.4,0 -7,-3.28 0,0 -2.59,-3.28 -2.59,-8.94 0,0 0,-5.66 2.59,-8.94 0,0 2.6,-3.28 7,-3.28 0,0 4.41,0 6.98,3.28 0,0 2.57,3.28 2.57,8.94 0,0 0,5.66 -2.57,8.94 0,0 -2.57,3.28 -6.98,3.28 z m 5.67,-26.6 5.32,-5.82 -4.88,0 -4.42,4.78 c 0,0 -0.67,-0.05 -1.02,-0.06 0,0 -0.36,-0.02 -0.67,-0.02 0,0 -6.31,0 -10.08,4.21 0,0 -3.78,4.21 -3.78,11.29 0,0 0,7.08 3.78,11.3 0,0 3.77,4.22 10.08,4.22 0,0 6.28,0 10.05,-4.22 0,0 3.76,-4.22 3.76,-11.3 0,0 0,-5.22 -2.09,-8.92 0,0 -2.09,-3.71 -6.05,-5.46 z"
     inkscape:connector-curvature="0"
     id="path118"><title
       id="title120">Q</title></path><path
     style="fill:#000000;fill-opacity:1;fill-rule:nonzero;stroke:none"
     d="m 56.691795,791.48099 10.8,0 0,-3.28 -10.8,0 0,3.28 z"
     inkscape:connector-curvature="0"
     id="path122"><title
       id="title124">-</title></path><path
     style="fill:#000000;fill-opacity:1;fill-rule:nonzero;stroke:none"
     d="m 43.276029,805.39373 0,-11.10999 -3.4,0 0,11.10999 3.4,0 z"
     inkscape:connector-curvature="0"
     id="path126"><title
       id="title128">'</title></path><path
     id="path15072"
     style="fill:#000000;fill-opacity:1;fill-rule:nonzero;stroke:none"
     d="m 748.13753,731.61931 4.1,0 6.28,-25.27 6.26,25.27 4.55,0 6.28,-25.27 6.27,25.27 4.11,0 -7.52,-29.89 -5.08,0 -6.31,25.95 -6.36,-25.95 -5.09,0 -7.49,29.89 z"
     inkscape:connector-curvature="0"><title
       id="title3112">W</title></path><path
     id="path15072-0"
     style="fill:#000000;fill-opacity:1;fill-rule:nonzero;stroke:none"
     d="m 333.01608,733.10242 4.03,0 0,-12.64 13.42,12.64 5.2,0 -14.83,-13.93 15.89,-15.96 -5.32,0 -14.36,14.39 0,-14.39 -4.03,0 0,29.89 z"
     inkscape:connector-curvature="0"><title
       id="title3121">K</title></path><path
     id="path28148"
     style="fill:#000000;fill-opacity:1;fill-rule:nonzero;stroke:none"
     d="m 148.86883,783.15868 18.89,0 0,-3.4 -14.86,0 0,-8.85 14.23,0 0,-3.4 -14.23,0 0,-10.83 15.22,0 0,-3.41 -19.25,0 0,29.89 z m 10.81,7.66 3.7,0 -4.56,-5.28 -3.06,0 3.92,5.28 z"
     inkscape:connector-curvature="0"><title
       id="title3052">É</title></path><path
     id="path27734"
     style="fill:#000000;fill-opacity:1;fill-rule:nonzero;stroke:none"
     d="m 488.2632,781.17305 c 0,0 -4.41,0 -7,-3.28 0,0 -2.6,-3.28 -2.6,-8.94 0,0 0,-5.66 2.6,-8.94 0,0 2.59,-3.28 7,-3.28 0,0 4.4,0 6.97,3.28 0,0 2.57,3.28 2.57,8.94 0,0 0,5.66 -2.57,8.94 0,0 -2.57,3.28 -6.97,3.28 z m 0,3.3 c 0,0 6.28,0 10.04,-4.22 0,0 3.77,-4.22 3.77,-11.3 0,0 0,-7.08 -3.77,-11.29 0,0 -3.76,-4.21 -10.04,-4.21 0,0 -6.32,0 -10.09,4.2 0,0 -3.77,4.21 -3.77,11.3 0,0 0,7.08 3.77,11.3 0,0 3.77,4.22 10.09,4.22 z m -1.83,7.15 3.61,0 4.03,-5.33 -2.66,0 -3.17,3.57 -3.19,-3.57 -2.65,0 4.03,5.33 z"
     inkscape:connector-curvature="0"><title
       id="title3061">Ô</title></path><path
     id="path28400"
     style="fill:#000000;fill-opacity:1;fill-rule:nonzero;stroke:none"
     d="m 177.54225,782.15242 18.89,0 0,-3.41 -14.86,0 0,-8.84 14.24,0 0,-3.41 -14.24,0 0,-10.83 15.22,0 0,-3.4 -19.25,0 0,29.89 z m 8.58,7.65 3.92,-5.28 -3.06,0 -4.61,5.28 3.75,0 z"
     inkscape:connector-curvature="0"><title
       id="title3070">È</title></path><path
     id="path4924"
     style="fill:#000000;fill-opacity:1;fill-rule:nonzero;stroke:none"
     d="m 287.4867,779.6731 4.03001,0 0,-29.89 -4.03001,0 0,29.89 z m 0.16,7.71 3.72001,0 4.15,-5.33 -2.73,0 -3.28001,3.56 -3.28,-3.56 -2.74,0 4.16,5.33 z"
     inkscape:connector-curvature="0"><title
       id="title5230">Î</title></path><path
     id="path4924-9"
     style="fill:#000000;fill-opacity:1;fill-rule:nonzero;stroke:none"
     d="m 366.75581,850.90295 3.69,0 0,-31.16 -3.69,0 0,31.16 z"
     inkscape:connector-curvature="0"><title
       id="title5256">l</title></path><path
     id="path4924-4"
     style="fill:#000000;fill-opacity:1;fill-rule:nonzero;stroke:none"
     d="m 168.38946,838.7298 0,-1.8 -16.94,0 c 0,0 0.23,-3.8 2.29,-5.79 0,0 2.05,-1.99 5.71,-1.99 0,0 2.12,0 4.12,0.52 0,0 1.99,0.51 3.96,1.56 l 0,-3.49 c 0,0 -1.99,-0.84 -4.07,-1.28 0,0 -2.09,-0.44 -4.23,-0.44 0,0 -5.36,0 -8.49,3.13 0,0 -3.13,3.12 -3.13,8.44 0,0 0,5.51 2.96,8.75 0,0 2.97,3.23 8.02,3.23 0,0 4.53,0 7.16,-2.91 0,0 2.64,-2.92 2.64,-7.93 z m -3.69,1.09 c 0,0 -0.05,3.02 -1.7,4.82 0,0 -1.64,1.81 -4.36,1.81 0,0 -3.1,0 -4.95,-1.75 0,0 -1.85,-1.74 -2.13,-4.91 l 13.14,0.03 z"
     inkscape:connector-curvature="0"><title
       id="title5282">e</title></path><path
     id="path4924-0"
     style="fill:#000000;fill-opacity:1;fill-rule:nonzero;stroke:none"
     d="m 43.932651,840.83602 c 0,0 -4.46,0 -6.18,-1.02 0,0 -1.73,-1.01 -1.73,-3.48 0,0 0,-1.95 1.3,-3.11 0,0 1.29,-1.16 3.51,-1.16 0,0 3.07,0 4.92,2.17 0,0 1.85,2.18 1.85,5.79 l 0,0.81 -3.67,0 z m 7.36,1.53 0,-12.8 -3.69,0 0,3.41 c 0,0 -1.27,-2.05 -3.15,-3.02 0,0 -1.88,-0.97 -4.6,-0.97 0,0 -3.44,0 -5.47,1.93 0,0 -2.03,1.93 -2.03,5.18 0,0 0,3.79 2.53,5.71 0,0 2.53,1.92 7.55,1.92 l 5.17,0 0,0.36 c 0,0 0,2.55 -1.67,3.94 0,0 -1.67,1.39 -4.71,1.39 0,0 -1.92,0 -3.74,-0.46 0,0 -1.82,-0.47 -3.49,-1.39 l 0,3.41 c 0,0 2.02,0.78 3.92,1.17 0,0 1.91,0.39 3.7,0.39 0,0 4.86,0 7.27,-2.52 0,0 2.41,-2.53 2.41,-7.65 z"
     inkscape:connector-curvature="0"><title
       id="title5322">a</title></path><path
     id="path4924-02"
     style="fill:#000000;fill-opacity:1;fill-rule:nonzero;stroke:none"
     d="m 577.86226,845.2998 c 0,0 -0.63,0.36 -1.35,0.52 0,0 -0.73,0.16 -1.62,0.16 0,0 -3.12,0 -4.8,-2.03 0,0 -1.67,-2.03 -1.67,-5.82 l 0,-11.82 -3.7,0 0,22.42 3.7,0 0,-3.48 c 0,0 1.17,2.05 3.03,3.04 0,0 1.86,0.99 4.52,0.99 0,0 0.39,0 0.85,-0.05 0,0 0.46,-0.06 1.02,-0.15 l 0.02,-3.78 z"
     inkscape:connector-curvature="0"><title
       id="title5348">r</title></path><path
     id="path4924-90"
     style="fill:#000000;fill-opacity:1;fill-rule:nonzero;stroke:none"
     d="m 287.65671,840.67984 3.69,0 0,-22.42 -3.69,0 0,22.42 z m 0,8.74 3.69,0 0,-4.67 -3.69,0 0,4.67 z"
     inkscape:connector-curvature="0"><title
       id="title5386">i</title></path><path
     id="path4726"
     d="m 611.29064,846.88669 0,-3.49 c 0,0 -1.57,0.8 -3.25,1.2 0,0 -1.68,0.4 -3.47,0.4 0,0 -2.75,0 -4.12,-0.84 0,0 -1.37,-0.83 -1.37,-2.52 0,0 0,-1.28 0.98,-2.01 0,0 0.98,-0.73 3.95,-1.4 l 1.25,-0.28 c 0,0 3.93,-0.84 5.58,-2.37 0,0 1.65,-1.54 1.65,-4.27 0,0 0,-3.12 -2.47,-4.94 0,0 -2.47,-1.83 -6.8,-1.83 0,0 -1.81,0 -3.75,0.36 0,0 -1.95,0.35 -4.12,1.05 l 0,3.8 c 0,0 2.05,-1.06 4.03,-1.6 0,0 1.98,-0.53 3.92,-0.53 0,0 2.6,0 4,0.89 0,0 1.41,0.89 1.41,2.52 0,0 0,1.5 -1.02,2.3 0,0 -1.01,0.81 -4.43,1.54 l -1.29,0.3 c 0,0 -3.42,0.72 -4.94,2.21 0,0 -1.52,1.49 -1.52,4.1 0,0 0,3.16 2.24,4.89 0,0 2.24,1.72 6.36,1.72 0,0 2.05,0 3.86,-0.3 0,0 1.8,-0.31 3.32,-0.9 z"
     style="fill:#000000;fill-opacity:1;fill-rule:nonzero;stroke:none"
     inkscape:connector-curvature="0"><title
       id="title11571">s</title></path><path
     id="path4726-2"
     d="m 628.54348,851.69044 0,-6.36 7.59,0 0,-2.85 -7.59,0 0,-12.18 c 0,0 0,-2.75 0.76,-3.53 0,0 0.76,-0.78 3.05,-0.78 l 3.78,0 0,-3.08 -3.78,0 c 0,0 -4.26,0 -5.89,1.6 0,0 -1.62,1.59 -1.62,5.79 l 0,12.18 -2.71,0 0,2.85 2.71,0 0,6.36 3.7,0 z"
     style="fill:#000000;fill-opacity:1;fill-rule:nonzero;stroke:none"
     inkscape:connector-curvature="0"><title
       id="title11597">t</title></path><path
     id="path4726-6"
     d="m 136.65977,846.46849 0,12.14 3.67,0 0,-31.16 -3.67,0 0,3.36 c 0,0 -1.18,-2 -2.95,-2.97 0,0 -1.77,-0.97 -4.24,-0.97 0,0 -4.06,0 -6.62,3.25 0,0 -2.55,3.24 -2.55,8.52 0,0 0,5.28 2.55,8.53 0,0 2.56,3.25 6.62,3.25 0,0 2.47,0 4.24,-0.97 0,0 1.77,-0.98 2.95,-2.98 z m -12.57,-7.83 c 0,0 0,-4.06 1.67,-6.37 0,0 1.68,-2.32 4.6,-2.32 0,0 2.92,0 4.61,2.32 0,0 1.69,2.31 1.69,6.37 0,0 0,4.06 -1.69,6.38 0,0 -1.69,2.31 -4.61,2.31 0,0 -2.92,0 -4.6,-2.31 0,0 -1.67,-2.32 -1.67,-6.38 z"
     style="fill:#000000;fill-opacity:1;fill-rule:nonzero;stroke:none"
     inkscape:connector-curvature="0"><title
       id="title11623">d</title></path><path
     id="path4726-0"
     style="fill:#000000;fill-opacity:1;fill-rule:nonzero;stroke:none"
     d="m 489.22194,844.47233 c 0,0 -2.96,0 -4.68,-2.32 0,0 -1.73,-2.31 -1.73,-6.34 0,0 0,-4.02 1.71,-6.33 0,0 1.71,-2.31 4.7,-2.31 0,0 2.95,0 4.67,2.32 0,0 1.72,2.32 1.72,6.32 0,0 0,3.98 -1.72,6.32 0,0 -1.72,2.34 -4.67,2.34 z m 0,3.12 c 0,0 4.81,0 7.55,-3.12 0,0 2.74,-3.13 2.74,-8.66 0,0 0,-5.5 -2.74,-8.63 0,0 -2.74,-3.14 -7.55,-3.14 0,0 -4.82,0 -7.55,3.14 0,0 -2.73,3.13 -2.73,8.63 0,0 0,5.53 2.73,8.66 0,0 2.73,3.12 7.55,3.12 z"
     inkscape:connector-curvature="0"><title
       id="title11649">o</title></path><path
     id="path4726-5"
     d="m 416.8109,841.47359 c 0,0 1.37,2.47 3.3,3.65 0,0 1.92,1.19 4.53,1.19 0,0 3.5,0 5.39,-2.45 0,0 1.9,-2.45 1.9,-6.99 l 0,-13.53 -3.7,0 0,13.41 c 0,0 0,3.23 -1.14,4.8 0,0 -1.14,1.56 -3.48,1.56 0,0 -2.86,0 -4.53,-1.91 0,0 -1.66,-1.9 -1.66,-5.19 l 0,-12.67 -3.71,0 0,13.41 c 0,0 0,3.25 -1.14,4.8 0,0 -1.14,1.56 -3.51,1.56 0,0 -2.83,0 -4.49,-1.92 0,0 -1.67,-1.91 -1.67,-5.18 l 0,-12.67 -3.7,0 0,22.42 3.7,0 0,-3.48 c 0,0 1.27,2.06 3.03,3.05 0,0 1.77,0.98 4.19,0.98 0,0 2.44,0 4.15,-1.24 0,0 1.71,-1.24 2.54,-3.6 z"
     style="fill:#000000;fill-opacity:1;fill-rule:nonzero;stroke:none"
     inkscape:connector-curvature="0"><title
       id="title11675">m</title></path><path
     d="m 515.03095,828.00237 0,-11.89 -3.7,0 0,30.95 3.7,0 0,-3.4 c 0,0 1.17,2 2.94,2.98 0,0 1.77,0.97 4.23,0.97 0,0 4.08,0 6.64,-3.25 0,0 2.55,-3.25 2.55,-8.53 0,0 0,-5.28 -2.55,-8.52 0,0 -2.56,-3.25 -6.64,-3.25 0,0 -2.46,0 -4.23,0.97 0,0 -1.77,0.97 -2.94,2.97 z m 12.53,7.83 c 0,0 0,4.06 -1.67,6.38 0,0 -1.67,2.31 -4.59,2.31 0,0 -2.92,0 -4.6,-2.31 0,0 -1.67,-2.32 -1.67,-6.38 0,0 0,-4.06 1.67,-6.37 0,0 1.68,-2.32 4.6,-2.32 0,0 2.92,0 4.59,2.32 0,0 1.67,2.31 1.67,6.37 z"
     id="path4726-66"
     style="fill:#000000;fill-opacity:1;fill-rule:nonzero;stroke:none"
     inkscape:connector-curvature="0"><title
       id="title11701">p</title></path><path
     d="m 223.17441,834.62926 c 0,0 0,4 -1.66,6.2 0,0 -1.66,2.21 -4.64,2.21 0,0 -2.95,0 -4.61,-2.21 0,0 -1.66,-2.2 -1.66,-6.2 0,0 0,-3.98 1.66,-6.19 0,0 1.66,-2.2 4.61,-2.2 0,0 2.98,0 4.64,2.2 0,0 1.66,2.21 1.66,6.19 z m 3.67,-8.69 c 0,0 0,-5.71 -2.54,-8.51 0,0 -2.54,-2.8 -7.79,-2.8 0,0 -1.94,0 -3.66,0.29 0,0 -1.72,0.29 -3.34,0.9 l 0,3.58 c 0,0 1.62,-0.88 3.2,-1.3 0,0 1.58,-0.42 3.22,-0.42 0,0 3.63,0 5.43,1.89 0,0 1.81,1.89 1.81,5.72 l 0,1.81 c 0,0 -1.15,-1.97 -2.93,-2.95 0,0 -1.79,-0.99 -4.26,-0.99 0,0 -4.13,0 -6.65,3.14 0,0 -2.52,3.14 -2.52,8.33 0,0 0,5.2 2.52,8.35 0,0 2.52,3.15 6.65,3.15 0,0 2.47,0 4.26,-0.98 0,0 1.78,-0.99 2.93,-2.97 l 0,3.4 3.67,0 0,-19.64 z"
     id="path4726-8"
     style="fill:#000000;fill-opacity:1;fill-rule:nonzero;stroke:none"
     inkscape:connector-curvature="0"><title
       id="title11727">g</title></path><path
     d="m 461.04487,837.36795 0,-13.53 -3.69,0 0,13.41 c 0,0 0,3.19 -1.23,4.77 0,0 -1.24,1.59 -3.72,1.59 0,0 -2.98,0 -4.71,-1.91 0,0 -1.73,-1.9 -1.73,-5.19 l 0,-12.67 -3.7,0 0,22.42 3.7,0 0,-3.48 c 0,0 1.33,2.02 3.12,3.02 0,0 1.79,1.01 4.13,1.01 0,0 3.86,0 5.85,-2.4 0,0 1.98,-2.4 1.98,-7.04 z"
     id="path4726-3"
     style="fill:#000000;fill-opacity:1;fill-rule:nonzero;stroke:none"
     inkscape:connector-curvature="0"><title
       id="title11753">n</title></path><path
     id="path4764"
     style="fill:#000000;fill-opacity:1;fill-rule:nonzero;stroke:none"
     d="m 108.52887,847.67543 0,-3.44 c 0,0 -1.56,0.86 -3.13,1.29 0,0 -1.57,0.43 -3.18,0.43 0,0 -3.580001,0 -5.560001,-2.28 0,0 -1.99,-2.27 -1.99,-6.38 0,0 0,-4.09 1.99,-6.37 0,0 1.98,-2.27 5.560001,-2.27 0,0 1.61,0 3.18,0.43 0,0 1.57,0.43 3.13,1.29 l 0,-3.41 c 0,0 -1.55,-0.72 -3.2,-1.08 0,0 -1.64,-0.36 -3.5,-0.36 0,0 -5.070001,0 -8.050001,3.18 0,0 -2.98,3.18 -2.98,8.59 0,0 0,5.48 3,8.63 0,0 3.01,3.15 8.260001,3.15 0,0 1.7,0 3.33,-0.35 0,0 1.62,-0.35 3.14,-1.05 z"
     inkscape:connector-curvature="0"><title
       id="title11797">c</title></path><path
     id="path4764-9"
     style="fill:#000000;fill-opacity:1;fill-rule:nonzero;stroke:none"
     d="m 646.43442,831.27548 0,13.57 3.69,0 0,-13.43 c 0,0 0,-3.17 1.24,-4.77 0,0 1.25,-1.59 3.72,-1.59 0,0 2.98,0 4.71,1.9 0,0 1.74,1.89 1.74,5.18 l 0,12.71 3.69,0 0,-22.42 -3.69,0 0,3.44 c 0,0 -1.35,-2.03 -3.12,-3.02 0,0 -1.77,-1 -4.12,-1 0,0 -3.86,0 -5.86,2.4 0,0 -2,2.4 -2,7.03 z"
     inkscape:connector-curvature="0"><title
       id="title11823">u</title></path><path
     id="path4764-0"
     style="fill:#000000;fill-opacity:1;fill-rule:nonzero;stroke:none"
     d="m 168.38946,884.73485 0,-1.8 -16.94,0 c 0,0 0.23,-3.8 2.29,-5.79 0,0 2.05,-1.99 5.71,-1.99 0,0 2.12,0 4.12,0.52 0,0 1.99,0.51 3.96,1.56 l 0,-3.49 c 0,0 -1.99,-0.84 -4.07,-1.28 0,0 -2.09,-0.44 -4.23,-0.44 0,0 -5.36,0 -8.49,3.13 0,0 -3.13,3.12 -3.13,8.44 0,0 0,5.51 2.96,8.75 0,0 2.97,3.23 8.02,3.23 0,0 4.53,0 7.16,-2.91 0,0 2.64,-2.92 2.64,-7.93 z m -3.69,1.09 c 0,0 -0.05,3.02 -1.7,4.82 0,0 -1.64,1.81 -4.36,1.81 0,0 -3.1,0 -4.95,-1.75 0,0 -1.85,-1.74 -2.13,-4.91 l 13.14,0.03 z m -3.33,19.58 3.99,0 -6.54,-7.53 -3.06,0 5.61,7.53 z"
     inkscape:connector-curvature="0"><title
       id="title11849">é</title></path><path
     id="path844"
     d="m 301.82342,779.67809 4.03,0 0,-29.89 -4.03,0 0,29.89 z m 0.16,7.7 3.72,0 4.15,-5.33 -2.73,0 -3.28,3.57 -3.28,-3.57 -2.74,0 4.16,5.33 z"
     style="fill:#000000;fill-opacity:1;fill-rule:nonzero;stroke:none"
     inkscape:connector-curvature="0"><title
       id="title3092">Î</title></path><path
     id="path844-2"
     d="m 539.36005,835.338 c 0,0 0,-4.07 1.67,-6.38 0,0 1.68,-2.31 4.6,-2.31 0,0 2.92,0 4.61,2.31 0,0 1.69,2.31 1.69,6.38 0,0 0,4.06 -1.69,6.37 0,0 -1.69,2.31 -4.61,2.31 0,0 -2.92,0 -4.6,-2.31 0,0 -1.67,-2.31 -1.67,-6.37 z m 12.57,-7.83 c 0,0 -1.18,-2 -2.95,-2.97 0,0 -1.77,-0.97 -4.24,-0.97 0,0 -4.06,0 -6.62,3.24 0,0 -2.55,3.24 -2.55,8.53 0,0 0,5.28 2.55,8.53 0,0 2.56,3.25 6.62,3.25 0,0 2.47,0 4.24,-0.98 0,0 1.77,-0.98 2.95,-2.98 l 0,3.41 3.67,0 0,-30.95 -3.67,0 0,11.89 z"
     style="fill:#000000;fill-opacity:1;fill-rule:nonzero;stroke:none"
     inkscape:connector-curvature="0"><title
       id="title3101">q</title></path><path
     id="path81138"
     style="fill:#000000;fill-opacity:1;fill-rule:nonzero;stroke:none"
     d="m 817.05708,844.56048 -8.11,-10.91 8.53,-11.52 -4.34,0 -6.53,8.82 -6.52,-8.82 -4.34,0 8.7,11.74 -7.97,10.69 4.35,0 5.95,-7.99 5.94,7.99 4.34,0 z"
     inkscape:connector-curvature="0"><title
       id="title3771">x</title></path><path
     id="path80232"
     style="fill:#000000;fill-opacity:1;fill-rule:nonzero;stroke:none"
     d="m 169.3782,927.25061 0,-1.8 -16.94,0 c 0,0 0.23,-3.8 2.29,-5.79 0,0 2.05,-1.99 5.71,-1.99 0,0 2.12,0 4.12,0.51 0,0 1.99,0.52 3.96,1.57 l 0,-3.49 c 0,0 -1.99,-0.84 -4.07,-1.28 0,0 -2.09,-0.44 -4.23,-0.44 0,0 -5.36,0 -8.49,3.13 0,0 -3.13,3.12 -3.13,8.44 0,0 0,5.51 2.96,8.75 0,0 2.97,3.23 8.02,3.23 0,0 4.53,0 7.16,-2.91 0,0 2.64,-2.92 2.64,-7.93 z m -3.69,1.09 c 0,0 -0.05,3.02 -1.7,4.82 0,0 -1.64,1.81 -4.36,1.81 0,0 -3.1,0 -4.95,-1.75 0,0 -1.85,-1.74 -2.13,-4.91 l 13.14,0.03 z m -3.33,19.58 3.99,0 -6.54,-7.53 -3.06,0 5.61,7.53 z"
     inkscape:connector-curvature="0"><title
       id="title3811">é</title></path><text
     xml:space="preserve"
     style="font-size:10px;font-style:normal;font-weight:normal;line-height:125%;letter-spacing:0px;word-spacing:0px;fill:#000000;fill-opacity:1;stroke:none;font-family:Sans"
     x="17.762701"
     y="201.56207"
     id="text3056-8"
     sodipodi:linespacing="125%"><tspan
       sodipodi:role="line"
       x="17.762701"
       y="201.56207"
       style="font-size:20px"
       id="tspan3582">Nouvelle version (2015/01/29) avec la police sérif:</tspan></text>
<text
     xml:space="preserve"
     style="font-size:10px;font-style:normal;font-weight:normal;line-height:125%;letter-spacing:0px;word-spacing:0px;fill:#000000;fill-opacity:1;stroke:none;font-family:Sans"
     x="16.18014"
     y="653.89789"
     id="text3056-4"
     sodipodi:linespacing="125%"><tspan
       sodipodi:role="line"
       x="16.18014"
       y="653.89789"
       style="font-size:20px"
       id="tspan3186">Ancienne version avec la police sans sérif:</tspan></text>
<path
     id="path121498"
     style="fill:#000000;fill-opacity:1;fill-rule:nonzero;stroke:none"
     d="m 161.85747,238.6073 0,-9.18 c 0,0 0,-2.36 0.43,-3.1 0,0 0.43,-0.73 1.84,-0.73 0,0 0.07,0 1.56,-0.1 l 0.37,-0.03 0,-1.23 -12.11,0 0,1.23 0.38,0.03 1.34,0.1 c 0,0 1.17,0.08 1.48,0.39 0,0 0.3,0.31 0.38,1.45 l 0.13,1.99 0,19.25 -0.13,1.98 c 0,0 -0.08,1.14 -0.38,1.46 0,0 -0.31,0.32 -1.48,0.4 l -1.34,0.09 -0.38,0.03 0,1.22 20,0 0,-5.18 -2.21,0 -0.02,0.39 -0.11,1.67 c 0,0 0,0.97 -0.26,1.23 0,0 -0.26,0.27 -1.19,0.27 l -2.07,0.03 -6.23,0 0,-12.03 5.42,0 1.27,0.03 c 0,0 0.89,0 1.12,0.2 0,0 0.22,0.19 0.27,0.92 0,0 0.01,0.3 0.05,0.93 l 0.03,0.36 1.59,0 0,-6.55 -1.59,0 -0.03,0.37 c 0,0 -0.1,1.54 -0.47,1.82 0,0 -0.36,0.29 -2.24,0.29 l -5.42,0 z"
     inkscape:connector-curvature="0"><title
       id="title3118">F</title></path><path
     id="path121498-6"
     style="fill:#000000;fill-opacity:1;fill-rule:nonzero;stroke:none"
     d="m 15.167241,233.86024 -1.7,-3.93 -0.88,-2.49 c 0,0 -0.12,-0.36 -0.12,-0.62 0,0 0,-0.82 1.54,-0.82 l 1.05,-0.03 0.31,0 0,-1.23 -7.6899999,0 0,1.23 0.43,0.03 0.95,0.04 c 0,0 1.1199999,0.06 1.8399999,1.78 l 0.93,2.11 10.43,24.82 1.39,0 10.39,-24.96 1.04,-2.07 c 0,0 0.53,-1.15 0.91,-1.4 0,0 0.38,-0.24 1.74,-0.32 l 0.47,-0.03 0,-1.23 -11,0 0,1.23 0.36,0 1.22,0.03 c 0,0 1.56,0 1.56,0.75 0,0 0,1.21 -0.81,3.18 l -1.66,3.93 -12.7,0 z m 0.66,1.63 11.31,0 -5.63,13.5 -5.68,-13.5 z"
     inkscape:connector-curvature="0"><title
       id="title3134">A</title></path><path
     id="path121498-64"
     style="fill:#000000;fill-opacity:1;fill-rule:nonzero;stroke:none"
     d="m 626.03079,254.05481 0,1.22 11.66,0 0,-1.22 -0.36,-0.03 -1.36,-0.09 c 0,0 -1.25,-0.09 -1.62,-0.78 0,0 -0.36,-0.69 -0.36,-3.06 l 0,-12.68 c 0,0 0,-4.59 0.24,-6 0,0 0.24,-1.4 1.21,-2.65 0,0 1.94,-2.53 5.8,-2.53 0,0 3.62,0 5.81,2.2 0,0 1.22,1.25 1.58,2.75 0,0 0.37,1.5 0.37,5.36 l 0,13.55 -0.14,1.98 c 0,0 -0.05,1.14 -0.37,1.46 0,0 -0.32,0.32 -1.46,0.4 l -1.37,0.09 -0.36,0.03 0,1.22 9.5,0 0,-1.22 -0.39,-0.03 -1.36,-0.09 c 0,0 -1.27,-0.09 -1.61,-0.78 0,0 -0.34,-0.69 -0.34,-3.06 l 0,-12.41 c 0,0 0,-4.13 -0.47,-6.05 0,0 -0.46,-1.92 -1.85,-3.58 0,0 -2.59,-3.14 -8.11,-3.14 0,0 -10.93,0 -10.93,11.83 l 0,13.35 -0.13,1.98 c 0,0 -0.08,1.14 -0.39,1.46 0,0 -0.31,0.32 -1.47,0.4 l -1.34,0.09 -0.38,0.03 z"
     inkscape:connector-curvature="0"><title
       id="title3143">U</title></path><path
     id="path121498-0"
     style="fill:#000000;fill-opacity:1;fill-rule:nonzero;stroke:none"
     d="m 56.148083,239.51491 c 0,0 3.71,-0.61 5.81,-2.71 0,0 2.1,-2.1 2.1,-5.2 0,0 0,-3.76 -2.5,-5.61 0,0 -2.5,-1.84 -7.66,-1.84 l -11.61,0 0,1.23 0.38,0.03 1.34,0.1 c 0,0 1.17,0.08 1.48,0.39 0,0 0.3,0.31 0.38,1.45 l 0.13,1.99 0,19.25 -0.13,1.98 c 0,0 -0.08,1.14 -0.38,1.46 0,0 -0.31,0.32 -1.48,0.4 l -1.34,0.09 -0.38,0.03 0,1.22 12.18,0 c 0,0 4.07,0 6.22,-1.68 0,0 2.15,-1.68 2.15,-4.88 0,0 0,-5.22 -6.69,-7.7 z m -6.01,-0.67 0,-9.5 0.06,-1.75 c 0,0 0,-1.22 0.7,-1.66 0,0 0.69,-0.44 2.66,-0.44 0,0 2.75,0 4.45,1.65 0,0 1.71,1.65 1.71,4.29 0,0 0,7.41 -9.58,7.41 z m 0,1.37 1.23,0 c 0,0 7.16,0 7.16,6.55 0,0 0,3.14 -1.65,4.4 0,0 -1.65,1.27 -5.71,1.27 l -1.03,0 0,-12.22 z"
     inkscape:connector-curvature="0"><title
       id="title3244">B</title></path><path
     id="path121498-8"
     style="fill:#000000;fill-opacity:1;fill-rule:nonzero;stroke:none"
     d="m 445.8538,224.53981 c 0,0 -6.27,0 -9.95,4.21 0,0 -3.68,4.2 -3.68,11.34 0,0 0,7.24 3.71,11.4 0,0 3.7,4.16 10.12,4.16 0,0 6.41,0 10.12,-4.15 0,0 3.71,-4.16 3.71,-11.35 0,0 0,-7.32 -3.72,-11.47 0,0 -3.72,-4.14 -10.31,-4.14 z m 0.06,1.36 c 0,0 4.52,0 7.03,3.75 0,0 2.5,3.74 2.5,10.52 0,0 0,6.61 -2.5,10.37 0,0 -2.51,3.77 -6.89,3.77 0,0 -4.4,0 -6.9,-3.77 0,0 -2.49,-3.78 -2.49,-10.43 0,0 0,-6.63 2.47,-10.42 0,0 2.47,-3.79 6.78,-3.79 z"
     inkscape:connector-curvature="0"><title
       id="title3223">O</title></path><path
     id="path121498-2"
     style="fill:#000000;fill-opacity:1;fill-rule:nonzero;stroke:none"
     d="m 526.09393,238.24481 0,-7.84 0.11,-1.99 c 0,0 0,-1.23 0.4,-1.53 0,0 0.41,-0.3 2.33,-0.41 l 0.38,-0.03 0,-1.23 -11.1,0 0,1.23 0.38,0.03 1.34,0.1 c 0,0 1.17,0.08 1.48,0.39 0,0 0.3,0.31 0.38,1.45 l 0.13,1.99 0,19.25 -0.13,1.98 c 0,0 -0.08,1.14 -0.38,1.46 0,0 -0.31,0.32 -1.48,0.4 l -1.34,0.09 -0.38,0.03 0,1.22 7.13,0 1.97,0.05 1.64,0.06 1.59,0.03 c 0,0 9.19,0 9.19,-7.48 0,0 0,-6.22 -6.13,-8.33 l 5.82,-8.73 1.86,-2.58 c 0,0 0.92,-1.31 2.15,-1.31 0,0 0.28,0 1.35,-0.07 l 0.4,-0.03 0,-1.23 -7.54,0 -8.1,13.03 -3.45,0 z m 0.03,1.36 1.48,0 c 0,0 7.85,0 7.85,7.44 0,0 0,3.51 -1.47,4.98 0,0 -1.47,1.47 -5.02,1.47 l -2.84,0 0,-13.89 z"
     inkscape:connector-curvature="0"><title
       id="title3221">R</title></path><path
     id="path121498-3"
     style="fill:#000000;fill-opacity:1;fill-rule:nonzero;stroke:none"
     d="m 208.71686,223.90238 c 0,0 -5.7,-1.46 -9.63,-1.46 0,0 -6.59,0 -10.49,4.24 0,0 -3.9,4.23 -3.9,11.37 0,0 0,7.39 3.79,11.45 0,0 3.79,4.05 10.7,4.05 0,0 4.95,0 9.47,-1.53 l 0,-5.37 -2.22,0 -0.02,0.39 c 0,0 -0.04,0.54 -0.04,1.14 0,0 0,1.89 -1.85,2.96 0,0 -1.84,1.07 -5.12,1.07 0,0 -4.94,0 -7.6,-3.74 0,0 -2.65,-3.74 -2.65,-10.74 0,0 0,-6.35 2.99,-9.98 0,0 2.99,-3.63 8.23,-3.63 0,0 1.62,0 4.15,0.67 l 0,5.81 c 0,0 0,2.38 -0.36,3.06 0,0 -0.36,0.69 -1.62,0.78 l -1.36,0.11 -0.36,0.02 0,1.22 11.59,0 0,-1.22 -0.36,-0.02 -1.36,-0.11 c 0,0 -1.26,-0.09 -1.62,-0.78 0,0 -0.36,-0.68 -0.36,-3.06 l 0,-6.7 z"
     inkscape:connector-curvature="0"><title
       id="title3242">G</title></path><path
     id="path121498-82"
     style="fill:#000000;fill-opacity:1;fill-rule:nonzero;stroke:none"
     d="m 556.6174,226.21938 0,5.72 2.11,0 0.01,-0.36 c 0,0 0.07,-1.01 0.07,-1.51 0,0 0,-1.64 1.68,-2.68 0,0 1.68,-1.03 4.35,-1.03 0,0 5.62,0 5.62,5.72 0,0 0,2.22 -0.96,3.54 0,0 -0.96,1.32 -3.74,2.88 l -2.11,1.21 c 0,0 -6.8,3.84 -6.8,8.39 0,0 0,3.42 2.45,5.66 0,0 2.44,2.24 6.16,2.24 0,0 3.18,0 7.49,-1.26 l 0,-5.27 -2.24,0 -0.01,0.35 c 0,0 -0.08,1.07 -0.08,1.57 0,0 0,1.69 -1.19,2.48 0,0 -1.19,0.79 -3.78,0.79 0,0 -2.16,0 -3.47,-1.41 0,0 -1.31,-1.42 -1.31,-3.72 0,0 0,-1.96 0.91,-3.25 0,0 0.92,-1.28 3.31,-2.64 l 2.11,-1.2 c 0,0 4.36,-2.48 5.88,-4.32 0,0 1.52,-1.84 1.52,-4.65 0,0 0,-3.67 -2.74,-6.12 0,0 -2.74,-2.46 -6.87,-2.46 0,0 -4.84,0 -8.37,1.33 z"
     inkscape:connector-curvature="0"><title
       id="title3219">S</title></path><path
     id="path121498-65"
     style="fill:#000000;fill-opacity:1;fill-rule:nonzero;stroke:none"
     d="m 265.86895,225.48367 0,-1.23 -11.61,0 0,1.23 0.38,0.03 1.34,0.1 c 0,0 1.17,0.08 1.48,0.39 0,0 0.3,0.31 0.38,1.45 l 0.13,1.99 0,19.25 -0.13,1.98 c 0,0 -0.08,1.14 -0.38,1.46 0,0 -0.31,0.32 -1.48,0.4 l -1.34,0.09 -0.38,0.03 0,1.22 11.61,0 0,-1.22 -0.37,-0.03 -1.36,-0.09 c 0,0 -1.14,-0.08 -1.45,-0.4 0,0 -0.32,-0.32 -0.39,-1.46 l -0.13,-1.98 0,-19.25 0.13,-1.99 c 0,0 0.07,-1.14 0.39,-1.45 0,0 0.31,-0.31 1.45,-0.39 l 1.36,-0.1 0.37,-0.03 z"
     inkscape:connector-curvature="0"><title
       id="title3240">I</title></path><path
     id="path121498-9"
     style="fill:#000000;fill-opacity:1;fill-rule:nonzero;stroke:none"
     d="m 415.97217,224.73024 -18.37,24.83 0,-19.23 c 0,0 0,-2.36 0.36,-3.06 0,0 0.36,-0.69 1.61,-0.77 l 1.37,-0.1 0.36,-0.03 0,-1.23 -9.28,0 0,1.23 0.36,0.03 1.37,0.1 c 0,0 1.25,0.08 1.61,0.77 0,0 0.36,0.7 0.36,3.06 l 0,19.25 c 0,0 0,2.39 -0.36,3.07 0,0 -0.36,0.68 -1.61,0.77 l -1.37,0.09 -0.38,0.03 0,1.22 6.68,0 16.89,-23 0,17.82 -0.13,1.98 c 0,0 -0.08,1.14 -0.4,1.46 0,0 -0.32,0.32 -1.46,0.4 l -1.36,0.09 -0.36,0.03 0,1.22 9.24,0 0,-1.22 -0.39,-0.03 -1.36,-0.09 c 0,0 -1.14,-0.08 -1.46,-0.4 0,0 -0.32,-0.32 -0.39,-1.46 l -0.11,-1.98 0,-24.85 -1.42,0 z"
     inkscape:connector-curvature="0"><title
       id="title3225">N</title></path><path
     id="path121498-85"
     style="fill:#000000;fill-opacity:1;fill-rule:nonzero;stroke:none"
     d="m 600.8916,253.66438 -4.72,0 -2.06,-0.11 c 0,0 -1.06,0 -1.36,-0.28 0,0 -0.31,-0.28 -0.31,-1.28 0,0 0,-1.02 -0.03,-1.75 l -0.02,-0.41 -2.11,0 0,5.42 25.46,0 0,-5.42 -2.11,0 -0.02,0.41 c 0,0 -0.06,0.73 -0.06,1.75 0,0 0,1 -0.29,1.28 0,0 -0.29,0.28 -1.35,0.28 l -2.06,0.11 -4.75,0 0,-22.84 0.12,-1.99 c 0,0 0.08,-1.14 0.39,-1.45 0,0 0.31,-0.31 1.47,-0.39 l 1.36,-0.1 0.86,-0.03 0,-1.23 -12.59,0 0,1.23 0.86,0.03 1.37,0.1 c 0,0 1.14,0.08 1.46,0.39 0,0 0.32,0.31 0.37,1.45 l 0.12,1.99 0,22.84 z"
     inkscape:connector-curvature="0"><title
       id="title3217">T</title></path><path
     id="path121498-1"
     style="fill:#000000;fill-opacity:1;fill-rule:nonzero;stroke:none"
     d="m 29.917484,487.41046 0,2.46 17.770002,0 0,-2.46 -17.770002,0 z"
     inkscape:connector-curvature="0"><title
       id="title3208">-</title></path><path
     id="path121498-95"
     style="fill:#000000;fill-opacity:1;fill-rule:nonzero;stroke:none"
     d="m 352.0284,253.68481 0,1.22 8.49,0 8.89,-21.56 8.72,21.56 7.44,0 0,-1.22 -0.38,-0.03 -1.34,-0.09 c 0,0 -1.16,-0.08 -1.47,-0.4 0,0 -0.31,-0.32 -0.39,-1.46 l -0.13,-1.98 0,-19.25 0.13,-1.99 c 0,0 0.08,-1.14 0.39,-1.45 0,0 0.31,-0.31 1.47,-0.39 l 1.34,-0.1 0.38,-0.03 0,-1.23 -11.29,0 0,1.23 0.36,0.03 1.36,0.1 c 0,0 1.13,0.08 1.45,0.39 0,0 0.32,0.31 0.37,1.45 l 0.12,1.99 0,20.36 -9.33,-23.19 -1.47,0 -9.2,23.5 0,-20.67 0.13,-1.99 c 0,0 0.07,-1.14 0.39,-1.45 0,0 0.31,-0.31 1.45,-0.39 l 1.36,-0.1 0.37,-0.03 0,-1.23 -9.61,0 0,1.23 0.38,0.03 1.34,0.1 c 0,0 1.17,0.08 1.48,0.39 0,0 0.3,0.31 0.38,1.45 l 0.13,1.99 0,19.25 -0.13,1.98 c 0,0 -0.08,1.14 -0.38,1.46 0,0 -0.31,0.32 -1.48,0.4 l -1.34,0.09 -0.38,0.03 z"
     inkscape:connector-curvature="0"><title
       id="title3227">M</title></path><path
     id="path121502"
     style="fill:#000000;fill-opacity:1;fill-rule:nonzero;stroke:none"
     d="m 675.42256,224.39567 -10.16,24.72 -1.16,2.54 c 0,0 -0.4,0.96 -0.75,1.19 0,0 -0.34,0.24 -1.53,0.3 l -0.42,0.03 0,1.22 10.75,0 0,-1.22 -0.44,0 c 0,0 -3.08,0 -3.08,-0.8 0,0 0,-0.29 1.19,-3.26 l 7.67,-18.66 7.21,18.67 c 0,0 1.04,2.74 1.04,3.17 0,0 0,0.85 -1.4,0.85 l -1.5,0.03 -0.44,0 0,1.22 7.64,0 0,-1.22 -0.44,-0.03 c 0,0 -1.67,-0.1 -2.14,-1.27 l -1.12,-2.75 -9.56,-24.73 -1.36,0 z"
     inkscape:connector-curvature="0"><title
       id="title3253">V</title></path><path
     id="path121502-5"
     style="fill:#000000;fill-opacity:1;fill-rule:nonzero;stroke:none"
     d="m 347.84579,224.93023 -21.25,0 0,1.24 0.37,0.03 1.35,0.09 c 0,0 1.17,0.08 1.47,0.39 0,0 0.31,0.32 0.39,1.46 l 0.12,1.98 0,19.25 -0.12,1.99 c 0,0 -0.08,1.14 -0.39,1.46 0,0 -0.3,0.32 -1.47,0.39 l -1.35,0.1 -0.37,0.03 0,1.22 11.61,0 0,-1.22 -0.38,-0.03 -1.36,-0.1 c 0,0 -1.14,-0.07 -1.45,-0.39 0,0 -0.31,-0.32 -0.39,-1.46 l -0.12,-1.99 0,-19.25 c 0,0 0,-2.67 0.39,-3.07 0,0 0.4,-0.4 3.06,-0.4 l 3.01,0 c 0,0 2.83,0 3.73,0.35 0,0 0.9,0.36 0.96,1.43 l 0.06,2.03 0.02,0.4 2.11,0 0,-5.93 z"
     inkscape:connector-curvature="0"><title
       id="title3262">L</title></path><path
     id="path121502-4"
     style="fill:#000000;fill-opacity:1;fill-rule:nonzero;stroke:none"
     d="m 146.31391,223.88152 -21.36,0 0,1.24 0.37,0.03 1.35,0.09 c 0,0 1.17,0.08 1.47,0.39 0,0 0.31,0.32 0.39,1.46 l 0.12,1.98 0,19.25 -0.12,1.99 c 0,0 -0.08,1.14 -0.39,1.46 0,0 -0.3,0.32 -1.47,0.39 l -1.35,0.1 -0.37,0.03 0,1.22 20.27,0 0,-5.19 -2.22,0 -0.05,0.39 -0.09,1.67 c 0,0 0,0.97 -0.25,1.24 0,0 -0.25,0.26 -1.22,0.26 l -2.07,0.03 -6.46,0 0,-11.85 5.42,0.03 1.26,0.03 c 0,0 0.89,0 1.12,0.19 0,0 0.23,0.18 0.27,0.93 0,0 0.02,0.3 0.05,0.92 l 0.03,0.36 1.6,0 0,-6.53 -1.6,0 -0.03,0.36 c 0,0 -0.09,1.53 -0.46,1.82 0,0 -0.37,0.29 -2.24,0.29 l -5.42,0 0,-9.39 c 0,0 0,-2.33 0.55,-2.9 0,0 0.56,-0.57 2.85,-0.57 l 3.16,0 2.83,0.13 c 0,0 1.65,0 1.76,1.4 l 0.06,1.82 0.02,0.36 2.22,0 0,-5.43 z"
     inkscape:connector-curvature="0"><title
       id="title3271">E</title></path><path
     id="path121502-3"
     style="fill:#000000;fill-opacity:1;fill-rule:nonzero;stroke:none"
     d="m 226.46905,238.41152 0,-9.34 0.12,-1.98 c 0,0 0.08,-1.14 0.39,-1.46 0,0 0.31,-0.31 1.45,-0.39 l 1.36,-0.09 0.38,-0.03 0,-1.24 -11.61,0 0,1.24 0.37,0.03 1.35,0.09 c 0,0 1.17,0.08 1.47,0.39 0,0 0.31,0.32 0.39,1.46 l 0.12,1.98 0,19.25 -0.12,1.99 c 0,0 -0.08,1.14 -0.39,1.46 0,0 -0.3,0.32 -1.47,0.39 l -1.35,0.1 -0.37,0.03 0,1.22 11.61,0 0,-1.22 -0.38,-0.03 -1.36,-0.1 c 0,0 -1.14,-0.07 -1.45,-0.39 0,0 -0.31,-0.32 -0.39,-1.46 l -0.12,-1.99 0,-8.19 14.09,0 0,8.19 -0.11,1.99 c 0,0 -0.09,1.14 -0.4,1.46 0,0 -0.3,0.32 -1.47,0.39 l -1.36,0.1 -0.36,0.03 0,1.22 11.61,0 0,-1.22 -0.38,-0.03 -1.36,-0.1 c 0,0 -1.14,-0.07 -1.46,-0.39 0,0 -0.32,-0.32 -0.38,-1.46 l -0.13,-1.99 0,-19.25 0.13,-1.98 c 0,0 0.06,-1.14 0.38,-1.46 0,0 0.32,-0.31 1.46,-0.39 l 1.36,-0.09 0.38,-0.03 0,-1.24 -11.61,0 0,1.24 0.36,0.03 1.36,0.09 c 0,0 1.26,0.08 1.62,0.78 0,0 0.36,0.69 0.36,3.05 l 0,9.34 -14.09,0 z"
     inkscape:connector-curvature="0"><title
       id="title3280">H</title></path><path
     id="path133436"
     style="fill:#000000;fill-opacity:1;fill-rule:nonzero;stroke:none"
     d="m 92.697378,224.15019 0,1.23 0.37,0.03 1.35,0.1 c 0,0 1.17,0.08 1.47,0.39 0,0 0.31,0.31 0.39,1.45 l 0.12,1.99 0,19.25 -0.12,1.98 c 0,0 -0.08,1.14 -0.39,1.46 0,0 -0.3,0.32 -1.47,0.4 l -1.35,0.09 -0.37,0.03 0,1.22 9.479992,0 1.68,0.03 1.43,0.05 1.44,0.03 c 0,0 6.97,0 10.68,-3.68 0,0 3.71,-3.69 3.71,-10.6 0,0 0,-7.17 -3.82,-11.31 0,0 -3.82,-4.14 -10.4,-4.14 l -14.199992,0 z m 7.909992,28.28 0,-23.09 0.07,-1.57 c 0,0 0,-1.28 1.02,-1.77 0,0 1.02,-0.49 3.66,-0.49 0,0 11.32,0 11.32,13.47 0,0 0,7.14 -3.03,10.29 0,0 -3.03,3.16 -9.87,3.16 l -3.17,0 z"
     inkscape:connector-curvature="0"><title
       id="title3289">D</title></path><path
     id="path133436-7"
     style="fill:#000000;fill-opacity:1;fill-rule:nonzero;stroke:none"
     d="m 88.533661,225.16223 c 0,0 -4.03,-2.32 -9.39,-2.32 0,0 -6.81,0 -10.74,4.18 0,0 -3.93,4.18 -3.93,11.43 0,0 0,7.35 3.78,11.43 0,0 3.78,4.07 10.61,4.07 0,0 3.45,0 8.39,-1.28 l 0.75,-0.2 0,-5.67 -2.45,0 -0.03,0.4 c 0,0 -0.03,0.6 -0.03,1.18 0,0 0,1.96 -1.83,3.1 0,0 -1.82,1.13 -4.96,1.13 0,0 -4.51,0 -7.19,-3.84 0,0 -2.68,-3.85 -2.68,-10.27 0,0 0,-6.45 3.14,-10.07 0,0 3.14,-3.62 8.75,-3.62 0,0 3.66,0 7.81,2.27 l 0,-1.92 z"
     inkscape:connector-curvature="0"><title
       id="title3298">C</title></path><path
     id="path133436-5"
     style="fill:#000000;fill-opacity:1;fill-rule:nonzero;stroke:none"
     d="m 472.56835,237.23674 0,-7.17 0.11,-1.99 c 0,0 0.08,-1.14 0.39,-1.45 0,0 0.32,-0.31 1.47,-0.39 l 1.38,-0.1 0.86,-0.03 0,-1.23 -12.08,0 0,1.23 0.37,0.03 1.35,0.1 c 0,0 1.17,0.08 1.47,0.39 0,0 0.31,0.31 0.39,1.45 l 0.12,1.99 0,19.25 -0.12,1.98 c 0,0 -0.08,1.14 -0.39,1.46 0,0 -0.3,0.32 -1.47,0.4 l -1.35,0.09 -0.37,0.03 0,1.22 8.81,0 2.92,0.11 1.38,0.03 c 0,0 8.66,0 8.66,-7.84 0,0 0,-9.56 -12.65,-9.56 l -1.25,0 z m 0,1.36 1.5,0 c 0,0 7.94,0 7.94,8.14 0,0 0,3.47 -1.51,4.94 0,0 -1.5,1.48 -5.05,1.48 l -2.88,0 0,-14.56 z"
     inkscape:connector-curvature="0"><title
       id="title3307">P</title></path><path
     id="path133446"
     style="fill:#000000;fill-opacity:1;fill-rule:nonzero;stroke:none"
     d="m 265.71564,217.92242 0,4.61 2.35,0 0.03,-0.48 0.08,-0.94 c 0,0 0.15,-2.08 2.5,-2.08 0,0 1.51,0 2.5,1.28 0,0 0.98,1.28 0.98,3.28 l -0.01,2.83 0,21.47 -0.13,1.99 c 0,0 -0.08,1.14 -0.39,1.46 0,0 -0.31,0.32 -1.45,0.4 l -1.36,0.09 -0.39,0.03 0,1.22 11.62,0 0,-1.22 -0.39,-0.03 -1.34,-0.09 c 0,0 -1.16,-0.08 -1.47,-0.4 0,0 -0.31,-0.32 -0.39,-1.46 l -0.11,-1.99 0,-19.03 c 0,0 0,-6.2 -2.09,-8.77 0,0 -2.1,-2.56 -7.14,-2.56 0,0 -1.57,0 -3.4,0.39 z"
     inkscape:connector-curvature="0"><title
       id="title3316">J</title></path><path
     id="path133440"
     style="fill:#000000;fill-opacity:1;fill-rule:nonzero;stroke:none"
     d="m 746.33524,240.0311 -5.9,9.88 -1.42,2.29 c 0,0 -0.86,1.52 -2.08,1.57 l -1.02,0.04 -0.4,0.03 0,1.22 11.46,0 0,-1.22 -0.36,0 -1.29,-0.01 c 0,0 -1.63,0 -1.63,-0.55 0,0 0,-0.5 1.71,-3.36 l 4.29,-7.28 5.03,7.28 c 0,0 1.93,2.78 1.93,3.41 0,0 0,0.48 -1.3,0.48 l -0.97,0.03 -0.36,0 0,1.22 7.41,0 0,-1.22 -0.46,-0.03 c 0,0 -1.62,-0.09 -2.42,-1.2 l -1.98,-2.69 -5.78,-8.18 6.45,-11.07999 1.77,-2.85 c 0,0 0.57,-1 1.39,-1.04 l 1.14,-0.07 0.39,-0.03 0,-1.23 -11.11,0 0,1.23 0.33,0 1.21,0.03 c 0,0 1.74,0 1.74,0.68 0,0 0,0.4 -1.67,3.26 l -4.92,8.32999 -5.74,-8.30999 c 0,0 -1.87,-2.75 -1.87,-3.32 0,0 0,-0.64 1.57,-0.64 l 1.24,-0.03 0.44,0 0,-1.23 -8.14,0 0,1.23 0.26,0.03 0.92,0.07 c 0,0 1.24,0.07 2.22,1.56 l 1.63,2.33 6.29,9.36999 z"
     inkscape:connector-curvature="0"><title
       id="title3325">X</title></path><flowRoot
     xml:space="preserve"
     id="flowRoot3358"
     style="fill:black;stroke:none;stroke-opacity:1;stroke-width:1px;stroke-linejoin:miter;stroke-linecap:butt;fill-opacity:1;font-family:Sans;font-style:normal;font-weight:normal;font-size:10px;line-height:125%;letter-spacing:0px;word-spacing:0px"><flowRegion
       id="flowRegion3360"><rect
         id="rect3362"
         width="17.303812"
         height="16.779453"
         x="779.02106"
         y="229.25807" /></flowRegion><flowPara
       id="flowPara3364" /></flowRoot><path
     id="path29836"
     style="fill:#000000;fill-opacity:1;fill-rule:nonzero;stroke:none"
     d="m 69.65396,497.18834 -1.86,10.87 4.94,0 -1.86,-10.87 -1.22,0 z"
     inkscape:connector-curvature="0"><title
       id="title3373">'</title></path><path
     id="path56854"
     style="fill:#000000;fill-opacity:1;fill-rule:nonzero;stroke:none"
     d="m 506.14754,224.93342 c 0,0 4.75,-2.76 14.75,-3.5 l -4.98,-2.48 c 0,0 -5.07,1.5 -10.75,4.98 l -0.82,0.5 c 0,0 -1.5,-0.25 -2.9,-0.25 0,0 -6.42,0 -10.13,4.18 0,0 -3.7,4.17 -3.7,11.37 0,0 0,7.24 3.7,11.4 0,0 3.71,4.16 10.14,4.16 0,0 6.41,0 10.14,-4.15 0,0 3.72,-4.14 3.72,-11.28 0,0 0,-11.8 -9.17,-14.93 z m 4.7,14.6 c 0,0 0,6.87 -2.46,10.65 0,0 -2.46,3.77 -6.94,3.77 0,0 -4.42,0 -6.9,-3.76 0,0 -2.48,-3.76 -2.48,-10.46 0,0 0,-6.7 2.48,-10.44 0,0 2.48,-3.75 6.91,-3.75 0,0 4.39,0 6.89,3.74 0,0 2.5,3.73 2.5,10.25 z"
     inkscape:connector-curvature="0"><title
       id="title3154">Q</title></path><path
     id="path56858"
     style="fill:#000000;fill-opacity:1;fill-rule:nonzero;stroke:none"
     d="m 800.88018,224.20516 0,1.61 15.89,26.42 -9,0 -2.19,-0.08 c 0,0 -1.09,0 -1.4,-0.26 0,0 -0.3,-0.27 -0.3,-1.22 0,0 0,-0.78 -0.07,-2.27 l -0.03,-0.5 -2.22,0 0,5.92 19.94,0 0,-1.34 -15.84,-26.42 8.97,0 3.32,0.12 c 0,0 1.29,0 1.35,1.32 l 0.08,2.01 0.01,0.38 2.25,0 0,-5.69 -20.76,0 z"
     inkscape:connector-curvature="0"><title
       id="title3163">Z</title></path><path
     id="path95412"
     style="fill:#000000;fill-opacity:1;fill-rule:nonzero;stroke:none"
     d="m 777.9535,237.46875 -6.76,11.19 -1.56,2.53 c 0,0 -0.8,1.4 -1.72,1.47 l -1.16,0.04 -0.41,0.03 0,1.22 11.49,0 0,-1.22 -0.39,0 -1.41,-0.03 c 0,0 -1.48,0 -1.48,-0.64 0,0 0,-0.62 1.64,-3.4 l 5.55,-9.36 5.79,9.33 c 0,0 1.72,2.79 1.72,3.48 0,0 0,0.59 -1.67,0.59 l -1.11,0.03 -0.36,0 0,1.22 8.02,0 0,-1.22 -0.38,-0.03 -1.09,-0.06 c 0,0 -1.13,-0.08 -1.78,-1.14 l -1.82,-2.84 -6.9,-11.19 0,-7.95 c 0,0 0,-2.36 0.35,-3.06 0,0 0.35,-0.69 1.62,-0.77 l 1.36,-0.1 0.37,-0.03 0,-1.23 -11.61,0 0,1.23 0.36,0.03 1.36,0.1 c 0,0 1.27,0.08 1.62,0.77 0,0 0.36,0.7 0.36,3.06 l 0,7.95 z"
     inkscape:connector-curvature="0"><title
       id="title3181">Y</title></path><path
     id="path53426"
     style="fill:#000000;fill-opacity:1;fill-rule:nonzero;stroke:none"
     d="m 26.034121,281.36607 c 0,0 -3.53,-3.49 -6.97,-3.49 0,0 -2.76,0 -4.61,1.75 0,0 -1.84,1.75 -1.84,4.39 0,0 0,7.22 11.69,7.22 l 0.83,0 0,2.7 c 0,0 0,5.15 -3.91,5.15 0,0 -3.88,0 -4.27,-3.91 l -0.01,-0.38 -2.69,0 0,3.99 c 0,0 4.17,1.81 7.69,1.81 0,0 7.12,0 7.12,-6.5 l 0,-9.69 c 0,0 0,-4.73 2.03,-4.73 0,0 0.38,0 1.07,0.19 l 0.11,-1.49 c 0,0 -1.43,-0.5 -2.57,-0.5 0,0 -2.89,0 -3.67,3.49 z m -0.9,0.43 0,8.19 -0.93,0 c 0,0 -7.4,0 -7.4,-5.4 0,0 0,-1.88 1.21,-3.12 0,0 1.21,-1.24 3.04,-1.24 0,0 1.73,0 4.08,1.57 z"
     inkscape:connector-curvature="0"><title
       id="title3190">a</title></path><path
     id="path53426-0"
     style="fill:#000000;fill-opacity:1;fill-rule:nonzero;stroke:none"
     d="m 560.88357,295.21037 0,5.51 2.22,0 0.05,-0.37 0.15,-2.08 c 0,0 0.14,-1.55 1.6,-2.5 0,0 1.47,-0.95 3.68,-0.95 0,0 1.83,0 2.98,1.09 0,0 1.15,1.09 1.15,2.81 0,0 0,2.74 -3.5,4.07 l -2.02,0.78 c 0,0 -6.18,2.39 -6.18,6.65 0,0 0,2.64 2.11,4.36 0,0 2.11,1.72 5.37,1.72 0,0 3.19,0 6.59,-1.22 l 0,-5.19 -2.23,0 0,0.36 -0.17,1.83 c 0,0 -0.28,3 -3.92,3 0,0 -1.75,0 -2.9,-1.11 0,0 -1.15,-1.11 -1.15,-2.81 0,0 0,-1.41 0.93,-2.26 0,0 0.93,-0.85 3.73,-1.99 l 1.84,-0.75 c 0,0 3.03,-1.25 4.22,-2.58 0,0 1.19,-1.33 1.19,-3.44 0,0 0,-2.87 -2.31,-4.71 0,0 -2.3,-1.85 -5.94,-1.85 0,0 -3.99,0 -7.49,1.63 z"
     inkscape:connector-curvature="0"><title
       id="title3199">s</title></path><path
     id="path53424"
     style="fill:#000000;fill-opacity:1;fill-rule:nonzero;stroke:none"
     d="m 446.62296,284.31672 c 0,0 -4.72,0 -7.48,3.07 0,0 -2.76,3.07 -2.76,8.3 0,0 0,5.27 2.79,8.31 0,0 2.78,3.04 7.59,3.04 0,0 4.8,0 7.58,-3.04 0,0 2.78,-3.04 2.78,-8.28 0,0 0,-5.34 -2.79,-8.37 0,0 -2.79,-3.03 -7.71,-3.03 z m 0.05,1.23 c 0,0 2.75,0 4.5,2.87 0,0 1.76,2.87 1.76,7.3 0,0 0,4.32 -1.76,7.21 0,0 -1.77,2.89 -4.41,2.89 0,0 -2.66,0 -4.41,-2.89 0,0 -1.76,-2.89 -1.76,-7.24 0,0 0,-4.33 1.74,-7.23 0,0 1.74,-2.91 4.34,-2.91 z"
     inkscape:connector-curvature="0"><title
       id="title3209">o</title></path><path
     id="path53424-2"
     style="fill:#000000;fill-opacity:1;fill-rule:nonzero;stroke:none"
     d="m 646.04496,292.05316 0,4.08 c 0,0 -3,-4.58 -7.83,-4.58 0,0 -2.79,0 -4.4,1.85 0,0 -1.6,1.85 -1.6,5.07 l 0,10.14 -0.12,1.95 c 0,0 -0.08,1.14 -0.38,1.46 0,0 -0.31,0.32 -1.48,0.4 l -1.34,0.11 -0.38,0.02 0,1.23 7.64,0 0,-14.69 c 0,0 0,-5 3.58,-5 0,0 3.25,0 6.31,3.36 l 0,11.16 -0.11,1.95 c 0,0 -0.08,1.16 -0.39,1.47 0,0 -0.31,0.31 -1.47,0.39 l -1.37,0.11 -0.36,0.02 0,1.23 7.65,0 0,-16.55 0.15,-1.98 c 0,0 0.06,-1.14 0.38,-1.45 0,0 0.32,-0.32 1.46,-0.39 l 1.36,-0.1 0.37,-0.03 0,-1.23 -7.67,0 z"
     inkscape:connector-curvature="0"><title
       id="title3218">u</title></path><path
     id="path53424-26"
     style="fill:#000000;fill-opacity:1;fill-rule:nonzero;stroke:none"
     d="m 736.38441,291.10401 0,1.23 0.33,0.03 c 0,0 1.09,0.08 2.25,1.39 l 2.18,2.49 4.55,5.39 -4.61,5.97 -1.95,2.42 c 0,0 -1.19,1.45 -2.5,1.56 l -0.38,0.02 0,1.23 9.86,0 0,-1.23 -0.4,0 -0.82,-0.05 c 0,0 -1.36,0 -1.36,-0.58 0,0 0,-0.37 2.24,-3.37 l 3.11,-4.19 3,4.11 c 0,0 1.98,2.73 1.98,3.34 0,0 0,0.72 -1.12,0.72 l -0.74,0.02 -0.47,0 0,1.23 6.93,0 0,-1.23 -0.39,-0.02 c 0,0 -1.33,-0.08 -2.43,-1.56 l -1.92,-2.42 -4.04,-5.19 4.71,-6.14 c 0,0 2.91,-3.8 4.49,-3.91 l 0.33,-0.03 0,-1.23 -9.89,0 0,1.23 0.36,0 0.92,0.03 c 0,0 1.48,0 1.48,0.52 0,0 0,0.4 -2.28,3.36 l -3.39,4.39 -3.38,-4.39 c 0,0 -2.31,-3 -2.31,-3.28 0,0 0,-0.6 1.49,-0.6 l 0.78,-0.03 0.45,0 0,-1.23 -7.06,0 z"
     inkscape:connector-curvature="0"><title
       id="title3228">x</title></path><path
     id="path87622"
     style="fill:#000000;fill-opacity:1;fill-rule:nonzero;stroke:none"
     d="m 704.61135,225.09478 -6.33,24.7 -0.72,2.64 c 0,0 -0.33,1.38 -1.44,1.38 l -1.18,0.03 -0.43,0.03 0,1.22 10.61,0 0,-1.22 -0.37,0 -1.08,-0.03 c 0,0 -1.91,0 -1.91,-1.06 0,0 0,-0.69 0.58,-2.99 l 4.39,-17.23 6.82,22.17 1.4,0 6.83,-22.8 5.13,17.83 c 0,0 0.85,2.97 0.85,3.39 0,0 0,0.69 -1.73,0.69 l -1.39,0.03 -0.36,0 0,1.22 8.16,0 0,-1.22 -0.36,-0.03 -1.21,-0.05 c 0,0 -1.2,-0.06 -1.57,-1.26 l -0.88,-2.74 -7.23,-24.7 -1.35,0 -6.98,22.8 -6.88,-22.8 -1.37,0 z"
     inkscape:connector-curvature="0"><title
       id="title3237">W</title></path><path
     id="path87610"
     style="fill:#000000;fill-opacity:1;fill-rule:nonzero;stroke:none"
     d="m 297.61,238.67579 0,-9.78 0.11,-1.98 c 0,0 0,-1.24 0.41,-1.53 0,0 0.4,-0.3 2.32,-0.41 l 0.36,-0.03 0,-1.24 -11.11,0 0,1.24 0.38,0.03 1.34,0.09 c 0,0 1.17,0.08 1.48,0.39 0,0 0.3,0.32 0.38,1.46 l 0.13,1.98 0,19.25 -0.13,1.99 c 0,0 -0.08,1.14 -0.38,1.46 0,0 -0.31,0.32 -1.48,0.39 l -1.34,0.1 -0.38,0.03 0,1.22 11.61,0 0,-1.22 -0.37,-0.03 -1.36,-0.1 c 0,0 -1.14,-0.07 -1.45,-0.39 0,0 -0.32,-0.32 -0.39,-1.46 l -0.13,-1.99 0,-9.34 8.97,9.34 c 0,0 2.97,3.11 2.97,3.56 0,0 0,0.38 -1.13,0.38 l -1.79,0.03 -0.36,0 0,1.22 9.12,0 0,-1.22 -0.34,-0.03 -1.22,-0.03 c 0,0 -1,0 -1.84,-0.63 0,0 -0.85,-0.62 -3.47,-3.29 l -7.57,-7.71 10.38,-11.54 2.08,-2.18 c 0,0 1.11,-1.14 1.66,-1.39 0,0 0.56,-0.25 2.38,-0.34 l 0.43,-0.03 0,-1.24 -12.11,0 0,1.24 0.36,0 c 0,0 2.48,0 2.48,0.48 0,0 0,0.69 -2.48,3.53 l -8.52,9.72 z"
     inkscape:connector-curvature="0"><title
       id="title3246">K</title></path><path
     id="path46402"
     style="fill:#000000;fill-opacity:1;fill-rule:nonzero;stroke:none"
     d="m 529.4013,308.41687 0,-10.62 c 0,0 0,-2.36 0.36,-3.06 0,0 0.36,-0.69 1.62,-0.77 l 1.36,-0.1 0.86,-0.03 0,-1.23 -11.86,0 0,1.23 0.39,0.03 1.35,0.1 c 0,0 1.15,0.08 1.47,0.39 0,0 0.31,0.31 0.39,1.45 l 0.11,1.99 0,11.37 -0.11,1.95 c 0,0 -0.08,1.14 -0.39,1.46 0,0 -0.32,0.33 -1.47,0.4 l -1.35,0.11 -0.39,0.02 0,1.23 7.66,0 0,-4.08 c 0,0 2.7,4.57 7.06,4.57 0,0 0.61,0 1.35,-0.22 l 0,-5.94 -2.22,0 -0.05,0.36 -0.17,1.5 c 0,0 -0.11,1.06 -1.09,1.06 0,0 -2.97,0 -4.88,-3.17 z"
     inkscape:connector-curvature="0"><title
       id="title3255">r</title></path><path
     id="path46402-1"
     style="fill:#000000;fill-opacity:1;fill-rule:nonzero;stroke:none"
     d="m 405.46247,300.46886 c 0,0 3,4.57 7.84,4.57 0,0 2.8,0 4.39,-1.85 0,0 1.6,-1.84 1.6,-5.06 l 0,-10.12 0.14,-1.99 c 0,0 0.06,-1.14 0.38,-1.45 0,0 0.32,-0.31 1.46,-0.39 l 1.36,-0.1 0.36,-0.03 0,-1.23 -11.34,0 0,1.23 0.36,0.03 1.36,0.1 c 0,0 1.14,0.08 1.46,0.39 0,0 0.32,0.31 0.4,1.45 l 0.12,1.99 0,9.5 c 0,0 0,2.81 -0.73,3.89 0,0 -0.74,1.09 -2.6,1.09 0,0 -2.68,0 -6.56,-3.33 l 0,-11.15 c 0,0 0,-2.36 0.36,-3.06 0,0 0.36,-0.69 1.62,-0.77 l 1.36,-0.1 0.38,-0.03 0,-1.23 -11.38,0 0,1.23 0.39,0.03 1.35,0.1 c 0,0 1.15,0.08 1.47,0.39 0,0 0.31,0.31 0.39,1.45 l 0.11,1.99 0,11.37 -0.11,1.95 c 0,0 -0.08,1.14 -0.39,1.46 0,0 -0.32,0.33 -1.47,0.4 l -1.35,0.11 -0.39,0.02 0,1.23 7.66,0 0,-4.08 z"
     inkscape:connector-curvature="0"><title
       id="title3264">n</title></path><path
     id="path46402-13"
     style="fill:#000000;fill-opacity:1;fill-rule:nonzero;stroke:none"
     d="m 108.17244,274.87814 0,4.08 c 0,0 -2.89,-4.58 -7.62,-4.58 0,0 -3.679998,0 -5.859998,2.91 0,0 -2.19,2.92 -2.19,7.82 0,0 0,5.44 2.51,8.71 0,0 2.5,3.28 6.639998,3.28 0,0 3.8,0 6.52,-2.96 l 0,7.16 c 0,0 0,2.36 -0.34,3.05 0,0 -0.35,0.7 -1.61,0.78 l -1.36,0.09 -0.39,0.03 0,1.24 7.67,0 0,-26.42 c 0,0 0,-2.36 0.35,-3.06 0,0 0.35,-0.69 1.63,-0.77 l 1.35,-0.1 0.37,-0.03 0,-1.23 -7.67,0 z m 0,17.72 c 0,0 -3.08,2.29 -6,2.29 0,0 -5.479998,0 -5.479998,-8.7 0,0 0,-9.25 5.319998,-9.25 0,0 1.64,0 3.4,0.97 0,0 1.76,0.97 2.76,2.44 l 0,12.25 z"
     inkscape:connector-curvature="0"><title
       id="title3273">d</title></path><path
     id="path46402-0"
     style="fill:#000000;fill-opacity:1;fill-rule:nonzero;stroke:none"
     d="m 143.05563,279.854 c 0,0 -3.76,-1.48 -6.87,-1.48 0,0 -4.78,0 -7.77,3.22 0,0 -3,3.23 -3,8.37 0,0 0,4.91 2.68,8.02 0,0 2.68,3.11 6.89,3.11 0,0 3.9,0 5.99,-2.62 0,0 2.08,-2.62 2.08,-7.49 l 0,-0.38 -13.28,0 c 0,0 0,-10.23 7.03,-10.23 0,0 3.66,0 6.25,1.5 l 0,-2.02 z m -13.2,11.99 9.02,0 0.01,0.89 c 0,0 0,7.14 -4.15,7.14 0,0 -2.25,0 -3.57,-2.18 0,0 -1.31,-2.18 -1.31,-5.85 z"
     inkscape:connector-curvature="0"><title
       id="title3282">e</title></path><path
     id="path46402-5"
     style="fill:#000000;fill-opacity:1;fill-rule:nonzero;stroke:none"
     d="m 608.0729,284.45958 c 0,0 -1.5,-0.62 -2.86,-0.62 0,0 -3.47,0 -5.06,1.74 0,0 -1.6,1.74 -1.6,5.54 l 0,13.34 -3.2,0 0,1.61 3.2,0 0,3.96 3.97,0.98 0,-4.94 6.05,0 0,-1.61 -6.05,0 0,-13.86 c 0,0 0,-3.01 0.68,-4.09 0,0 0.68,-1.08 2.59,-1.08 0,0 0.93,0 2.28,0.63 l 0,-1.6 z"
     inkscape:connector-curvature="0"><title
       id="title3291">t</title></path><path
     id="path124906"
     style="fill:#000000;fill-opacity:1;fill-rule:nonzero;stroke:none"
     d="m 259.60453,290.01713 0,-16.55 c 0,0 0,-2.36 0.36,-3.05 0,0 0.36,-0.7 1.63,-0.78 l 1.35,-0.09 0.38,-0.03 0,-1.24 -11.38,0 0,1.24 0.4,0.03 1.34,0.09 c 0,0 1.16,0.08 1.47,0.39 0,0 0.31,0.32 0.39,1.46 l 0.11,1.98 0,11.38 -0.11,1.95 c 0,0 -0.08,1.14 -0.39,1.46 0,0 -0.31,0.32 -1.47,0.4 l -1.34,0.11 -0.4,0.01 0,1.24 7.66,0 z m -3.95,3.95 0,3.94 3.95,0 0,-3.94 -3.95,0 z"
     inkscape:connector-curvature="0"><title
       id="title3300">i</title></path><path
     id="path124906-9"
     style="fill:#000000;fill-opacity:1;fill-rule:nonzero;stroke:none"
     d="m 334.48579,298.89713 0,-26.42 c 0,0 0,-2.36 0.36,-3.05 0,0 0.36,-0.7 1.63,-0.78 l 1.35,-0.09 0.38,-0.03 0,-1.24 -11.38,0 0,1.24 0.4,0.03 1.34,0.09 c 0,0 1.16,0.08 1.47,0.39 0,0 0.31,0.32 0.39,1.46 l 0.11,1.98 0,21.24 -0.11,1.98 c 0,0 -0.08,1.14 -0.39,1.45 0,0 -0.31,0.32 -1.47,0.39 l -1.34,0.1 -0.4,0.03 0,1.23 7.66,0 z"
     inkscape:connector-curvature="0"><title
       id="title3309">e</title></path><path
     id="path27984"
     style="fill:#000000;fill-opacity:1;fill-rule:nonzero;stroke:none"
     d="m 262.69645,316.85064 0,-1.23 -11.61,0 0,1.23 0.37,0.03 1.35,0.1 c 0,0 1.17,0.08 1.47,0.39 0,0 0.31,0.31 0.39,1.45 l 0.12,1.99 0,19.25 -0.12,1.98 c 0,0 -0.08,1.14 -0.39,1.46 0,0 -0.3,0.32 -1.47,0.4 l -1.35,0.09 -0.37,0.04 0,1.21 11.61,0 0,-1.21 -0.38,-0.04 -1.36,-0.09 c 0,0 -1.14,-0.08 -1.45,-0.4 0,0 -0.31,-0.32 -0.39,-1.46 l -0.12,-1.98 0,-19.25 0.12,-1.99 c 0,0 0.08,-1.14 0.39,-1.45 0,0 0.31,-0.31 1.45,-0.39 l 1.36,-0.1 0.38,-0.03 z m -12.16,30.46 4.81,6.42 4.46,0 4.79,-6.42 -1.71,0 -5.3,4.43 -5.33,-4.43 -1.72,0 z"
     inkscape:connector-curvature="0"><title
       id="title3318">Î</title></path><path
     id="path18108"
     style="fill:#000000;fill-opacity:1;fill-rule:nonzero;stroke:none"
     d="m 770.15744,282.77792 7.13,7.9 -6.85,16.47 c 0,0 -1.09,2.66 -1.6,3.3 0,0 -0.52,0.65 -1.6,0.72 l -0.4,0.01 0,1.24 9.93,0 0,-1.24 -0.42,0 -1.31,-0.01 c 0,0 -1.42,0 -1.42,-0.75 0,0 0,-0.25 0.12,-0.6 l 1.02,-2.67 4.87,-11.66 5.19,11.72 c 0,0 1.14,2.6 1.14,3.14 0,0 0,0.82 -1.47,0.82 l -0.95,0.01 -0.55,0 0,1.24 6.45,0 0,-1.24 -0.39,-0.01 c 0,0 -1.23,-0.08 -2.12,-2.27 0,0 -0.16,-0.37 -0.75,-1.72 l -11.03,-24.4 -4.99,0 z"
     inkscape:connector-curvature="0"><title
       id="title3192">y</title></path><path
     id="path123558"
     style="fill:#000000;fill-opacity:1;fill-rule:nonzero;stroke:none"
     d="m 42.147506,537.4171 0,1.99 c 0,0 1.7,4.97 5.34,8.36 l 2.13,1.97 c 0,0 3.68,3.43 4.9,5.46 0,0 1.22,2.02 1.22,4.66 0,0 0,3.03 -1.49,4.85 0,0 -1.49,1.82 -3.96,1.82 0,0 -2.72,0 -4.58,-1.47 0,0 -0.72,-0.54 -0.91,-3.98 l -0.01,-0.47 -1.99,0 0,5.38 c 0,0 4.32,1.82 7.96,1.82 0,0 4.01,0 6.59,-2.25 0,0 2.58,-2.25 2.58,-5.73 0,0 0,-4.67 -5.81,-8.67 l -2.41,-1.66 c 0,0 -5.78,-3.97 -6.31,-8.61 l 14.4,0 0,-3.47 -17.65,0 z"
     inkscape:connector-curvature="0"><title
       id="title3201">2</title></path><path
     id="path123556"
     style="fill:#000000;fill-opacity:1;fill-rule:nonzero;stroke:none"
     d="m 24.337606,566.15882 0,-24.70001 0.13,-1.99 c 0,0 0.08,-1.2 0.69,-1.57 0,0 0.61,-0.36999 2.53,-0.36999 l 2.34,-0.03 0,-1.23 -15.31,0 0,1.23 2.34,0.03 c 0,0 1.89,0 2.52,0.36999 0,0 0.62,0.37 0.7,1.57 l 0.13,1.99 0,18.37001 -0.13,2.02 c 0,0 0,1.42 -0.84,1.42 0,0 -0.6,0 -2.74,-0.39 l -1.98,-0.36 0,1.23 9.62,2.41 z"
     inkscape:connector-curvature="0"><title
       id="title3210">1</title></path><path
     id="path50780"
     style="fill:#000000;fill-opacity:1;fill-rule:nonzero;stroke:none"
     d="m 227.35556,286.68498 c 0,0 3,4.57 7.84,4.57 0,0 2.8,0 4.4,-1.85 0,0 1.59,-1.84 1.59,-5.06 l 0,-10.12 0.14,-1.99 c 0,0 0.06,-1.14 0.38,-1.45 0,0 0.32,-0.31 1.46,-0.39 l 1.36,-0.1 0.36,-0.03 0,-1.23 -11.34,0 0,1.23 0.36,0.03 1.36,0.1 c 0,0 1.14,0.08 1.46,0.39 0,0 0.32,0.31 0.4,1.45 l 0.12,1.99 0,9.5 c 0,0 0,2.81 -0.73,3.89 0,0 -0.74,1.09 -2.6,1.09 0,0 -2.68,0 -6.56,-3.33 l 0,-11.15 c 0,0 0,-2.36 0.36,-3.06 0,0 0.36,-0.69 1.63,-0.77 l 1.35,-0.1 0.38,-0.03 0,-1.23 -11.38,0 0,1.23 0.4,0.03 1.34,0.1 c 0,0 1.16,0.08 1.47,0.39 0,0 0.31,0.31 0.39,1.45 l 0.11,1.99 0,21.23 -0.11,1.98 c 0,0 -0.08,1.15 -0.39,1.46 0,0 -0.31,0.31 -1.47,0.39 l -1.34,0.09 -0.4,0.03 0,1.24 7.66,0 0,-13.96 z"
     inkscape:connector-curvature="0"><title
       id="title3220">h</title></path><path
     id="path50796"
     style="fill:#000000;fill-opacity:1;fill-rule:nonzero;stroke:none"
     d="m 146.13722,314.63188 -21.36,0 0,1.24 0.37,0.03 1.35,0.09 c 0,0 1.17,0.08 1.47,0.39 0,0 0.31,0.32 0.39,1.46 l 0.12,1.98 0,19.25 -0.12,1.99 c 0,0 -0.08,1.14 -0.39,1.46 0,0 -0.3,0.32 -1.47,0.39 l -1.35,0.1 -0.37,0.03 0,1.22 20.26,0 0,-5.19 -2.21,0 -0.05,0.39 -0.09,1.67 c 0,0 0,0.97 -0.25,1.24 0,0 -0.25,0.26 -1.22,0.26 l -2.07,0.03 -6.46,0 0,-11.85 5.42,0.03 1.26,0.03 c 0,0 0.89,0 1.12,0.19 0,0 0.23,0.18 0.27,0.93 0,0 0.02,0.3 0.05,0.92 l 0.03,0.36 1.6,0 0,-6.53 -1.6,0 -0.03,0.36 c 0,0 -0.09,1.53 -0.46,1.82 0,0 -0.37,0.29 -2.24,0.29 l -5.42,0 0,-9.39 c 0,0 0,-2.33 0.55,-2.9 0,0 0.55,-0.57 2.85,-0.57 l 3.16,0 2.83,0.13 c 0,0 1.65,0 1.76,1.4 l 0.06,1.82 0.02,0.36 2.22,0 0,-5.43 z m -13.45,31.69 4.82,6.42 5.19,0 -8.16,-6.42 -1.85,0 z"
     inkscape:connector-curvature="0"><title
       id="title3229">É</title></path><path
     id="path34082"
     style="fill:#000000;fill-opacity:1;fill-rule:nonzero;stroke:none"
     d="m 146.63158,365.05756 -21.36,0 0,1.24 0.37,0.03 1.35,0.09 c 0,0 1.17,0.08 1.47,0.39 0,0 0.31,0.32 0.39,1.46 l 0.12,1.98 0,19.25 -0.12,1.99 c 0,0 -0.08,1.14 -0.39,1.46 0,0 -0.3,0.32 -1.47,0.39 l -1.35,0.1 -0.37,0.03 0,1.22 20.27,0 0,-5.19 -2.22,0 -0.05,0.39 -0.09,1.67 c 0,0 0,0.97 -0.25,1.24 0,0 -0.25,0.26 -1.22,0.26 l -2.07,0.03 -6.46,0 0,-11.85 5.42,0.03 1.26,0.03 c 0,0 0.89,0 1.12,0.19 0,0 0.23,0.18 0.27,0.93 0,0 0.02,0.3 0.05,0.92 l 0.03,0.36 1.6,0 0,-6.53 -1.6,0 -0.03,0.36 c 0,0 -0.09,1.53 -0.46,1.82 0,0 -0.37,0.29 -2.24,0.29 l -5.42,0 0,-9.39 c 0,0 0,-2.33 0.55,-2.9 0,0 0.56,-0.57 2.85,-0.57 l 3.16,0 2.83,0.13 c 0,0 1.65,0 1.76,1.4 l 0.06,1.82 0.02,0.36 2.22,0 0,-5.43 z m -6.28,31.69 -1.86,0 -8.16,6.42 5.19,0 4.83,-6.42 z"
     inkscape:connector-curvature="0"><title
       id="title3238">È</title></path><path
     id="path22132"
     style="fill:#000000;fill-opacity:1;fill-rule:nonzero;stroke:none"
     d="m 87.542543,322.75719 c 0,0 -4.03,-2.32 -9.39,-2.32 0,0 -6.82,0 -10.75,4.18 0,0 -3.93,4.18 -3.93,11.43 0,0 0,7.35 3.79,11.43 0,0 3.78,4.07 10.61,4.07 0,0 3.45,0 8.39,-1.28 l 0.75,-0.2 0,-5.67 -2.46,0 -0.03,0.4 c 0,0 -0.03,0.6 -0.03,1.18 0,0 0,1.96 -1.82,3.1 0,0 -1.82,1.13 -4.96,1.13 0,0 -4.52,0 -7.2,-3.84 0,0 -2.68,-3.85 -2.68,-10.27 0,0 0,-6.45 3.14,-10.07 0,0 3.15,-3.62 8.75,-3.62 0,0 3.66,0 7.82,2.27 l 0,-1.92 z m -13.28,-9.82 0,1.35 c 0,0 1.17,-0.3 1.95,-0.3 0,0 2.2,0 2.2,1.66 0,0 0,2.03 -3.73,2.03 l 1.9,3.5 1.58,0 -1.33,-2.38 c 0,0 4.35,-0.28 4.35,-2.93 0,0 0,-1.43 -1.15,-2.39 0,0 -1.15,-0.96 -2.85,-0.96 0,0 -1.44,0 -2.92,0.42 z"
     inkscape:connector-curvature="0"><title
       id="title3204">Ç</title></path><path
     id="path20944"
     style="fill:#000000;fill-opacity:1;fill-rule:nonzero;stroke:none"
     d="m 145.14848,409.04835 -21.36,0 0,1.24 0.38,0.03 1.34,0.09 c 0,0 1.17,0.08 1.48,0.39 0,0 0.3,0.32 0.38,1.46 l 0.13,1.98 0,19.25 -0.13,1.99 c 0,0 -0.08,1.14 -0.38,1.46 0,0 -0.31,0.32 -1.48,0.39 l -1.34,0.1 -0.38,0.03 0,1.22 20.27,0 0,-5.19 -2.22,0 -0.05,0.39 -0.09,1.67 c 0,0 0,0.97 -0.25,1.24 0,0 -0.25,0.26 -1.22,0.26 l -2.06,0.03 -6.47,0 0,-11.85 5.42,0.03 1.27,0.03 c 0,0 0.89,0 1.12,0.19 0,0 0.22,0.18 0.27,0.93 0,0 0.01,0.3 0.05,0.92 l 0.03,0.36 1.59,0 0,-6.53 -1.59,0 -0.03,0.36 c 0,0 -0.1,1.53 -0.47,1.82 0,0 -0.36,0.29 -2.24,0.29 l -5.42,0 0,-9.39 c 0,0 0,-2.33 0.56,-2.9 0,0 0.55,-0.57 2.85,-0.57 l 3.15,0 2.83,0.13 c 0,0 1.66,0 1.77,1.4 l 0.06,1.82 0.01,0.36 2.22,0 0,-5.43 z m -15.54,31.69 0,3.47 3.45,0 0,-3.47 -3.45,0 z m 7.9,0 0,3.47 3.46,0 0,-3.47 -3.46,0 z"
     inkscape:connector-curvature="0"><title
       id="title3206">Ë</title></path><path
     id="path28468"
     style="fill:#000000;fill-opacity:1;fill-rule:nonzero;stroke:none"
     d="m 445.49424,330.78495 c 0,0 -6.26,0 -9.94,4.21 0,0 -3.68,4.2 -3.68,11.34 0,0 0,7.24 3.7,11.4 0,0 3.71,4.16 10.13,4.16 0,0 6.4,0 10.11,-4.15 0,0 3.72,-4.16 3.72,-11.35 0,0 0,-7.32 -3.72,-11.47 0,0 -3.72,-4.14 -10.32,-4.14 z m 0.07,1.36 c 0,0 4.51,0 7.02,3.75 0,0 2.51,3.74 2.51,10.52 0,0 0,6.61 -2.51,10.37 0,0 -2.51,3.77 -6.88,3.77 0,0 -4.41,0 -6.9,-3.77 0,0 -2.49,-3.78 -2.49,-10.43 0,0 0,-6.63 2.47,-10.42 0,0 2.46,-3.79 6.78,-3.79 z m -6.49,31.07 4.81,6.42 4.46,0 4.79,-6.42 -1.71,0 -5.3,4.43 -5.33,-4.43 -1.72,0 z"
     inkscape:connector-curvature="0"><title
       id="title3215">Ô</title></path><path
     id="path15344"
     style="fill:#000000;fill-opacity:1;fill-rule:nonzero;stroke:none"
     d="m 353.82918,290.93535 c 0,0 3.42,4.56 7.53,4.56 0,0 4.73,0 5.56,-4.56 0,0 3.8,4.56 7.75,4.56 0,0 5.84,0 5.84,-6.4 l 0,-10.63 c 0,0 0,-2.36 0.35,-3.05 0,0 0.36,-0.7 1.64,-0.78 l 1.33,-0.09 0.39,-0.03 0,-1.24 -11.38,0 0,1.24 0.38,0.03 1.37,0.09 c 0,0 1.25,0.08 1.6,0.78 0,0 0.35,0.69 0.35,3.05 l 0,9.91 c 0,0 0,2.56 -0.65,3.56 0,0 -0.66,1 -2.39,1 0,0 -2.89,0 -6.33,-3.36 l 0,-11.11 0.12,-1.98 c 0,0 0.07,-1.14 0.39,-1.46 0,0 0.32,-0.31 1.46,-0.39 l 1.36,-0.09 0.37,-0.03 0,-1.24 -11.36,0 0,1.24 0.38,0.03 1.36,0.09 c 0,0 1.26,0.08 1.61,0.78 0,0 0.36,0.69 0.36,3.05 l 0,9.91 c 0,0 0,2.54 -0.67,3.55 0,0 -0.66,1.01 -2.33,1.01 0,0 -3.13,0 -6.39,-3.36 l 0,-11.11 c 0,0 0,-2.36 0.35,-3.05 0,0 0.36,-0.7 1.63,-0.78 l 1.36,-0.09 0.37,-0.03 0,-1.24 -11.37,0 0,1.24 0.39,0.03 1.34,0.09 c 0,0 1.16,0.08 1.47,0.39 0,0 0.31,0.32 0.39,1.46 l 0.11,1.98 0,11.38 -0.11,1.95 c 0,0 -0.08,1.14 -0.39,1.46 0,0 -0.31,0.32 -1.47,0.4 l -1.34,0.11 -0.39,0.01 0,1.24 7.66,0 0,-4.08 z"
     inkscape:connector-curvature="0"><title
       id="title3224">m</title></path><path
     id="path146070"
     style="fill:#000000;fill-opacity:1;fill-rule:nonzero;stroke:none"
     d="m 472.45157,286.09272 0,-5.18 c 0,0 0,-2.36 0.36,-3.06 0,0 0.36,-0.69 1.62,-0.77 l 1.36,-0.1 0.38,-0.03 0,-1.23 -11.38,0 0,1.23 0.39,0.03 1.35,0.1 c 0,0 1.15,0.08 1.47,0.39 0,0 0.31,0.31 0.39,1.47 l 0.11,1.97 0,19.28 -0.11,1.95 c 0,0 -0.08,1.14 -0.39,1.46 0,0 -0.32,0.32 -1.47,0.4 l -1.35,0.11 -0.39,0.01 0,1.24 7.66,0 0,-4.08 c 0,0 2.94,4.56 7.64,4.56 0,0 3.69,0 5.87,-2.9 0,0 2.18,-2.89 2.18,-7.8 0,0 0,-5.45 -2.5,-8.73 0,0 -2.5,-3.29 -6.64,-3.29 0,0 -3.83,0 -6.55,2.97 z m 0,1.57 c 0,0 3.14,-2.33 6.03,-2.33 0,0 5.45,0 5.45,8.73 0,0 0,9.24 -5.29,9.24 0,0 -3.56,0 -6.19,-3.39 l 0,-12.25 z"
     inkscape:connector-curvature="0"><title
       id="title3233">p</title></path><path
     id="path146070-7"
     style="fill:#000000;fill-opacity:1;fill-rule:nonzero;stroke:none"
     d="m 155.54939,295.77643 -3.21,0 0,1.74 3.21,0 0,1.05 c 0,0 0,4.95 1.59,7.14 0,0 1.59,2.18 5.19,2.18 0,0 2.8,0 5.34,-1.48 l 0,-4.7 -2.48,0 -0.03,0.39 c 0,0 -0.05,1.18 -0.05,1.86 0,0 0,2.65 -2.91,2.65 0,0 -1.57,0 -2.14,-1.15 0,0 -0.56,-1.16 -0.56,-4.5 l 0,-3.44 5.44,0 0,-1.61 -5.44,0 0,-14.94 c 0,0 0,-2.36 0.39,-3.05 0,0 0.39,-0.7 1.75,-0.78 l 1.44,-0.09 0.62,-0.03 0,-1.24 -11.86,0 0,1.24 0.39,0.03 1.35,0.09 c 0,0 1.15,0.08 1.47,0.39 0,0 0.31,0.32 0.39,1.46 l 0.11,1.98 0,14.81 z"
     inkscape:connector-curvature="0"><title
       id="title3243">f</title></path><path
     id="path15984"
     style="fill:#000000;fill-opacity:1;fill-rule:nonzero;stroke:none"
     d="m 121.77478,476.23159 23.82,31.11 2.48,0 -23.8,-31.11 -2.5,0 z m 5.96,15.55 c 0,0 -2.71,0 -4.46,2.09 0,0 -1.75,2.1 -1.75,5.32 0,0 0,3.28 1.77,5.34 0,0 1.76,2.06 4.55,2.06 0,0 2.76,0 4.52,-2.06 0,0 1.76,-2.06 1.76,-5.3 0,0 0,-3.34 -1.76,-5.39 0,0 -1.76,-2.06 -4.63,-2.06 z m 0.03,1.25 c 0,0 3.39,0 3.39,6.24 0,0 0,6.1 -3.31,6.1 0,0 -3.35,0 -3.35,-6.14 0,0 0,-6.2 3.27,-6.2 z m 14.17,-16.06 c 0,0 -2.7,0 -4.45,2.09 0,0 -1.75,2.1 -1.75,5.31 0,0 0,3.27 1.75,5.34 0,0 1.76,2.07 4.54,2.07 0,0 2.77,0 4.54,-2.06 0,0 1.78,-2.06 1.78,-5.33 0,0 0,-3.31 -1.78,-5.37 0,0 -1.77,-2.05 -4.63,-2.05 z m 0.03,1.22 c 0,0 3.41,0 3.41,6.26 0,0 0,6.11 -3.35,6.11 0,0 -3.34,0 -3.34,-6.17 0,0 0,-6.2 3.28,-6.2 z"
     inkscape:connector-curvature="0"><title
       id="title3252">%</title></path><path
     id="path15984-5"
     style="fill:#000000;fill-opacity:1;fill-rule:nonzero;stroke:none"
     d="m 84.785984,534.61011 c 0,0 -4.58,0 -7.39,4.25 0,0 -2.82,4.25 -2.82,11.22 0,0 0,7.14 2.82,11.39 0,0 2.81,4.25 7.54,4.25 0,0 4.74,0 7.559999,-4.23 0,0 2.82,-4.24 2.82,-11.34 0,0 0,-7.18 -2.84,-11.36 0,0 -2.829999,-4.18 -7.689999,-4.18 z m 0.06,1.24 c 0,0 6.28,-0.3 6.28,14.51 0,0 0,14.14 -6.19,14.14 0,0 -6.15,0 -6.15,-14.32 0,0 0,-14.05 6.06,-14.33 z"
     inkscape:connector-curvature="0"><title
       id="title3261">0</title></path><path
     id="path71590-3"
     style="fill:#000000;fill-opacity:1;fill-rule:nonzero;stroke:none"
     d="m 174.16753,318.25592 c 0,0 -3.77,-1.48 -6.87,-1.48 0,0 -4.79,0 -7.78,3.23 0,0 -2.99,3.22 -2.99,8.36 0,0 0,4.91 2.68,8.02 0,0 2.68,3.11 6.88,3.11 0,0 3.91,0 5.99,-2.62 0,0 2.09,-2.62 2.09,-7.49 l 0,-0.38 -13.28,0 c 0,0 0,-10.23 7.03,-10.23 0,0 3.66,0 6.25,1.5 l 0,-2.02 z m -13.2,11.99 9.01,0 0.02,0.89 c 0,0 0,7.14 -4.16,7.14 0,0 -2.25,0 -3.56,-2.18 0,0 -1.31,-2.18 -1.31,-5.85 z m 8.51,12.72 -1.86,0 -8.15,6.42 5.18,0 4.83,-6.42 z"
     inkscape:connector-curvature="0"><title
       id="title3270">è</title></path><path
     id="path71552"
     style="fill:#000000;fill-opacity:1;fill-rule:nonzero;stroke:none"
     d="m 42.265974,276.12427 0,26.66 -0.12,1.98 c 0,0 -0.08,1.15 -0.39,1.46 0,0 -0.31,0.31 -1.47,0.39 l -1.34,0.09 -0.38,0.03 0,1.24 7.64,0 0,-13.96 c 0,0 2.95,4.57 7.66,4.57 0,0 3.68,0 5.86,-2.9 0,0 2.18,-2.9 2.18,-7.81 0,0 0,-5.45 -2.5,-8.73 0,0 -2.5,-3.28 -6.65,-3.28 0,0 -3.81,0 -6.55,2.97 l -0.23,0 -0.5,-2.71 -3.21,0 z m 3.94,4.27 c 0,0 3.16,-2.33 6.03,-2.33 0,0 5.47,0 5.47,8.74 0,0 0,9.23 -5.31,9.23 0,0 -3.56,0 -6.19,-3.39 l 0,-12.25 z"
     inkscape:connector-curvature="0"><title
       id="title3279">b</title></path><path
     id="path147574"
     style="fill:#000000;fill-opacity:1;fill-rule:nonzero;stroke:none"
     d="m 13.204317,334.34222 -1.7,-3.94 -0.88,-2.48 c 0,0 -0.12,-0.36 -0.12,-0.63 0,0 0,-0.81 1.54,-0.81 l 1.05,-0.03 0.31,0 0,-1.24 -7.6899998,0 0,1.24 0.43,0.03 0.95,0.03 c 0,0 1.1200001,0.06 1.8400001,1.78 l 0.93,2.11 10.4299997,24.83 1.39,0 10.39,-24.97 1.04,-2.06 c 0,0 0.53,-1.16 0.91,-1.4 0,0 0.38,-0.24 1.74,-0.32 l 0.47,-0.03 0,-1.24 -11,0 0,1.24 0.36,0 1.22,0.03 c 0,0 1.56,0 1.56,0.75 0,0 0,1.2 -0.81,3.17 l -1.66,3.94 -12.7,0 z m 0.66,1.62 11.31,0 -5.63,13.5 -5.68,-13.5 z m 0.17,20.94 4.81,6.42 4.45,0 4.8,-6.42 -1.72,0 -5.3,4.44 -5.32,-4.44 -1.72,0 z"
     inkscape:connector-curvature="0"><title
       id="title3288">Â</title></path><path
     id="path21448"
     style="fill:#000000;fill-opacity:1;fill-rule:nonzero;stroke:none"
     d="m 94.099252,477.86811 0,4.94 4.94,0 0,-4.94 -4.94,0 z"
     inkscape:connector-curvature="0"><title
       id="title3297">.</title></path><path
     id="path52220"
     style="fill:#000000;fill-opacity:1;fill-rule:nonzero;stroke:none"
     d="m 109.53929,535.10132 0,5.22 1.98,0 0.02,-0.44 0.06,-1.37 c 0,0 0,-1.31 1.51,-2.22 0,0 1.51,-0.91 3.71,-0.91 0,0 2.61,0 4.21,2.07 0,0 1.6,2.07 1.6,5.46 0,0 0,3.38 -2.1,5.28 0,0 -2.1,1.9 -5.82,1.9 l -2.45,0 0,1.23 1.32,0 c 0,0 8.4,0 8.4,6.73001 0,0 0,6 -5.32,6 0,0 -2.29,0 -4.04,-0.98 0,0 -0.64,-0.36 -0.86,-3.17 l -0.02,-0.3 -1.98,0 0,4.53 c 0,0 3.2,1.16 7.25,1.16 0,0 4.12,0 6.5,-1.84 0,0 2.39,-1.83 2.39,-4.99 0,0 0,-5.28 -6.24,-7.55001 0,0 3.83,-0.98 5.47,-2.8 0,0 1.64,-1.82 1.64,-5.07 0,0 0,-4.09 -2.66,-6.49 0,0 -2.67,-2.39 -7.23,-2.39 0,0 -4.22,0 -7.34,0.94 z"
     inkscape:connector-curvature="0"><title
       id="title3319">3</title></path><path
     id="path40852"
     style="fill:#000000;fill-opacity:1;fill-rule:nonzero;stroke:none"
     d="m 192.001,473.36136 0,-1.23 c 0,0 -4.28,2.64 -6.77,7.72 0,0 -2.5,5.09 -2.5,11.1 0,0 0,5.83 2.56,10.99 0,0 2.55,5.15 6.71,7.72 l 0,-1.24 c 0,0 -3.06,-3.45 -4.2,-7.18 0,0 -1.13,-3.74 -1.13,-10.36 0,0 0,-6.58 1.13,-10.32 0,0 1.14,-3.73 4.2,-7.2 z"
     inkscape:connector-curvature="0"><title
       id="title3337">(</title></path><path
     id="path40852-2"
     style="fill:#000000;fill-opacity:1;fill-rule:nonzero;stroke:none"
     d="m 217.83122,472.37263 0,-1.23 c 0,0 4.28,2.64 6.77,7.72 0,0 2.5,5.09 2.5,11.1 0,0 0,5.83 -2.56,10.99 0,0 -2.55,5.15 -6.71,7.72 l 0,-1.24 c 0,0 3.06,-3.45 4.2,-7.18 0,0 1.13,-3.74 1.13,-10.36 0,0 0,-6.58 -1.13,-10.32 0,0 -1.14,-3.73 -4.2,-7.2 z"
     inkscape:connector-curvature="0"><title
       id="title3335">)</title></path><path
     id="path16396"
     style="fill:#000000;fill-opacity:1;fill-rule:nonzero;stroke:none"
     d="m 171.37595,365.09857 c 0,0 -3.77,-1.48 -6.88,-1.48 0,0 -4.78,0 -7.77,3.23 0,0 -3,3.22 -3,8.36 0,0 0,4.91 2.68,8.02 0,0 2.68,3.11 6.89,3.11 0,0 3.9,0 5.99,-2.62 0,0 2.09,-2.62 2.09,-7.49 l 0,-0.38 -13.29,0 c 0,0 0,-10.23 7.04,-10.23 0,0 3.65,0 6.25,1.5 l 0,-2.02 z m -13.21,11.99 9.02,0 0.01,0.89 c 0,0 0,7.14 -4.15,7.14 0,0 -2.25,0 -3.57,-2.18 0,0 -1.31,-2.18 -1.31,-5.85 z m -2.11,12.72 4.82,6.42 4.45,0 4.8,-6.42 -1.72,0 -5.3,4.43 -5.33,-4.43 -1.72,0 z"
     inkscape:connector-curvature="0"><title
       id="title3346">ê</title></path><path
     id="path57774"
     style="fill:#000000;fill-opacity:1;fill-rule:nonzero;stroke:none"
     d="m 172.59446,410.89249 c 0,0 -3.77,-1.48 -6.88,-1.48 0,0 -4.78,0 -7.77,3.23 0,0 -2.99,3.22 -2.99,8.36 0,0 0,4.91 2.68,8.02 0,0 2.68,3.11 6.88,3.11 0,0 3.91,0 5.99,-2.62 0,0 2.09,-2.62 2.09,-7.49 l 0,-0.38 -13.28,0 c 0,0 0,-10.23 7.03,-10.23 0,0 3.66,0 6.25,1.5 l 0,-2.02 z m -13.2,11.99 9.01,0 0.02,0.89 c 0,0 0,7.14 -4.16,7.14 0,0 -2.25,0 -3.56,-2.18 0,0 -1.31,-2.18 -1.31,-5.85 z m 2.34,12.72 4.83,6.42 5.19,0 -8.16,-6.42 -1.86,0 z"
     inkscape:connector-curvature="0"><title
       id="title3355">é</title></path><path
     id="path57774-5"
     style="fill:#000000;fill-opacity:1;fill-rule:nonzero;stroke:none"
     d="m 84.903665,275.1087 c 0,0 -3.13,-1.23 -6.11,-1.23 0,0 -4.77,0 -7.73,3.18 0,0 -2.96,3.18 -2.96,8.29 0,0 0,5.09 2.84,8.17 0,0 2.85,3.08 7.53,3.08 0,0 2.5,0 6.43,-0.99 l 0,-5.17 -2.47,0 -0.02,0.36 c 0,0 0,4.49 -3.9,4.49 0,0 -2.91,0 -4.6,-2.61 0,0 -1.69,-2.6 -1.69,-7.05 0,0 0,-4.55 2,-7.17 0,0 2,-2.61 5.44,-2.61 0,0 2.97,0 5.24,1 l 0,-1.74 z"
     inkscape:connector-curvature="0"><title
       id="title3364">c</title></path></svg>